<mxfile host="65bd71144e">
    <diagram id="j3pGpy5wpHUKsVabkb-9" name="Page-1">
        <mxGraphModel dx="1253" dy="704" grid="1" gridSize="10" guides="1" tooltips="1" connect="1" arrows="1" fold="1" page="1" pageScale="1" pageWidth="1169" pageHeight="827" background="#ffffff" math="0" shadow="0">
            <root>
                <mxCell id="0"/>
                <mxCell id="1" parent="0"/>
                <mxCell id="27" value="" style="rounded=0;whiteSpace=wrap;html=1;fillColor=none;" vertex="1" parent="1">
                    <mxGeometry x="280" y="100" width="220" height="170" as="geometry"/>
                </mxCell>
                <mxCell id="47" value="" style="edgeStyle=none;html=1;" edge="1" parent="1" source="3" target="5">
                    <mxGeometry relative="1" as="geometry"/>
                </mxCell>
                <mxCell id="50" value="3D File URL" style="edgeLabel;html=1;align=center;verticalAlign=middle;resizable=0;points=[];" vertex="1" connectable="0" parent="47">
                    <mxGeometry x="-0.0643" y="1" relative="1" as="geometry">
                        <mxPoint as="offset"/>
                    </mxGeometry>
                </mxCell>
                <mxCell id="3" value="" style="shape=image;verticalLabelPosition=bottom;labelBackgroundColor=default;verticalAlign=top;aspect=fixed;imageAspect=0;image=data:image/png,iVBORw0KGgoAAAANSUhEUgAAAMgAAADICAIAAAAiOjnJAAAPBUlEQVR4nOydf2wT5f/AW7pZGLOjE7K5DAfWIYMWM7rpWJTZkCxEh4hdcGKahYhkYRojGPQfUnCJMRpDlpD5hyEknZlWY2AL2UaiDubYLFkDzsE2CBlBrc5ldGm6VLjdnm++6Sf77DO758fdPb279v36kzz3ft73vhfPdffjfRkIIQMAKM0ytRMAUhMQC+ACiAVwAcQCuABiAVwAsQAugFgAF0AsgAsgFsAFEAvgAogFcAHEArgAYgFcALEALoBYABdALIALIBbABRAL4AKIBXABxAK4kKF2Anrlt99+6+vru3r16s2bN+/cuTM1NRWJRGZnZ1esWGGxWPLy8mw22+bNm8vLy7dt27Zy5Uq18002RnhLh4mhoaGvvvqqo6Pjxo0blJuYzebKykq32/3qq6+uXr2ac4KaAQEUiKL4zTffVFRUyCm12Wyur6+/du2a2nuTDEAsMu3t7Xa7Xan/ySaTae/evbdu3VJ7t/gCYuG4e/duTU2NUkotJCsry+v1CoKg9i7yAsRaEr/fb7VaeVg1zzPPPDM+Pq72jnIBxEqAKIoffPABV6XmWbVqVU9Pj9p7rDwg1mIEQairq0uOVXFMJlNbW5va+60wINb/cP/+/d27dyfTqlR1C8T6L2pZNe/W2bNn1a6BYsAF0v/w4MGDvXv3tre3q5hDdnb25cuXt2zZomIOSgFiGeRYZbVan3/++a1bt27YsCE3NzcjI0MQhD/++OP69es///xzIBAQBIEpYHFxcTAYfPjhh1kz0RxqL5nqI+EMaDQa3W53V1cX/kJUOBw+derUxo0bmYIfOnQoiXvPi3QXS4JVLpdraGiIfgpBEHw+X35+Pr21vb29PHc6GaS1WKxWmc3mU6dOSZtrenra7XZTTuRwOERRVHp3k0r6isVqldVq7evrkznpsWPHKKfz+/0K7ag6pKlYEqwKBoOKTH38+HGaGe12uyLTqUU6iqWiVXEaGhpo5tX1rZ60E0t1qxBCsVhs06ZNxKk9Ho+y8yaT9BJLC1bFGRgYMBqN+NktFkssFuMxexJII7G0Y1Wc2tpaYg4XLlzglwBX0uUtHdZr61ar9fvvv9+6dSu/lN5//33imJ6eHn4JcCUt3tLhbdXc3NyPP/7Y29sbDofXr1//8ssvP/7448StysrKHA7Hr7/+ihkzMDBAmYPmUHvJ5A7vM+CtW7fKy8sXRjCZTI2Njffv3ydu6/V6icnI23vVSHGxeFs1NjZWUFCQMFRdXR1x8wsXLhBTmpyclFcDdUhlsVS0Ks63336LjzA5OUnM6pdffpFdCRVIWbFUt8pgMOzatYsYZ/ny5fggOr1MmppiacEqg8FQWFhIDEWMc/78eXnFUIcUvNzA+2/AmzdvulyuUChEHDk3N6fIGD2SamJpxyqDwUDzkHEkEsEPWLFiBWVu2kLtJVNJNHIGnOe7777DB5yYmCAGuXr1quzCqEDqXCDV1FplMBh27979yiuv4McMDw8T42RmZg4ODobD4QcPHsQfNszNzS0oKKB/JFUd1DZbGbS2VlVVVUWjUWJY4gVSDBaLZfv27UePHu3s7NTgvepUEEunViGESktLJUm1GIvF8vrrr2vqwoTuxdKvVcFgUJJFODZt2nTmzBktNLHRt1j6tQoh5PF4JMlDprS09NKlS1KLqgw6FkvXVgUCAZPJJEkbWt54443p6Wmp1ZWLXsXStVWCIDgcDkm2sFFcXKzWrUZdiqVrqxBCjY2NkjyRgsViUaXXiP7E0rtVH3/8sSRDpKNKjySdiaV3qz755BNJbsgl+W7pSSywSg4mk+ncuXOSCi8F3YiV5lZlZ2c/9thjhYWFFotFThCmdiZy0IdY6WmV0+lsamq6dOnS1NTUwmhTU1M9PT1er/epp55ijblhw4ZIJMJSe4noQKx0s8poNHo8HsqlJRAI1NbWMl0SS07/La2LlW5WlZeXS/gmSiAQoL8wlpz+W5oWK92sOnz4sOTbfLFY7ODBg5QTlZaW8u6/pV2x0soqo9HY0tIiqU7/w4cffkg5I+/+WxoVK92sOn36tKQ6JYDSLYfDodSMCdGiWGCVTCjPifIbFGLQnFhglXwo+2/V19crPvU82hILrFKKvr4+Yv+tnJwcmgYT0tCQWGCVstD03/rhhx84za4VscAqxbl8+TIxk2PHjnGaXRNigVUY4p+j3rFjR35+fkFBQXV1Nf3zVU888QQ+merqavpMmFBfLLAKQzQafeGFF/4dp7a2lubnEfFznvn5+fTJMKGyWGAVhmg0WlVVtVS0t956ixihs7OTmBWn5+LVFAuswoC3Kh6Q+Cl8mve2b9y4QZ8VPaqJBVZhIFoV5+TJk/g4oihmZmbig3C6TKqOWGAVBkqrDAbDkSNHiNGIH+Ln9P60CmKBVRjorTIYDCdOnCAGfOSRR/BBUkQssAoDk1U0ToiiSHwGMBVOhWAVBlarKioqiDHv3r1LjKP7H+9gFQZWq4qKisbHx4lhz58/TwzF6RH4JIkFVmHgZBVC6OjRo/hQ+r5AClZh4GcVQqi4uBgfbefOnfSpMsFdLLAKA1er+vv7iQG9Xi99tkzwFQuswsDVKoRQwpuMi+DXRoujWGAVBt5W9fb2EmPm5OTw6/3HSyywCgNvq6LR6JNPPkkMe+DAAfqYrHARC6zCwNsqhND+/ftpIvf39zOFZUJ5sQRB2LNnD33hWK0aHx8HqzBQtvguKytjCsuK8mIx9S5ntWpqaqqoqIg+Pli1FLy//aSwWNPT01lZWZT7xmqVIAgul4v+wIBVS8F7uVJerO7ubsp9k/CN+BMnTtAfGLBqKUwmE9dfV3EUFuvMmTM0+ybBqmvXrtE36wGrMLz99ttMwaWhwoolwSpBEMrKyigLB1Zh2LhxI1NxJKOwWJFIJCcnB7NjEqxCCPl8PsrCgVUYLBYLp4dk/o3yfxVi2k1Ls0oQBJvNRlM4sAqDyWTq7Oxkii8HLtex9u3b9+8dy8vLk2AVQujs2bM0hausrASrliJ12nH7fD6n0xnvS5GXl3fo0KFQKCQt1I4dO4iFKywsnJiYoI8JVvGG79MNsVgsHA7LiRAKhWj+GOzq6qKPCVYlAfVfscfT0tJCrJ3b7aYPCFYlB62LVVNTQ6zdyMgIZTSwKmloWixRFFetWoUvH32/FLAqmWharJGREWIFfT4fTSiwKsloWqxz584Ri0jzxyBYlXw0LdZnn32GL6LNZiMG+fTTT+mPClilFJoW68iRI/g6vvjii/gIXV1dxB6v84BVCqJpsYj9yg8ePIiP4HQ6KY8KWKUsmharvr4eX83GxkbM5jSdC+KAVYqjabGILwU0NDRgNqd5BQqs4oSmxXrnnXfwNa2trcVsPjw8TDwqYBUnNC1WU1MTvqxbtmzBbC6KYn5+PmZzsIofmhbryy+/xFc2MzNzZmYGE+HkyZNglSpoWqwrV64Q69vd3Y2JIIpiXV1dwqMCVnFF02LNzMwQm/7u378fH0QQhObm5oXnRKfTyfQNGbBKApoWCyFUUVGBr3J2dva9e/eIcURRHB0dvXLlCuvzhmCVNLQuFk3R+X1pCKySjNbFCgaDxHJnZWXdvn1b8anBKjloXSyEEM3HQquqqpRt9QRWyUQHYmEuGSzk3XffVWpGsEo+OhDr3r17+Jdg51Gko2YkEgGr5KMDsZiOxOHDh+WcE0Oh0NNPPw1WyUcfYk1PT+Nvzixk+/btxO+tJaS9vZ1+FrAKjz7EYmrfEP878b333qN/hXVoaIipCyFYRUQ3YiGEdu3axXTss7KyPB5PR0fHUq/eh0KhL774wuVy0T9lClZRYvx/uXTC33//7XQ6f//9d9YNMzMzS0pKbDbbmjVrMjIyYrHYn3/+OTo6eufOHQlpFBUVXbx4cd26dfSbHD9+nL5rnMlkam1tfe211yTkpiHUNpuN/v7+5cuXq1guWKso0ZlYCCG/30/f2k9ZwCp69CcWQqitrS35boFVTOhSrPi6lcxzYnFxMVjFhF7FQggNDAwUFhby1Ok/VFdXszZjSnOr9C0WQmhiYoLYjkYOZrP5o48+EkWRKSuwSvdixWlra1uzZo3iVj377LPDw8OsyYBVcVJBrPjzCF6v12q1KqKU3W73+/2sCxVYtZAUEStONBptbm622+3SfDIajTU1NR0dHRKUAqsWkVJizRMMBpuamiorK81mM/EYW63WPXv2tLS0/PXXX5JnBKsWoadbOhL4559/RkdHr1+/HgqFJiYmZmZmYrHYypUrLRbLo48+un79+s2bN69bt27ZsmVyZknHOzZE1DZb98BalRAQSxZg1VKAWNIBqzCAWBIBq/CAWFIAq4iAWMyAVTSAWGyAVZSAWAyAVfSAWLSAVUyAWFSAVayAWGTAKgmAWAQoW5KAVYtI8ZvQMvnpp59cLpcoijSD0+XuMh0g1pLMzs7a7faxsTGawWDVImQ9LpLanD59GqySDKxYS1JSUjI6OkocBlYlBFasxIyMjIBVcgCxEnPx4kXiGLAKA4iVGOLnqMEqPCBWYiYnJ/ED3G43WIUBxErM3NwcfsDq1auTlYsuAbESk5ubix/g8/kGBgaSlY7+ALESY7PZ8AOi0ejOnTvBraUAsRLz3HPPEcdEIhFwayngAmli5ubm1q5dGwqFiCMtFkt3d/e2bduSkpdugBUrMcuWLXvzzTdpRsK6lRBYsZYkHA7bbLZwOEwzGNatRcCKtSRWq7W5uZlyMKxbiwCxcHg8ngMHDlAOBrcWAqdCArOzsx6P5+uvv6YcD+fEOLBiEcjIyGhtbU34KfyEwLoVB8QiA25JAMSiAtxiBX5jMSDh91ZfX5/D4eCclxYBsdhgdcvpdA4ODnJOSovAqZAN1nNiMBgEsQAqWN0KBAKcM9IiIJYUmNwSBIF/RpoDxJIIvVslJSVJyUhbwI93WRB/yxcUFNy+fVvdr8KqAqxYssCvW0aj8fPPP09Dq0AsBYi71dDQsOjfs7OzW1tbX3rpJZXyUhk4FSrG4OCg3+8fGxt76KGHysvL9+3bt3btWrWTUg0QC+ACnAoBLoBYABdALIALIBbABRAL4AKIBXABxAK4AGIBXACxAC6AWAAXQCyACyAWwAUQC+ACiAVwAcQCuABiAVz4vwAAAP//b8cbMGXTzMEAAAAASUVORK5CYII=;" parent="1" vertex="1">
                    <mxGeometry x="680" y="120" width="100" height="100" as="geometry"/>
                </mxCell>
                <mxCell id="5" value="" style="shape=image;verticalLabelPosition=bottom;labelBackgroundColor=default;verticalAlign=top;aspect=fixed;imageAspect=0;image=data:image/webp,UklGRvSVAABXRUJQVlA4TOeVAAAvYUOiAI3IjSTJkSSLePyRq7/AA9+ePCai/xPAl8+l/RfTOQ914oPv9Ma2j+tgAdYTyleY+yzp1F0lAW36DParVs4DKwvpqOGsvDdgRWiqkJLtrKYKeAto+2xsHr/rgdw6V+P5Nv31PW9XlucnpS+0TTlWCTNI/A7id6oHrEVdQXEe//rbna+sE7dtJDkS73X+EU4Ia75WM4c5/JvnwIkkSZLktv+/BSHE5Y/oIJzY1hLESJIcRWkC/tuEEYXWGl5uXPR/ArD6DJEdNvqP5+4uhskhKgwARk8WIWsQP0/xtGL4C4BkiHREZImneNsROUQUAgwBIFC6d6CwIJFLDjm0OxTmnMmt53+QBJCCIWJICUNEzsAQacCOPRPbUMjqbvlUCGaqQBARgQACCCAwxBBp4LkiBhNH3g4/vAlS+AGqWgBARNDlziD+yIq3VxSCiAAi0EzEgEAEkiEZRoPyTjzp6QuAIdkQETFE5uYbIIeG+BvcdbqFtuAHh/sAbvXWqBS2bRtJktR/1/veXXhJREwA/8++ooiTCuqkuqEKTlqecWsECojXqojOpm1SRecIgkpsRjEtqKI4VB2kgCoqdqCKGypQRUSTIiqadIKK4/DoGRJXY4y/r+dt29dGsm3r/n5yJBblqJyjuCYzzxbzbPOcbaY/YV6zx9jlPjMzMzMzFg0qyszKiLB+X0OyLEsRYdeMa17yK0m2a9u1bXmWVtuYA8DinPO1tKWuz14fAnERja8lgXNgzN57q+lbkiRLkiTbQlKLrEv//8/1f8wlM8JNOSbA261ty94227as234cJ0u2bMuMAccOOHXjQJ0y3IWb6TdezEzFFMOcOGmYDZIFJx3Hvq8fdCZVbl83f/Fo27Zqu7Ftldp6H2PCIi2hKQza4WCOOMzM55/2lx0+597NEGgHyjLIlpcWTByj91Y9SZIk27YlSUQiuvY+5773rLbx+Lysrs3G5EOy2l51z95LVTgmwB+2bav0NP93XNe91hp5NAlEaCgpoQlWwaVGkUJp3xavQVvq7i1SFwp1N0qNOl4KRYrUcUrx4ESAhNhjM7Pkvq8/ZmbN5Eleno9/5Mi2rdrKmPe9//GU/veJmCJyd+cu35IkWZIk2Rayutf//2v33CdcKCYgweL/xf+L/xf/L/5f/L/4f/H/4v/F/4v/F/8v/l/8v/h/8f/i/8X/i/8X/y/+X/y/+H/x/+L/xf+L/xf/L/5f/L/4f/H/4v/F/4v/F/8v/l/8v/h/8f/i/8X/i/8X/y/+X/y/+H/x/+L/xf+L//+/YxlLJ51LLowxXEpluijGy8tNB0hnJ+kACLt0wXRiAGz68sMPL0snHYysFJA5SCcdoLhhlyYSABABwzDQkQGlh0AUBqQzzsAwXJpMAABmsjgxDEUIAEYY2Mfjb9fffIUQhpGFAKIDoIS4NNFP+I/hOK7/ZzIDwDB8ch1HsI/rKOwwnTAAOgaddGkiaIPWz6oPxuVX+P8NforhSaiS+Cd8hFVerweXMMZYOt0RkE7moPY2ucTLFy5LBmAYQiC+/9zRhrn++X+s+Px/697L/652t9p9Q4/Ubz6/8+F9zZ/0J55xXdOFGy5609lOCaRO4xr8aZ3ir0sTsPEbwwVnHHNH4/vn5qe75fn/Z4/+B6JL4M/5f8Ivv/2P//vFf36/w3f17bjKdRVRz/ZK5Zx0ksKJ+6p7i9TlCcWJ4Yz9UPC75/f7x7P/H7/+VR//DzR/clcgcf/defLPH+4X/+JltccMm2tZGFmkk076tO7rfv7xU3/x9/P4d/exfzinvosTnnCCSxEgwEDgLv5lHR//TX39n1+Du4/pywb6K3IDsCky1s/p4vF+75/8FtSMC0kfjNFo3JVUCXJ55/Lz5un+0Ymrx7pzqLXiE6sdo997sfbddGfe0P9fhEAgMOg0kX/5+XnwO3PwwvbuUmtgp1WldBnXluq3n891hENgA+w2dz7SO379/CHvJQ9l9om9UTnSlnmPeqv25VeKShmBgF2CICBAtNQTNy4l9z7eZTdRy3IBBECoOJ55+eM9Z1xwaeSuhe+XHvf64bpn4b7tiWNyJ+M06C19bVXrr3vf7yclYQS4BGG0zUHgrz/koR/N/OWkTmdZChchiDhgkddf7GukoUpZVu9OFpByv33GodVFJx3CMTltTL84HTJZ5V04VbK0JVxh6fIDRAoUvHLN7Q9PZ5g4Sq9CGSV2IGAsXJJHPtzvDSI6ok2ZMrUglUoNyALSPnnItYk7yLzXMHE3WjrYOtWYWM67OU+v8t1rxQWkLj8wiIigs8xk+64qqHO2bQibBQgiLnhIXs8zz2fCarlMAYCpHcMjRco6tdfucaZN90BqFFWA0BmkievIpzufTLd1gbgECRNYUb3Fr9ObV5TMh4dLuQsCO3FMIVBKZVp59flcYyUGBHaaAoCgh7FUCqiX+7y64K6Ywc1OjWZcrmIwcuRRTvTT7QfWfFxtqV1h/78AgwDoqUtO6ckRg8QCIwJpCuFCK2Yxb9y+t9AQAAKFMgWYQoAuYykAqPM58VkXR8N2QolLWUoDYDEouOpcUGK3JNgKizACAgAAjIAAgEAggO7CFVBKGcL/CpIYjIFDHkfefzzzF7Pn5GVvSpUMAEggEACIdDSqVGSxn/nkf27wc80IgpgSQEyZwuYAwOn9+2juS6//78yd21kaFlHkAI4AUCCixOPY8M3TpDQsttVIsCUWIJCxBAAAK0ADAwNy1UXL4wAAjyPgAYAYmOkbACCAR4GcCEH4HzcwZTBWeODif7a2jttRDH0gwEIMFgBSKZeM43693S03AACFBgFBsEEBQFnSz53bZ6nTpKmWJBkAjUMZ0JRwj6/5eHUnk7IVEAiVAABCBiAwIhC4IMD/insUAQACBgAEYoyM/Q4MAwI5QkJGgiHA/7glgZjwUd3Hlv93ra2bvTRE8448AAAYRYwyMliwuAo1z3r9I66BwWgjNCXAQb/S6QDXLWmtVz+3F1pIQh5SGJcSY4mNHsuV7UyWVfUAW2egkhJNgAqEXoCMIkajJIYoiBxxwTIMxcgIPMnfuIE6AHAcewAz/kDG37iNldTIydmBd1Dhf9xARIQkIqusTdckocQcAAAAOUY5SpQowRgp1TtdH1/79j5TpjA4ACAnPBtgsxcVIDxVr39Zn6lAoqjEgDCWFimjVH3mJ3anAL97AGBoEFMUe6u8BGRZbVpUFHDZGtPBhRl1wHKUe7mBX/Mg66mSAQAXcQBGiz0MdcDa1nId5/Mv1gI5TYaAgzDgf9wGAIYZ0nq8HvgWv/mzmbZ0T6eEACACYMQoVaLEiaKotbmvefVXv5qaW5w6AgjkkNH1KZuLTTlOOpx3fLz9TiJFAo6CCCA2gno+R4obGWAXFfNhfnsYlW834r1NChH0YPtAtXjt09WnVNpRApzdORGCR1DAKHAobQEAUADAIygARkAwQFDAE4gIJhIQieGKrUhMYQ3dtf2udwe3A90v4kUEhP3KACNHHQiKAbl5cnuQa/kbfwMMAHAMkmHUqfI/cCCCoAyc7bkfPGtf3G8/z0S6BAAAQIxdyijBYExZ5VJlqA3xIjUHAABI8GyAsimgVeusd0nIwSAAEAKaVKYke3NmAoPAbGCsj5vndywpZT23+f2VD5650RySZF3pSliX/xGrVGLDBZzdgRhjkjoCAARWsJJHaDDGFKsAgIiIhJgRBpnNIPNYyAIUgIDhAMMIgmkAAC6fvP1+buWq9iTeA0Podi3PAWZYACCYKwa0xCa4hZu3X9v6rCUmogOAwxgADAAQ/gcNBmEg7Z8u2n747fPkBzMulkEAACAQMQAgI0AiTZXiOPLM709mAAAAMBi8vjrllHVVCQAAGBGrEJKhNPOsFuxiCAbRxxhjPfKmcjYnfnRnJ+vSN/fScBLJfW4eeuVhrV/Vq7/04lMHCAeuswvA8DzEvVzPMu5iLZM4qng8hiKAAIGMgCNCAAgMMYcdWcgSFrI92zJEiyMKwQQCBqDbuUmXcNMUTQgUZqhBydvYhogZlgFCToy5B7hjruTStEipWG6gKIFOCowA/2MXAiYCfQDOPK0nf1Gug05OVBpFbAQEAAAMjgia+vS89eL+6MC0b4EABrlJCIH1VXLqPfXWKdkiAGAJYBBhcrq3YIkOsJgxaEoxVCqte5M8/sEcvqwTr9MvVtgdJSTO2hX9BW/+nv4TjpauKDHcswd1utuu5xrda8sVsPEN3PgWJIiZQA0gAFAbjRAorFgQNycbCM0wzZ457bl6ln0Gz1ohGETjbORmrpybc+8U8ROAEHCb9bBOTjZF1G5mWxJgv04RMh7UJXNT3cDjE6ME1HxiwpaSBDqBUMfUJgBgBxkcxUDwoOnx+dDr6505773IxvY9PB1rWaCNBinhMAQmFAnFlJitRnPoOyDl/w/+H//yjUr0CcOAuPa0wmv+tMfv1fWXfSQlALQ9toZbt7M+xHrDIhfcAQAYHACAMVXoCX2Nj18+mNNtzl7vpS3zXma1w2Wfqr8qnzqTV/zJii+eevKTsoqdLR5PLEMtU2Jj7o7t6lwwE9Xcpuo+J4AvBF11oN8VBmo/DuaF29PLNilFPO8UoS8Zj3MLf+ICZNBtg/JBADpgktUlDgqat/5c8yyxGVXGBMt0hS5m9ZZy6YRIBAEA5fgCAwCiA7DOVu0boloDetlBBkMC4pCKFQvPvVWv/25Y7lbJbWQcbSMFgQAggIiCmVLL65NnKv2JQP4l/A83QBgihcraZ91PkyeakpQA0uru4aOT3cl6wsPCICAAACAEwEBQmYLMyYzzw9/3yek63NPbxY2Oq6hQYTDioJQx3VP+dsylfUY7z5iAIJYqdQ+t3+cajtFXlgamCgQdKCv0S4A8YVzmsD9HziGpYFS9pqsBAKinE/kHG4gAAAQACAAwQJ1MJsFVfYZBGNubDOFiPqUVEyRECeQEbDQAIANgDdoZgLCblrWKDewQA4AABABE3TP21nq/d5tS3p5vsPAJLQ4AAIBAILDpFK7HlODM/pEswL+E9QnDEEit7ZTTu6MDoIQiUcbx3e2z09c7Pd46T+klYCGIJUE6rkKZe8L86Pl+8XNv3z8705VJMRIRAGiRRbRjKGc79iTy5sW59DnJmZITAxnX6sy5IRlGyhApFQQdKN83HyMaTZg8FWxm5Yg5MntQ9YJToI+3sx5FCUA/8wlxsyi1VAQz6JTAzzhFJkFHAB9BI0CvTTXxMG3g8Btg1tef+uSzn2/uJoYXwjxAKRAAAAAJiYqKmuFynt76ULtEKxBSH4QQaD1rtdZeayYAChCs9jxUbe/6uOEwhWoBgEQSGgvT8v7Rs7rycm+w9x0v984GAAAANEvEJTBRs8m8Y/c94GyJmeRSfs7rtliKADlGghsAQTB8AHT6YQgloEKKESXDj0tChZR9OHGOKGf9cNQxmsSAj67eckCI568BNIOClB/zCWqrqGJ8BDdgQEgvQanv5ePicGIDAIBhgQQAABIAAEAg4A5hHxLr0vf8+Z+lqbuUyIDSQABAQgIAES5Myqh4fdX3vawSLZptABjwiO7dqi0MQCQw5OGmPTqnnWW+My/Tg0EuAsfHE3yJrx+9uF58VdfnGV6em3NXrhTYWGAAgwIbAJianjAZ7cGZaQjguYQvs4xUPrImByAmJRoAAImNYSgQsJEo0WhaAIDiRgNhioSRRFPCAIAQaNcBgN15Ny9NBcwwwDAMo1vKJBEVMrJS+bgRBAEAhG6DAMxLNFGwGZTHcSYfwFRdSguNIQCArB6SNn6L6xxGIAAISAAAILEAMAA7IRAQQAAAgGnata9+X+FTZ3n3ZkodGAxWBNiJKKEDVwg/mXJavXSoEkUDgKTavS81UwsDCGAxynazZcaF/WUPg0HuAIBcHXOe/KKe/N0er8zVjU0tEzkSCmwMAASNhSxUSotdDddNcCZ4HODlDP7Md3SbjWmICRCUtTEERQd8QDDCgEQAQ3ATJZoNiUlGE8boR/sQxTyTj6Slggmg/Oc5k5soUMBt9YKecwwhHi0BZtAZCXdzBn9yNlkUo0g0AAi1yaJhgDo1EhxGIRBgpwH4VIkFGAwCAAAEYOzUd8O1l7rn6e/Pf5TtfsQWIyJcgOIyLgVN+InP4MJTn39roaNUT5C25uWPV6Zq6JJoDi6PkGKwAyEGAyABAJjbbtnP7/e//OxsDower5V71+bWNm40wM7gmDsAF31VWU3v06rZyNngyEhwtn6dll+RUqyJmiSaoDI+huAG8thIFDcuboQqAFDETx4/PjouEAb6peOSUeX1PEKNJuWO4Rz+ytlcg7OiJugti43moFHDALc/BZRASw/pLC6cRoopUkTRgXYEsjAAhsOpERQbwACIwqxfaM0CqOUN4RIllANAEKQYBIAwAsCsXUv1t+Q+GO3z+vDzKfXNgBLEAoQVwlIvl14afWnD2cpoWimkAGVTgGJp1b3z1eu8LnoARrAru5KuqV43Fp0OAAaDwIMKLDDReeOQv/oT27MM7p/CaaZJxZwjZYFDJIDFJlfuHpJWOGeCkQEXaw9+qZbCliqeDBedMoYfjSae5+dp7DjbZAcGGGFgtAAgbOM8yRj3ZTl3zSO5Dz9Cv1JGmcjVczC/o0I5qPNKfsv1/EiXEA0AYOXCgBsXAWbUAQUaru6tcGezXR6dIoEQwAABAoTgf6xCzBbQ44ZE4X79XX+x4oOskThQAgBx5EKsO/6w+8eBAFbBiEBhEQgjaBRd15PpjnZyP/r6euIDNtnV6eQIsAjFtcq4XC/83G6l1b7jqqsnBUB58KARY43d4Hg+9dUn7k/sAAHYp9yeW8+1L9bfXulHaicRHjlIODj07bjEvAy/fpbJeZUynSUI4lT13bKgAABHBLCaeDgKAWngcJBuBGeXGEpACeT6JGdrTMUgCIJYsgAAQvxUMIoUMxA4gE9zyIywNdVyPgCAEBhQ8kH+xYVzHdCIYVNNSoUMN6XaQ2vyb0AQBKFEAiS8kLO5gSNzmVBGc0soJVRoxuY3bWbV9VH3+fyAFTSpUli1ikEAJgwgBCC5xvV6jwgOIaZhQ1S1x5or7bx3ve9berREwVu9AQDz1Ozw0ePiy9+WN1YdEasAAIEBAACAgEYR0X2+7nrXFz9IyykFxAJADFGltrUUK6vemeb0IukNohSEYQgAwYn3/nXrvKUnBVJA7JqrW686Xo46xs0Eq5BI2LQ7m6lyHX7z+3w0DQAEg0QDQhkBHClGAFUpFxJOdJpjnSxuVYHZBwoURNzEy2zZygsQAgQgQhgAVJBMUps9+BBvmG160I4DwBAYUFY8cykZl8zZuWlaVPAppp5iAELKGYEpFOjdmxFp9XynfgmUlyQDBgCagW3LOybPeXyf22cgfhAAAAJghEOpERCBZc6kn/5w3sz93i946MByU3I96QcA4CGzVZ4WNx59nGtz7MWvvWOLQKFAEEZQAACAiBEcUEcfu7Hh/U+SFnHJDjGC6MpxaYk2yuI6xir81o9OiZxylYcUFAt7w33jyyGyAKzOAWJrrh77WneeanYlH71hELEKgGqnxDpT6i//jA9eBkhFOxIAABHgAAijCOAo12UR+dbsns3zRIz1gg7v3BBQEi7iJFbNSDchhBC0IwTgR5NxML/ICxicqXg/NTEEBoAA0AsAoDH9i29wy+RxE6IDACGlgjzjQB8TQJlfp/E2RtKcUjN39aKeudfMubwjU1MFAEFHBrDDiAhghDL0i2+0+7k/vb/2j7Ln0LOpFAzDxgEAIs04nQXP4ydRJ5Z9/ObdO14gAigYIGIUAQCjURRkL5x5l2f+Bq3HYwyAhAEHE8YqKZTKAZXRyCt3k37Lb/MRqVRVFQCV3mP3+LUypxpDzolOwD7Nbbcurz9nz4jccAEbMKtgGZmRv/rl44ND2rC4SkbCBgQAGADAijgAkFbJqCcmLlDjXWDIjXkngBL4Bl8mp8LYFgu6I8BitudDHMYwgjAKHvIubIJG6EkAAAwwXEqki7Yv5NGZoJZojB4MmKI3w1AgICZq0dowAEDl0EzMlBMrtGtUwajQcNCZAYQDKUYKAAo+uT3diymN5clOp5ip6QoAcBDa8zr1mLdXj6dWH/uX6+6rX/fdaLrQQQqIBAFAAWAEgt7D+8zprNe8MQ5LEiAMAYoASIdIBJooZ1rNOX/9yf+d+HPv/ooASZIAsnW3stVZs84aILoYGuLS3jz56P55ImqEG35gAsBumMTXs1frhRdwkWoNYFMS004ASAgIsLCYjp3uPC4PmhKBAeadBEDG5/guHocPkgWAgQBgCBo3cd6+d/XUSg0MF8OcyVkcMAQAwACVAMAAAAEA3pj7yvwATTSNuPEpZSNkGD0JggFqglfVMGsASAaVmpGLISwmtdSiIF2AdTikimAQhMDgZKbzFOveMsBODIIYl/GQrUU/yVKse5VVngEZzZAJIQfGaBUCgJoxA3zoW7w2zmxBAQCCMDr0sFSQwEkxLkhR8Of/+P+1n+vnvX+fLQgLAwSTe8dqCY0BQOaUa7cPx6vVHsspesOLwgUxd+H1zOb6h7+089iZkkaA4pJjAwCoDCILMCbN0WOtH97b1mMBEM4MlXt8lN+TABlQUhjAz0J+zyd7YE4AA0r3CyuW8WtOywYa41OlVGhKA+gz9nYsAIBBaTQjA8yAi3m94H/E4sEHoLccSlYWv20dRbSho3ZgBKbFEG/p7mjPT69nHv3xS3o88PU5OawOB6gCeuhCpOByUQSqyqJ52/uz9cZ8GFNkg504VlTKY5exiJJHHnHkqETM22+fv/rk59iundnirrFiAUSq0cuf7HTXtlWmwlCdnMJi76lXnSzsxK8rGeMSNBz4fr1//fzDmdzrpjA8Y3oEWIxwiBEpGASQh356c32tfZRGLttKiSWg2STo3uXLuJSEFEMQSkDGYZzO86bZEpxPcAJ0x6C9L4aAZw5u43hW4yeklFGwEaFP/+snBB8QNRayDJNOVpcQCSAgAACCAAAz03SXbq97Pfz1/5+TT+fs671CMiqQg4GBiDYmDjyYv+eos7e8tqzNZbdDkobApQgJkSKRR0QapAvl2/cv/v1zxz3xGtAFQSqV4PWvWFWV3iBFIqtMyaNrbZZZO084/IQxYyYN59ln+WimWRKkHgIAgFVBkBAEAgtgkFhsTFSbeqTWeON8nLpNCQQW6cwGCXAffBW/hFfdRtkoMYQAMAQYAJyYDzDf1/ziLeqlLgZK4nXAlcIDABwAGEZhieW7B3kVjyelFEAD+B+cyICLAQAMAQAGQIcTAItgkAzQ59fuqq+9pDNaQghEZSAIh6DVynYUkbbf3fyel+9uv3S3vvCWX3k7+wE0A4MPhrighXRomzFH3ngceXA/8zLrOd1xyweIPuHIsSxROAYirkxGPtrn1c9Pze34Tn3DAQDAYGhxbVtp2ZSiB4MKcGpIY013deZJIBmrMqVfpsUxk7kn2j9+7vUNJ946oSQYb+gsC5WkhBQUBygYeUBbqNyLnnx7/eDvPK9+YYNmG2BMiSAJ5mG0pXyaX5OgtBwghGQAQxjkyRjixO2bBd7QKnGvkgQbCKxnOEN/CFdgLjkPzzasws1Uouli7ciC+yBJkmRYRKduET2VsL6IGIUIAmj/YiwCAFGtgIGwkR1EQABhAwiMh87Wtasp9ajGAsAFACAC62hMROwjb9fpjKtsu9rU8RP/3XfPMjRUJMOIulJB4cIgYTzdX/gnjzevJq2ztsWKPJjwGBGAJYCwKJU88vSH5xPeZqMbDQSAQIwFNw5SdKgEQBhlQl1als/xVhBS6RRXoYxmmtgvH+b1Z5z8GvNplBMZSasIARBJAAAAIG/CQqe06zr6sPqLLtlGEwMgYsR8FTB+xvcRMhAAyAIAwBAkW+A4Ph9Cb4DNhN2yCYbYsX1t3pZJquTEdIKi4BQcNBkjAEECJAGIbTiQogLwACQx1u1vPdZe7U/0jnqwuLFQUAAGgYMAAABntq3hSlBzLcE3v5+z7JpnzbdohAcDIKkipIqT89DX8ps/sZw9PER5xCkWAEAIEsA2hyrK+5v3i5/eDWUaAoEAgDHwxp2NLUkEgCWYwiDzrYcepRwKkwQVwMS8W3zZPv1Tzn4n2wcjghMeOS5NCOyEMgsmeKNRsRxX73h94x/aMOYYgYXBTASASa7n6wgJE0D5Q/kuVY/bN+ERD5fq+TlNtUQzksZ0abrKMfc5aBxykVgAD+A+qbwOlWv/m762vxsd1TI4yiGKpQgAAIACSSkV2ONROjqo23r4j+qbjwr+MOgq7+hDQsgg0HLXcLZmq/jRXeVS+FbEIQAAIAQA28kihq/dT/x6f5IpkMFgBETEAJsHS+IkBMISwKrLPHsv2kCXAICYXeAG87O/zurbicG2parKIyIiaQkCAAhC4QJg5CQzGPryj2uyTwEzwMIA832Sk9mAYQwoVzcft+CZdeEW93DYlmhn4FUxdMx2Cr9IE+gaUTnlmAMJAWwMokOFERCFAiIBStF3H++/7OllXrhNQ7RAI5RxgIJKDgLAGEroACfFKd7KqRLNS/NziW///YffjrFbmG/O0mKIoggkBGvy6Hfrb/+bw4tpFUoABLBQpTQyLWc87Leu9xQyGgsaIJANprOY0lBiATgESMqUfnD8LcwCYUhvHs7K+rrO+1d/y+obd7Wa+VSdoURCIQBEsEgQBEFcAqwxJdMrH/xBfNXbx4lapgBABLilW7yFB4kBKAzJ6iQYLglnbrMDTa6zgTZg5zgxBFHboFfz9wnR6RTgCncBEBxAkELYINqAw6URChQAkmRXQwf1hZ3D+/76Jm2ZeT0ecB2EHCywE4LAI29lZKRGD02f+8uPX/+GZ/m1x6EZvhgKEJUYUQdw9Z385i8Z3T9U2iYAAAgQB6jqRJ0ykJd58jd7xq5h+1CgKaUiE5gndgQYh0YppVdk+tUwhVaRDMye1b3Bef75uvPJdFcvPEFFFFYBCsIUjhAJAACIA2U90uz97509B7anrJ7q0AK4xTO+yc1KyA0AIegqTNhnWJoEVCUJ+kA9U1QATLPsFGZnjBCdDrWCyj0wMiMAjB0Qtqaew6UAMBoBAQDQ5UAaWD5bZ7be/vb9D9czq2dWt8egUS9gp3ywEBA3aIqIy4hud99W7Fff/v7g+bvHKvOT8owYUBhUkEvvzSvPstGdJ6kEAwCmIKDYaKPj6DzU9X4/9eo1IUvLZRoKF9RWr8lEcUJTXEYCwEml6kaid0tFEXDPTPX856mO3vu1ifl76jupsQpVgkIAZVqMQAoCBKRtFnyunvX5B3fmdMYFYCgBAPCWuk6vVUYOAkAyXSSwHx+k4iGTeFzMMugFOoHvA53bVKi8ChCMEZZuWAKw4HBxGBUgAIBmR9T93r/ly/fz85aPJ2eh6nHd6MBACExBA2LsgmUthCOUG5HbVR/Ye5jji/rWd/oAV+ajgsTAJTqRg8zRp/Pch0zaqYZDBNoshCk0gDhoHJSBsjov/GFv8275ElukRBd63E8ux5qcRCESpTYUJDt0UBngwD3l9RH58Fdc+M7VwcgdBgtlRBJBWA0IIBARMQpIySu1x7n3i30z3Sy+SFAIgJ3gbNDH5zYlaPwGZW00X569ek1XRTxzQR/RpAT10NvnlTyUEDcGAKQhuAvGZMSAACAcKAl0+BAAgBEACChgPOuyOv2Mjn77uDYf9HM39UEbVr91lq9K71Zpo1HbD1xiQ6xGhTSiyDvyVlraZ9U+Dq0+HvnGOsc9ZODAgkkA+/yjefn308ZO4++EhQ/UZknjAI9EaKjDOBNcm86v/vCr+Dn4ip6sbrg+uH1r9b1anqalKipNxyC8LOiD9x5bO7dB7C57nfc//Xf+/X/pYfR084xymXaIEEFBIpCAIhB5RIJbAM/2ri5/r5tPLjOK4FBGEgsABgAQ0CwyYgV9hYdIENkgAMC6ZDlqdq98F8fACQBAAGHaOLQo3+XkqRAAAAhVCg0ItmMMAAMAOkQQkClcHEQFAIAgAOioK1St6ZCLn3j7vXp/eF85ZA3mA1GnjhMRBCAfhFUAAADyTv13q9rxR/uzmj+GE5fe2l968LXEB+y2fzRTDcTozbrwg/XUX59puynHaqMyAEYKFoPiII14MS8+e3/MC240xoJzjhY7jaNCsVhZrEnYvaueJdOkjoz55fEPuPxDo5PmIi+0kIoQSgAACADSgJIIRPTe+jyXvsf+2RnCJkDAAAIABAAAYABNL0Hs3/r5tCQyGQAACOtU4WNRE0CAzoQZHj1Lcx8QDQCkIbgLtmeMwIJsHUYHCIBAhxABsBiBg6OewbLmdQ7d3pem9+TJx2N3j09W18rZtPOr8Ka+HUQPFgAAACKf1F+W7eLTcUVf6ehyv4+Oc/nrWeWjKtTDzI8fA3Fiea4v+uqrt8sRbzF4lEQb00pN48JEwcHmzMsvmDMlBoDM57QZFeul89kSVUrJ6HiqntV7MekFW/jctpemdfbJSROkuCSQAIAEBVgJaSwJXMos+5GOdceD99nHZ4vpEDokIGwIBADARYwmB+iHsxqVyQRYGwLAAODl8/OGRT0cbM4L2ms4bUIAACqFltcItgPA+ADUYQAdHg6qGBQcEbSFajG2Nan6wIvH0bfXb3f11NbeaTxsl1s6MaNkUeR2mMercbcT3SB272Hzlz+rs986Z89/G/CsT4qyOlx3P72f+aWOcTm5n2oYkugAuK2FC4TM+rDKUx/kY0/mmIjT9CFCELXaVIpDJeWQTmFwWkDh6zq8/dvrnm/YtdFQL4AAAAAAIQAAgAgCl3pHu6rj+t4/mcK0bXBICEhMQ8QAn84YTcsQ4FZ+m6qKMaAzAgwA4PWBfBf3YLPGNrqBpACACcA9MCYjbGQgnO+shybEeujNAgQGgkcKEoERXXXiKCmn1z0vz6kzN1Q/zksnmed7VDfHobFDHhgIQSlmVECf6Edzzcf62f9JNZ5vfC09ViYD6nj0ZPl876XVcje5Uw2ACyzxsC4oGcVoOHE64zpP/XoHt3iJ12waCm3XKGGJVdIRUajpOXuT+fn/N1/6oauXlkm1wi2LCgEAEEAKgAtQbHn6tdrt8t31jZ9c40PRJmrINxWEURQAWcQw+YDhgO8RbZliAdYJAKLauM3Kc9gNFPdg8zY3pGP5NYIBUEhwyihdYp1zn/UxmgzrY/QmAYCCg8FBIYSypJc6ZHmyDNfhbe6GlQfnhy/JcSY1MAYnAACIgYFYErFjiQcHV9Y9I289n8ef+W9+Ugeww17ldfzp85VfOWcYUjQoWNNWW40LgxJj8oK8zJVP07CDu2XPpkkDbTdnRYkSJTJL6wwve317jcmTv3ufe3MOrKcb1fYyrQS3BBKAQERAEApAJ/pMrhhR59+87jy/MotFIxEIo4hRANyqAY8DbuYSczH5gbJTmyblBGaBB7jNKyi318wrAQADwD3GIoaLIGPoYzQRxtDH6E0CAEFCHwSYo6EZVIxpy2o83eP0Ju58kYsXeab0czPNiWXExgmAhMDAiMGQweUUlNLkV31yb8H1gz/5RV36Ts4y0BcXj83Tfv2jVKtkcKGUAhwFYuRAXCgDecE257W2xT1gzzoxVnE5USATbZSM9+55Us3x4+8/YnW173//rm6TzJSLQNlYBUgAAkgApqAVI5+U05uz7Prujxb8AcjijSExigAiAHiLJIbDk/NdmlJkQWlXCcO8YJ7RAxxs3s4H7ZgTde0GAJXCmlcY64LIMHWGNyFRYQDAAkAJTTVvACDpBCurupg9vainP3KtkcfKxRJBkccUIU60ozZk2Tragjyd9emc0Xg2d/PX/yODJ7n0Th3n8cWvrhf/MDfviBECRxAWEDE4EIiF67TD+8Prd2KuEg02LgRWxiDisFq4tufHr963Zx95UAcvbLaVXNmaQhGRlCIFFYBEKgo0LVWa1nDyaz9cTE8OmwUIIyAC7IAAIAAATEEQkgBIAARqZ3BArtV2leo0JHTAOiVbnr21KICD7kRTIoQ6AQY/WqdgDbBWDck9tmMAgRhAs2A7ookxDGWgEZKtGIYy0ETY1Ahgk0l62I5o72FMKSHSoRQFQKDJeKu17vGv5JVnPPdsp8uT1qfNcEzJastTMtoRiKMypSDhMNXKboOZtDhXd/uVTzny2mMPNTvdN24mF1xCAUXaSiBiAlBSIp15fb34bDaZDrV1vFouWpRE05nV897z/U9/+69+ZfbgT75OXn47nruffop/MkIxxwQAAAQAAClo2lWVbxzXV9+YSTv0QxMIA1JhAAhdXAAAAouNgAD4H7BYLVfXr1ambAQDwwAwDMPaNNGczuuDg84EEKa9oVKgF+0LSNDqOq/xIP/FKCCAaBbeCQIIeOYMZQOPsWFrpMtsjbA1I/hNS8HDBUAtCMBjGIbRFyMgKAABT4RgGCAEQCUgPBhzG+axbBgfqM/ObBMAhPUmeAIRQqccRUCCCA+CU6/l1rCKYjKK+G1r9momselhAvEaru4VK0QnaoC7n0nbqMYWFQA0mbMtqNnbSAGAkpuT87BeLCAgmArkxAAEqbWcmpFowtZonBaNrZn6AMB2NdeGlJuTAgaELWrmQAA04wEDAUAWItCf7MN7ntbwUX7+f+fq9VCPVknjoWADCgCjjDECIwKBhnLKOC311meP0WudFnPleRiHMmhEcMNAIAAWF8rocm+1uQE1z3kWkAKZKJFRZwh0QEROMYnow7AQAdipqrSebR7nn5SycOhSQDcMAxFYAAAAAUCKQAAAgMV+fq6qtobzVIxJBwDDMAw6txjI36cCdCfMM0lQwH0StGBbRqwPlPqJPyNM3RAAOQ9XzERWca67Ye7N8klp5KjKp0uU+oxQy0IttX3Zie3lfMA7BXIc0HdDAADDAYaggMezgf/Yf9wq3rhbyQpSjuB43oJOI38aAEAI6wkcYAQUwwAFYiBQWMOt4sLdytzLQbtHE5jgCALH8YY6huAQTE/DFFxFDTeum/Q9vWN3d9azfgyf1ysQAlBMhVoqzGV3DmN3RqeKSwrCesAIExZiAKBg3e7R/Iv75o48MgGfjKMrcGS5AdgfN8/IrrNn9p2lMaqeKyQeDgChGc+IKXEtse4sj3Nf2y9+lPe/PDfrnpcj3kQcXVhQylKqVEIgBBEAFnUZP57+bb99laknLYcYMdLgxiUAIAAIgpPJV19425NyJBQZLKUAgIBUwAACZAcAAMXptByijl5eTSyfbGkwnE4/I4ABKDsAUjoIakAApIvFfG4G9s95PAb0mswOeXrUw3Wba5IABXQbtpi5kAFwl/vHXM6+swZQ/jU+AQGKdLIBTTwawTBsdsjecxx7ZMLAA5vSMFJqpDzG46xkGY+xjNWsIyhDl8Ym4COEFOOTMAT0OWAI4Akoq1nOGu5iNQ+zRndJeDOfmcncGMUIAxo3KW+Pek03LVBDdc/7reSyuYK7OYKTMoybqUzGjR9oMwwARUeR7MdLOIKn4YWwDjo6Ojow7VMqrOFfuor9OYAwgVsZB1rYBHwgRAfygTv5FSdNyI7sO6/M/ggwQ6/O9rT6YzqcZT6/8d5+58hvf5ebux3L7TKlFIFDgBQIASCQCABwdKPlhWl96tVxHBgRAQhiAQAAwPWb1Tn11Y89+y0UWxmMQAUdAIHSNBk2Y5sDXfvwm5ne2MYqitgQRgOIAYAAAAABADQoCAgMCKGLBT73wlJ3MQHofT9MsNl3ECQAkqAwFs3AGOcKjubWmagqGyaKDmiiMXxA0ekggOFjAIQxahg+i/mqVqCM0791rOQ+VnEPy3mcjCdQBKNAgcwQ+AElnkBIRkJKLX3KGGeK/7CS+1jFMlpM0USBwP1UAI2fCtFowrSIklBBGSLfaTaN0QmcXbD7bW7jZHKqiSYnxRCiMYoYbgQwABQwACBKYJTnz73mhTAdwdCBzfJmfsVlvBU/aGCMqUSj8ZOTx40bCAkBHUFQisDd/DyjsyjvouWqzMhSyXB8t2nDVWNiXX7Cibf88LN57C9vr7Pd7N8zO+aIQBQgjAgAcJSjqFKn6BQdNFIEAIgFFg5PdfVGzy9/2hF3yiNjqqI6AaAApQAEAAAQAIhO2a/zjy23My1YAUQgOj0Qog/EACgAgEADECQE0pIGRSUsOm5sbY49n1diKf+iMZ0wrFuR3bENsE4YmwuSJAjQDTA+TScDEiAjIWWcn/IDxrmKMcJABTdghAFwA90NABCgI/bdbV8+xhiCIAiGYRg9THACD7CBjBRBEADAAyAYIOiAAAYIbqpJ8fNw+vNDvs06mhiCIghggAfAmywEQjQQBqpEAxn11PGpskkMgAwDAms4k+/NuhpjGCEhTAq4AARABwTodZ85YbuZpnLAiNImCIJOjUl4HGAYKZfxXf4NGLkhWY1ANIFiQAcAQAcgBMAFAKCRW3kLizlZr7C6B9BgxsUAiIgQSLCX591v9sG3/eF/p61M2vGYorEPQqElAgAApEAx0hFHDEQgxAILQRBZSuXVAYkjBysIMgAoKCCALA0Cg4CIWIUDqPe+qNvOaeJMfVS1NMpRGEzV1r0zvkMqLLwavjI2UJi13Wtzk6t3rG8rN7/4PU7X1Yxfo7Nl086n5NjY2LGze8W6hidSoVNZY1cMHGz2SVLArgkTTgh4EuAX+hbrbHIkCvS1nKbBL3gpFwApGdBzkxZ7sJ6AIAjQV5tAQoX+PMhjZECCAEZAMKA9RBaU9PNp3h7YpAIKEoSmztKh+giPlZ8i4/i4gZK9uVzOEXyOVfGB5rRNX0cgp8LVfEc3mJtmA0AI+l1MSOAh3mYvmDOy02bEzLSQMi2IfNPf6FB+SfVR8Xl7+bz0o/XCi/38h1PKTR1r20MUIQAAgJxgIhM5kROOQMIggd0BAqZNu5AXAWSVsRqrAgBQ6KogQyFxUAAZR0HU6uzZyldAXF85CySb3nKGVK23GKHwDb9N+G2NbMJvv8zNudZ2bm/25Oq7vfNoCformx2nX8uDT3/cBKmq4coNq6yCQCC7JvWn0Unpbfb8JwIe2vwQ7GzKCQEl5k59av6e3CZWrcLmgjaVT0ogsIr38U7GgT5Osj0FAQFAVhdrpQwlZmCi9EWJqaMUy5cBAogBBr0aI4mEt0lATC3mMvc8nTIPU1ExQoIQxtgU4OPnR3PygM1IBEEQpg8o6/giF6z1abqWZEFoSKZvIW40ytTcmP+aD5mYY+ahNomxAEAGYSOABzwqWKa+8Ebai3n5g1nfDDUlQgCJ0C4kKKJMOMqIACBCAtgJAiAS6WgHgHopC0BgYAYiywRBgoABiipyqV3R8+D9TAu1rUzRYCEEZuYmDAlLqy5D6mV7/Svv/KBXv/zz8e3/Tvja7k7klqssjCX2jvmriltLo+qkNN/Z//zXf/Lz3/xpPt4HaGZMm0aIAXabFXZ1YJTe5iVBA23YUwYoSLhGb54xhUlxNSYT9LcUVjfI8YzzO97HBgBAKJfxBHsRKABAgDpgCAMADAABgI+bKCs9HACG9RSBUoy8QAAAWRaEAQJrgGS6hNQRg02K4Am/j+xer0cnkaxUGUKOUURH2ARuYibwGcTQtAamdcpFfJVHJNmKjePKbyAL+q4DPn4gSjFrOSnvUoMUD4Axk1BKQXWMDWIbBDEyLPKChYuewjELagAXTrnzbV674pkPFovpLt6K7dami5ZBHhwhYBVSCAiRAACAAAgAjgVYyliXjGmEyACgIhQEkAkJkPLAIIjVHK4Vf37jaW+X3+flntOJqZEICYrcU0trrLHXvfe56+cF3y99+Xn7e7Le+VEnNyc3mdflpo4KFBnKJSgQliePogDuKmnMuL7f7LyrKvzWpqZMQXAgu5MAt2j9+OQRSrc9Z87seb+WqwIACAA3n9FpHkbCT/WR8QFZkdMFpmyJAYAymXgqpDw9cyZhLlMZozHrsnGKDEyeSRLCJHRpISQodTyX81bGCGRAjyvZGVMyBoRC0BHJAIA1ACSDAAyfUQADwKDnhvw0M6wmYSSKDoCMBQEABsgi08GCDewdVpvAaAq8blon8Ev58a7pkBsMdISpNFLBDQSSaRFFRxACOeCiE2JAhcYYVdqEMBXcZLhxY0wjoyDny5w5E0nGBIn8AIjALCNQIUoYkNgEfMLU0xhJjRSdDhACLgAhkOhcTmADAEZgJgGllIKyCctoAgCKQAILgxsSGdExMOJ54XUGb9av/4yNbTW9S1yOJRAEg5FAIJGSSEDCFAIAQAAATQOAWTJWA0AGAAgIIAMACAORB0im4xrODjLWsWijG08ZJziVgr/ueQt37R3uc5/c5z+4z7+3+/Np3/zdrhdZtWVlVYAoRoBAABDABQAi4xQrk0cmdb37JS21dIYpUwAE2NUEwB1bTgs/0PM8wDYjCgAI8FRROEcnSQSyEACYAGEAMYMzkuM5jEWzTQ8AmW7I6nkol3AZK/GjABidAACmKGhyE+9lHRV6WcdOtJTJTRQ30BUBYACAQccBcIBB76giXwMyTFrxgAEAMgDWMAAMQUfMqOdFgNE3qBn8huP0z8lVEQBCCBNg1qxjDjkxSpEK23MAi5mfYQYHJrOKFdzNChoDPiC4ATDAABAEmE5reAvXAcilGIQAALCihDAtm1OTCRNGAIAWLoHGaKDXca7kBNYCAswoUwhTLjabYTH6RkcJxxnlTb8YPgesOxe549uP7f7jdvtxPj5KSfSd8paRJBoV0hQhACAEAGAa+FSrgMUMMgCswwAMUj35MKN8ffOdrw3/b6ufQqtmJ90362wOubaYbc0//fd9+6fu3VeeHXe5bs7ivOaNWe4immPtDquDJaAAAAAQgDIigIIIRByu1K9RbdNiAQAA7k73zwUVjN62B6TU4Cnl3/mIbXQgCyHAAAAhgIzjuJa5ROOCUMDkTA3DpRgXzHdyJ1X8QAkDIiq0uIKzadJDRosXMzUbystPiCylEwZlo4E9Y0Bf57KQ9VNUfQq8CtNyGwAGvQZGEKD/gtc39M5Zl3oyNQUAgBCCZnR8pmYe+/EyDmch5xIFD/IdxD3ATU4j/5gruYwJfHQE2Awf4PU8QsJEhKmpCCHAAJBbPhXNc8UM5FnZirlMze7szAhNUiq46aIDACEAEE+Nf/IO1uKBnBlEKoWwMJvNJpxSG4KRxNiIjQo6tzvVz8Qass7e+4P5+p/Xr/9muk/FgYBWK0CCSAUIBLDLkQFAZJ2UC1DRglHMyUcz+eI9rrMBN+LXq+3/1u0HX3bYTrOSud7mWU6nLQ9xkpud6+YWe5FiREQgBZYAAJgCQEkEaGljiSCfw3Ld91pgAQIBLiy4KwkKyQpiRlCMUho/IMwFiYmZnkqM83GaqpBHF3QVGdi7+RTzSBDAJKgHgMPzfrlBNOvz1flZ2gwACwJQqopH8VrHt7gbAKMMQM56rdH9c2Pum1s1JgFACIgZACEdMADQqpsZ1pf347iOX/GFumH+xhhuADDobq2TbQPAJsz4PKepGpMfhyAAACCE5VMj4Q15C88eLXBeFCM4BQ9wXiAm+IEHOI9zeDQ6AoAwze7jnSwjEAPRNpCgMNDRZ2Dbj0N5dlvMVqQ4+31zuiHLWckftitYrk4hbe0uTTz/5IM0gZiZBcLCcouB46s4TqFYJ8CoAojADtGmcCUVOeTqn9qF04vn8cd/TZuPryvXnrU1OrPtSAGQChAAYAoBIHZhaM48iIkJOR4Zr/ghibY3dr/GtHu4tOjzD6obVz+6SwlKp5zKOpnSX+GWvtEbvUyk0AUlJUHQKhDAJSsR2M/HXW9cS6wuq+ESBCMaXdhdAfAPrNiUxgTAMIxugg8kXDgmE4Z76mAI3+d2ckOCGBLrEHBUeSGfLawCRAEM4QwBADAIUq/Y/SifIUyLKDoAgBCS5QfJimZAY3yaSTKMQEAQuhiAEAB6dC7T1xmjmXiMDBfdAAwAsAYAQbm9VIIBAEJPDliUQ/E6q+/4/u7I9/nHjOHL7XXBoPNICQBCXzJSIOOTfI+MaIs2EMNAAIgpyKjF7AXblSwdjRZAECgKAIbAgI6PzOn8PrVJAY2PYRjGtLmPN3E7YOQokFKbjRqlCLS2hLl20t4Jtc0m7G8ANQNDzGxbgzMCP9Q3WENMNFMZGB0AAB0AaxBRJeVcfo4HZhIA0KqAU45onQRhAVAIRgEAUKmlo0xBKERP2PzHP2R6yN/efs+lx964MlyzY6IOmh1YBAL4XBMICAaMIgOvXs1msRrPynqGwwzHSsZJ5CgB7aMnWnoSirKPHg0DQRC0yiowuuqqV3TU4Xqdum/iCYACAQACu1qo4DllZfiEhEDZMCmaeGYHxOCpY0bCOn4MAOgGXas04ubTQI8YeOd8Wq7q/XD3/lQZYgIAkJEly4RMCOJNuZG/kCB4QIFeti1hw5yEH0+cyYEQMEFXzFG3XyBAnw0BN9zneUPf8/f3YdwGPVcswhCgrwkJTb7KT3EWbRMACNAekREzzEf2TmBHufgBKTEB2sv4gV/kk+PSwjBg2raAVbyN21GqFOSAD2yUo2j5wDBv4r1tzt52PqmreAgDAwxoR+/y7nOf5/yBKhPUUwyUrfN1bmUm0U21zqk4DdWKFcKOFQZcYyQQy6yUrIbLCKPhuFfDA9nh73v6h1NlnXoy413Gh7ieEgMgVQAgABbxuUAWph4XS13zIMv+IpFnfFS6ukOnoPQDY464cbRo+uiTfunDUdEbrhpgCgRBR8kqTVNNvqyhWBoyaD+dXr4S1fKoOCIiAABgdgNB5Z8tbD4AEFImix83CXMAAffUIaHB5axFgLI+yRzKEhMEoQcMoNgZ7+Y3xIRA2Twe5cfkCAEFeoJi5nA6x+RWwJluANa6OTwjeCL6JR4EP6Cxv6P7/Gi/D5uLbr3UqSBAn4Xf8m1SUhqpBbo2qDPKWbyVKGNUkBJTwOgpo+KhP2iIKkKFkGmTsIFTuBOoIggAAKNWpDkVFvA99mfOFvWCC0D5TAs5i/flpzQxBAEAjC4pT/JxxplJKLlpLa/wr+/09k9cf9P1815/tZtvuXa6AlDcW06xHk54CAQCABAQgEZQtWQBJUYIAAQmIkCW/vfor/dG3XlfrXn/WZTlXEQ5ChGOUGD1IggoWFD3AMYGQMkBy1BRqMvkxGFdY9J2soWSB4NFCYNOF/vq4aiSS5kjREoAwMrgilm5sPhyfqqvNJkmz7/toTNPXtYqP43YmIICERwIEtjl5Hl8Qa9+BCEKgABbcAK4HQKlA7BgZxBxBRkVEOqEAfgtqm9O1Mf8oDwepIrkPHPCag5j+VZUmRClpkLXcStgQDlAAM436Rv8qe9V+x2HUSu/B4AQ1gkcgxjQTwwhQE3VhC8Aeg0vAgNACCtTJQYQAGBbJIDX1fPRCaqRahC/tRkYhmW2Lb/Q8zcIjHg4KImH6xZwHsC3RwgzDkzfb3EeBaYKQm4mAbAi+VTYmx/aop6pCUDNekiprag3tfsQ5wEB6IwAIZTguFHf00yiOU6jdMb9jvsf/twbze2WGAaIYgRAVaIoINp5t/NTHhd4+vuAeDzv8+Zf4Yvo8VsEokx1hFZXnDp4Sr/CE2QEpSu9GZBgBBJQWVVxPThy/uk89lOu3Ni9JNfjMjCQWllIBBSyN5T79oQlYBioAYkRgVAKgpUOOihmATIYXDJYLEZWCYgpKkURTRRhYy1Uqhi3qFM5VbJ9dUYjgyGj8nnm8Z8fufx2eF2CEdRQU6KKjrbGWBdiDI/guBOg0JNsuBFNJA/UUSVIumcUAOpkzlda5iQAS+0sU4sXaflWFADoIAQYBoB1z4c4rbcRAAKIBQAeHkAFZ0gMb7b3FgsRysiI+YJUH7ZPATlHbApAHS4r4v34+PD2QtY0AFEhADUHQLLihCAYA8SA6yJeyFf13nDeR6WAqAw25An7bd024gKsB8hoaC0fq2XTmCiJ/ACGIQPDlLwer+/VR0VQBC66AQACFwj6Clzg6N67UyRhehgGwF/4AYKXkiuTORECyL1WO8B+3+a3YH6vagUAREDSx0QA4HX8dlVaJGN0gBAM2hdygeYyiiEAYHsAA+H11py//hM+zmlW0dq0BFEyNkAqKnQSfcrLp1w3qU0kiMfT3P6Ox1czIoUTqQl6nCOuqEkrHemqrjzOE59/lQY0e1dvrr/UbEUWmYggeFV0TVW4lzz0Na7Rv/olOXAFgCH0BgBTAAQLw9AAvVIAq1GkN4ppKKwMbiwWKwMCcjBkmryIVZWqiknatC2lVeSqXLVT95x+LSce5czSDp99/lh8EwoCgwBGV2GNuEynYzKMKsBG+9u9MGzbVA0cRUA423tAAEC0K4Yt2x1GylTaAAEGADiK3wTbYxiGQcrrbN6GlQETADoHTwUBwwkMBDTtZlAbTQFgAKETYGwCAwGsqMS3FwBEYejjiVUDAIZKGUKC8Kk5TzEufgAAMEwMKxIm3r4+fT7rbpUwnDCcwYd41tSYHikBeILP0CKiAoLOxbyQ7zFEYt60qbFR8O53r+SRqSIYHQzo/L581pva1aIAALv4KVTm9dzkn/6vu7p4l5V5+XS19LRdAAhFAsCU60ZXm0gQQ0/0KyqUUFV0zWiodbqd8lBa13G51uyaig4PxdW4HtceXytee4ZaOncAgRXU2DPD7J7r0jk3n/Szv26kC0D69O1YAgABGITVSEsAwMpiZVxwwYFM1JXGz+xHOUaH6bYzqqwsGQ4fp9/8g9HyuW9kiSwzIhDTwRMKAgAQWywEYzrGGEZ1QGDtehGMWQqUnG3Txv7ijiGaFGjvcqN+k2cy2qpjjVGODgDodGtfyTJ2BsZt4i31J7GuAFNOCyfdZ+OLChO9hKtqHDcCdFVsqryCz7WgTeFwh20/pFOJMaZFggI/4RZqJORA10X5Ogv6KGEcCoxjiP1sfTQZ8fQyK9cxZ1wEmBEKsOX98nz+8L/t7sO7WdgOV6uG2JEAJBQCcrKQVGWkRUSKKSJCSVCJvaABp0pr0NXeNHRX92c61/jAtetsykkjllYniahh1mBpnHJ5mD0rSKEAkUBsErvAAEirEJYAIINRol7RiKZ6qWuenfUfjk4+Dp6ysuCOtX2yxHR5dPhjwFgAprTI2FFoKSkISSIXiB0XbGz3bZTBROceupzjSYmmVI3H6wroEgAuQN2aODJeARjQY8p1vIYqhVGCB0EbN2pS1YBjMEnB8wRfsgeUENKim+GyLdfSeNK95oDYAKLtwnZ4b5sBwWcaKML9/JABMjzj1qYDAO9iiUGxaRTAGAMRhggIwOO81B3Cv4lHADDKuLx/3p9hDzczQMbC3uL1wg1/+eddPYRKJhQREhJIQAJIgCSntGKMUAyZQ4ToFJE5YOFyw8tQk4TYpnFKTKqGUo/OpmwfMk7XtSYTncPutJx7dGJGqbXqLBNho4AYDwHYKRawderEaRXUIprl0Bx6df088eDjxMNH6h8HTn4c8hhBEGuCiEDBghIIBAAAAQwA4AQbFgCod6y1wPi0Eee+6XKOoD4AAAJ0fVf8AdlWAYChd0AFT8RSLRkYGBA6CYYOWDO91iIUjHsMbhSmzQ3nB3qnAfBdHpUOMgRDaBMDrcB75h1JF+kGDABtwPZxgntr4jGgmU0Hnq+SkuIJDKtNqE00u/MKEoKfRgEAMBCGI4CWql6xuzBvoYKfDt1bPCtXMOohNDNoXNIp7A3yB39zfdJpx3epsWIJfAZUFRdAMZCUOdFBUU4SGAuv3nAzSQA0HBcAALAEXMi1RNSS5qgrYxUwXGA8SzmTu1MFnVrh8tT07hSTXV546KJPv/Y4xLXiZ01VLPEInqIENQXYyEEYEBIABkDCgEYMIIPFYhQRdplijIc+nP8Z92t/EoopldT66UgSAKCegYpgDLOkhACUT1iJA8ZOMO1Qgqnez49xBiCAAJ1b27NzAvmsEpAEAEA9I2byUm9/BsmJZphpcNf8Q5MgZIJ2w8flUyzEwBToLwIoJmrBreWFM06elGigrE9tvs9LU7MZQQKD1YVHxg/I7/2PvXX+ivO7TSChAJhP0ZIIABGABOgAIYNi4eoYEQAUSwAARBBWYbAyVqGyyhUx6WoQm8aXAADPo92OidpdtbU8Po9crtve6qPrWaIFMHAGBAKBCjY0CNCHDH0gAAohACIIcUAMBgNisYBS2KEHGgSNEPQFQRDgQpjR1P6swQ+Ubeo0/oMaAJAkwRagCMbeW0wRxSjl7HEmGKYw0pl9OpOMA6WrOZGBnjnsPDHn4/124BkxhGg2nen7elLVhRBCbYqbvXmhDFCgvwgBAJ65Yk7KjxGMeErBVI6cn6dqMwLAxqzi5VIzuHK7//Gn93xxtz4oEgAGCMWqOuURsigrQmZuRpllgoAsDzmBycJVjEUvQEBOAAqAtIRgREBADmAktERkXwYldqHoCaOU3ikhS51oOf1kHzzPiYfrIAx5iEdiVSQISTNXzt07AQ4EAAGABIMBMAAKEolAoMIBcLAACIKAAKh3lBxIMUYAiAIQ4aKIUo6c6xBKodbXRAKAMKIiLIkz28xQFwsGYGSsY3twrt7GP6hQW75kAQhtPtEY8zmCpgtzI/URjZWYwzmretvjUqTFJkMrdWlSMiGEoD1PM2+lMBCgd9YDgAHCsEt3b8s48UBpn4GBv2exzQgCsgOaRhoKKZzCfqtn+3jWX7G11QkAlLpefHnqeaDuvNDS2tx6frd5kzQwWNU3jjOUrHhjll1atezSWLFMIo8IEEgVU4nQGRs7JdN0uuNIKYkAqEYMqkeM41qa7mqeblZn7sPn15Hzvu11Dw5jSBB0UKKgA4UAAbCQDB0cWhgLYJ62pVovgPnkDkqqIgGADAA6ytGFEghFvRg1AWoI22Wh1Ku8EpxTinBhxJruD3qr1WiRMTCBkIDgRgHjOvjr+p4gBKOA2kIisBAd1AETwwCEJ1lDoHBuGAa0+BXr8TRaRQBgAAgGGC4vYyv8aACAAMLYgQAYbjdAJ88mMQIQhP188gkOyZIlS1YbzJ9DcCOA0RPrwQPc1AwELzhYxcHzEMMY5RIyfsxxHkJ4Fz/ABliIRnyZyVRBgxHI9DpfNWEdbbQJmfe19cMHeMcNU7l66fnJFdhrFq6O3XVZVnWTdbRRjwoxFJg3mg6R/jKdIblPvaRzytUNsYjKyGOMLiPATiN1+33qSe55MKc5I1ZwwTJtDKxAULDQAYJAsAgwAAQAl4EBhHBgPG5QXCBMtnYQQKgEpEowCJfKWsD0EwRvxN2GAi6OQULKwXN7qkzNEBlGCLgBw6fWSXwcRaAA49bNmQWDrhgAKAVTwPmZIuSs5yI8ytaYQgB0AHwgmizRnMMhvSJVL10AIOwUQR0BlE0iKCZV0/0tjcRTdwCAZCEE0byYumkAwOiB9RB4iann/ZwPwJPu8HmQKMWUMiDk9fOdHng/bI8oUDQiiQgAEADBAbgZAWMMGW3KCMscoiAjLCMINyxAnWWslzrqIMEDEMkxM9g4ZjzN+HAmZLaqN29z9UDUQx6RatEBYheOk8CNfLQca/WMfq2lJYNiJx0uas8FozFDBhQIEwBZCoXCAFAABATUUFEJYBWe0AkDChaAMg0dpG6bGTwUPGqVml4QHPMalYuEaWrquY0T55EAFCNIBD/DbM0wH8RX88E0FgQYeQQlEKlbu8czhuP8qBKIuYzHcXgmEDNBu44isVmUvw/ODcIkR8eNTzSbBEDMc9Msm2hlmgAAAMmSJcvYL0HqQc+sL2WoGRnwIFfNVbl51sVNHDflMhIW5BZqZspsjwAkAACAACCwmQEgdLOplIoO3chEJpEqQUSCqZiup1folQzOdJJvvXLi5kQm8ogJEgj0Jz3BMMUknbQzpTNaWxq5wdTV1GpVOjYRpoikRIRAMUAgJiBAMlAoc+B+19XOaB1r/8lnHVdntK7urXapHp1puIKqOTUnerAujQsAEdGEkKDU3SwJkosDhssn7l29e38mZ1vmZyFLZ5ssZJg5DE2JAhKMPgCAbYCVCUADOD8zlMDFVEip4JQLOlfTmJjdGYhXlGKVFEyhHk0Y2LQZ0NquzrgKRdQQoCOKahfUa7qeGGMMXXxxt3INf+T28QFDAdAJcVPCJ58KA/kn26Ie7I8YwBaQY0oBAABiAxesQ4xA2bAxkwACKkhignG/i8NoNVyz8M2xjtw6WEUC+B0FAIXBSrkWjDMIBEUIklyeP5SNwSiEAIABAAATIARgCaQAC2JC4HIvXHZAGdCUo5cfPH3sU6d17+vrFKtmdXE2PQAkRBhZaTAftWPbKkCC/6EBFwkEyDCgZJBgh1UMwQcAQOjmyPhvJCFnJfcSSMgpDMnq1JqQmP0RxMSiJJNIESBgGIbRPwMq/HMLTUzNDLrO3nYAxdMTkN7o5IvYS97/bL/NdbZ8JiMIOoIBEAIBpTYZPhCNpDlRUubPkrxsDmBpquDNMOQxrQAJfEbGwDgAGEDZsyETBOQAhBBANSWSm9eX57k/VPM5D36NA2fgQhqHQUBhy0AnjxgYB9RyiMRd+gduORgFSAhQEABQTBCSAABIYoQYAAABAMACgKPT+rFxfaVtr/C4/LWPB86ffTpYAgmEGCunziAmjPqcgODismNDCChQWoBpGiRJYX6g/JXVQOkUHbg6oCAIME2JD2zSCrCG+wEBwOgyqxJAqlSSJAErQuvzrvodfoPf4H9Rr0iFYkLcCGAY4GMIYVKGAABjW56Tg3nhzE/NK3ZRDxDaF0yJQAAbBAYhNAUAAQACkEFAGADFQPYUCMgECNiYQQBFZFGzblSv9Hnh1+fSH51zD84g8V5alXIhI4aNmCaTA4EhdFmOBnE5GysPIIEAEGgQKJCCkBCAEhkhAAAAVgACGAAAipzT877Qo+trMF+nT/vRpx7n4YBepUYxIGZgXmaUf7aLBwAY0+O/d+VylHKSeEbYAdiC3pS1gAIGdH0adZBaKSRI2Iv1q9lP1l/bS+mogirMJSUeQQI2hgEQ4kdTwU+LHXh+DuOFjJp3zgchPEAI9kYIBDACEECwiEBAJgyAPRAyB7EHiDxSGCIldxHj4InGJ885ED7ynR5Uus5sk5iRdSkEsdX6Wj8+SowmBEWbaKMG6jI8S70ILQsi5IFIQJAQELQKxQBxKEcMSQgAsARRZDEgAAAQyzRSSk/zmu3XUl268YDP177xbe13LkkAGUZOyDFGglGfAxdIAgBcT0SjIZBBaqVQZNMlSJJgfoF13EZKuQpRloybgXQimhdCyMt081aPbpgBXbFZhgdCB4QQAGrtT/VL/Ln9ph0Z1oUm0LaiDW4bahAAsM0IAaiwfkZrZ55nL9c+KOJBcOoBzgOKABjtEYR+EPhdEUgAgAFBIwCohQaKIwwlAJp45/W89Sg/6XPPJucW2Zur3n20/WHo5HA8QcqgwxQzMX0oIktLAAjyaRGDIMrDIeYRtePx4fZ6Y7KpmZaZ11OWU8pkkJNIkGyNISMEEUQQzkCkQAwOFSItQRksBgQgIhAHKI4qhi4z9TT9u+e57+QYdBAAQASA2BWswPvQF/TIrHZPIXqRAZvSEAAFAQi5Oa3Y/lqnMkGV0gGosSGsdN8WX6ztOAwIA1Dpy1QMZ6WwkpVECACgI3TKqc8ODAQDwBhAmDVCCIlMdykzMQMEMfHEEw8AYHTyXRTxEABg4J3zvEu53S7jSlvHRsVqDAAIAAIWekEQTZYqahlG0ODskcP4L7biBtiSsDcO2UUIAEAMBsAogkBDHA1AWk6J90ePfv6l7d/kB8tSgkuputEgwSq0IyNn3Q4FxW7QFAEEgMEAUjC7gGhbc22El+/q5JL7ZtYWfnjiWvPafqY928mY6SxSgihD0TFZMUhBQAihihoBYAFACgYrAwIAAIFAxEAgQDEZq8362f+7v/6T3xt+GFCJAyCA3U0QPE1fYK0mAHNPLWDTZASqeBcmxPjn/COXsXzGqaU5FRiA6Da0waID22rcwho0zM9YhgDlDZ/XgUE7Yd4MAUBOmMcTDWAYhkHnFADAACFouTH+4P4+f89/GKThOcUjMowOWNxrYUQ4hJwmC9mHl3AQC3DAzN7oohc1aRlUW7jB+2dvvObX51L0Ur+W54q51QqHspU7HQaZl8vqar9pjGwKbgTUTpVcLbXkqEcOgAF2geRslnry2s7D8+XDtOUcvqkTd8+D6uNmcurGOFvVVw4zLjPWTHXSsCmETsEgCEc5Vikf0BgZeeRgICAIID4DAHDw2uH708/59lcmUQAAgUDt1vupPy1uH3gKavTLKPAoiTboRi6dG3L/RPGTR0gZAtrCeW1chyAYpSCfk4KhtjNRZ33WjwRKN/ODgWIX9XAtFXNRruUWlg8YIBZaEHID0Mm3qgkFyta8iMN5NrNJSICZOwQQ2ZHRTKpznf3iy/zmV1/nj3NXtdfcn25O7VbRkJM1UUBYXYYVLWmfyDm0SKl8hKVYQFWEpTIiAABgAECQFDEE5syjhic8sWPjJN98NRYlCiyeg1uOUavmtNw68cbazca7h9rqZyujckqJIyrjahmWS1lIB4IRg8DlKEmE4bOop3OyX/xZjr+5uggoQxxgd5Ok8JQBCH2ocHNAvKdMwkat4e/2V10yCMCo4DM19SQT2BjMMqigMD/PvRiKp5RQZNYg2GK6PDEhfsqlAGS5z/1rLsiihDHiVEipkGeCwb1QJkOnS9IrWMLzeC3PQcmJyYmBAAgQ7GdAtkmIabMVBcxgwv3S4X75o/c7X2wvX4d23RwqpU0nzaYeUjJFtV0rVqs31Cxr0Kg3c7rO6U/nJ99kU85yBiHw6VaJQGAYdUebdW2c+Ow2N87rOy+m285wSs6QUBasEr1/u45vazXqSDQLpuO5qfNG2x9yNjla0I6pKsTMRbecup4ZtdkZlErRRBsBw6J+ddzSQNVjGJ5QHVmbHnvHNwAAMFC7EQT4QCqAy1RCQkJCyhnXkTpzTz16NIQOLQL/5Bau1XKt2KSiAQABAAQASGZxNjqWEwhAaTd55gJbTmEiG/EBwLBu6+bOXM5lrOJkriVMBaEYaE9tsNw2VW58QEdoMcIBdmB7ju2BA4wChwIzejDJeZu22XBKjJhXW375y7na9jZ3KXe1ejNdtMKRkYdEDjaRkaqlNrr9Y0bykXU3L/j9f3GO/T5HffrQZpRgRFy03CFSakWGLTJHwmU8nLzg5X3ePOW/vXznUBr6oktJmPCAJShzLR046FqZ6/CyzhxqfsKVyBTebnM1SXHK4E2o6zmwoolytKkIJRbZUVALiXx044vr4BPXW5bGXVwoICCA7EYhqdzW9hIgHug541HWjXioM7ALSkABeEL/5trtylrLxg1JKTpQ6vxeT4rHKKcBQNgWAxoTxoDS/+agASHgA5poBGg3hChQjE80MUPZfw7PYQxSeAIICggKzOwLZKdTC4DX2/zvL57dr75YnK+1yWpF0mRd1qUQgEEHBSWZSKcHdMhoP5faOXfV1y8/Hvtuxcf7SNz7SOrjObRR4tBVhwAgxiEgQgiXNACiL3rsityp/e7xjM/r9eYrJ3xv/+iuf1SfAAxE3OJ7MpXEb7eV4zE6XG157L99nN3WYDqHClzyQfBuz3pwXW7G6VwkD9gCCoAFUoppwNDdXve89zFYMGUBBdHIA0UR2NWgctt2QwhToTdhzdwceIqrNHiYW/Vn/qGxrcVK2ZbIlw50/O/vMRooAaXUllW8jSliU26cCoIhuAEAQ2gDI0OI2S4H8Ap2Za5nrhifqgdGgeKAmToMAIAAAIEJ9mYG7mvw3Cffn3r+X+PFe1KuZngwrt7Kdj8bN4yirHYR4RAij3t5S0zciQ8U1o9ur3n3jXn7Og/0DJLEND1VT06lkqErTRmxhlCOQ0zsW7wxIosISPQxFb7JYImZDY5OeWGfZ9L/rMPiM+aEBoQNgcBASVek6BmWFkQqZWX/HafmXlEfsp0VN1e8qn3dc6NRCq5xwQXiuB6IUrKi1/axjizr0nCNboGB3wsVbDi4MTiI3UHlGZvEiNJbBbgF7/fU5mau4VLdS0sBGylFFKQYRjlNmPNrAylgQGmbPGAgANzZAFNjBMqNME4tLZJRAAzoLOzMf/FidkndK3ZRD2b4GAAdODBYsrE5k0Zm/c7lbJJX7njus37ny1f/9GfHnYbpxrsgGMTJZpajXZrSVhWonXafQ5u66Fres73utYv1yUMeL68HdB+76TjYFMlUc3A39XLvlf05V/P8uLfHSCAcpZzV/bs8LmISpgiph+kiH7RFyLZWCrYKcc7V2L+evn+1/LKy+7SeyQ3LKphwYGAAvDEQSCSdRiRQVV/hXt7V6k2FnQ1fN05no+a3yY3Ih+Z6nOG999SJ4+rPj+N6nqnPOw596LbNgEAwEGgkEtjlAv4LP5NpTG95WvyZKUNbjAyAlC1DQAEAo4WxgTv4I39nBXDHhNIJieSWGICXNTc+xQxkaqrkydiafTmUF/O8CQnUOrcepaBGilEq4KYIbEElbmqElGqR4AckilEMhADEDPOcOYBDmZdZlq84AGCAABg2cwMAGNhwcOggW81MCZ3XtvOrD851sVGpTnZpX/JGkY8NBoAiC0ApVOk1yJoe+6w4FzS7gYCvv5snh/PlzezNSgdLqwyEraqXlAMpuafyTs9Ha/ol5LEEkaWXJMMkCYIAAFlkLgGspYyIYtqRtu4P8n5+nwcv17HrVaJERKwFQAAUwCgAICAIJUo0iJu24ZRxN0Pqno1V1k7cWu6P9X5jSxzX7YuPi/Nnb35U2TPVoLwxFCCwMRgIuEvAgnpakonpzZiVZfPwwBZTAKNCm2FsbkbAAwmPciHXcisZLUABkAFZCBCAyXsgFbYEZVb25eh5dhZ7+S5jF8ZJucq51buPMDVvbKYtBgIFeg+jAcHHz3Z5LsfMc3lGr9iBRoH2mZ8pAQy8yRexM2dd3//pp/XObWbDYdh1+8UxZcBGAgAQGFOo5cEnzWd57s3d+qofw31NlgNnc71Dv70yfq045/efZboylUEKpZvFqma6r+5zkfkdv3yXPZ1KFiOCKKXr+ss6OYfCFCIjCCCTKY/jaEeJwUS/cSLHQ9aGmY15fMeFyzly89VtTygR4HcEyRSDEiVIGDjzqpUqTxjrEqvEA0w+AEswJDBQAAwSBdytEe8QEoTeBqYxeS5my1HQQoD2STKMzSwn4i6u5UL+xSCQkQEJAAAIIQAAJbeUOSxmV3tN9pzBHng/NfFge7cWWNX5JRhCuTAwDoYzthT9zZMyZ7bL8+fgvGAGehCcgtdwjkjOAzTzMwWYAsyIL/i98P7H3+WFj1mP5jQ5doq7l7eUebSLgE2xoSBA0mjGUTX3m+/0Kjtmi8wW2TrZivuZy73/y7kE06lzr6yWjBSso8YzywcefnWuPpwn19xbag4AgEFlfmW+WGRhSrAICQKSlMcDZSkCsRMciGt6y1n3rJHHNrl4yfFD+vMbFvg7AJQFkJOxkIikABogIQBotChVaBTBABAYDAYBAYFdP3gEn958NNFcky3Ho5yu0/VFfY7P8Tk+xzJlwGZ+4ZxX126NgOAlljBEToMBoOxCXsIRtjODLZJtGpNtUQ9g0W6MgeDcDggG9GhMBbbsu/NiLuaqGQweAKAgUDAMANcBw2Am37itCfYG5/FX/OoXt5e7DMcFx6Ajn7YEIAYCAgCQu/NDhjYf1nCzLqv33Tgfp62nMx8LOK++9Xpv8hubKx+Yl9MLSyzRSmJme/aI+bqYkbV7M1YG0igJOFSat18PPT+1rR/MDCYESUCIU/IUqrW9wtwTEWvQoEQQQ9phby342bFP35vbv7i77VmU4AlkTpISAAAugMAAWBIsACAQBAAEgoPBYpEYAAQ+T4IDWBA3vYVJxriff4EwbPNrYeTAGfMtPq2v68vzVffN+dY8YkMIm01ODExwKd/Q/QMAIQCAAdQoEIWYc5NTRUq3Z3IYh9reAcAM6FzMDkwA57gQAKFUTM6dbEGwrSdLC51SLeo5lVeyGNgrgCHoikE7AsBgBt9ScyhMn9cb9M9+OR81ZiOtbnTIyIFxiABAAIggRZpZOx1V2vVtWRedSScXSphLSiTl19pFns36SoW9MSmPgjwsq9RRZ+8+p3Cy7fGaaw/2gS8IEcJglYiSo/uvT/12//rV7t5urMVxDYEIAijI66kmBsHNrKqOayiUQQAXGpV3Gc9snJ++4thrdebuvXT408LbpBPCAT4jBMCQ4EICAIFDGDEQHBIsFgaEAODnAUg4BB8d0OnBAGVqLgErdsFtfhBjbNDNiTS0gRSYYLZgc21RBeB+Psk15MhCAAaANQAQBjHyqXVj3jy/nfjodhjbZdQ33y8OBtDNz2LGgeDcMgQDyrvkrKHYRdlioFmpIUDpCq35YxYJesXaZvwTkrh/vvGJX98354llGoE3ighgLYRDAJCDI6cazD0R7BnXg5vHyksgJbaJNVaXODfu/fZk5Lu7H+lNe5OJuR1VxhAoTfs5sZ9j18Ln5tlc7fsQg4nQAJGj5pNz3vPRW7+7f/54x5ZrljzI4TAAWN1cWPTd1/zTMNdcLMmDxEDRlzzoJb3needT/zE+jj2+7vzkLO0/JCHAZ4QAMBAyqBwP0BKAEQMBhSAJBgeCAwE+37j32qkN9G6A8iceUBT1tgBG4Gc8vIEkBwTF1TwMMDaPnBjPrziZFEcmN2UAIttKS90P+r10tg3giz/2F/cwXJmgxdsYcI4rBUI5JZqtmMgs22KYFswgmnLCINdy0gzkfxwwOBiyoCgCMJkU5ib8w0e8+NFuF2dwPpsbUtUGiwERjnIIKMFNGj2eHBTu+WoeXn1MF7RFQG17wAqMlSceOzrUbVP1m4WRQyLiUqQxlXp9azvjtc0wKTsPSRp16JEAIeo86nlP51qf4zfviy8/+XRznXVr5hARAaVdebXP3/Pfz/1arSu7lJG81BUZDFgiLjMvMOanV9l7OvfOLO0/c5mUAuRBQoEIAIBYQsSB4DgaLqsBAEYMAAUCgBwAIAEBBADZveC8317ZO4KO0AsYcP/8Y4pBWwCY4ohdvVImCQBo3N4oCII2D0/O1/kmRpUxKTqdwBoGMKA3bq/pFinVPPKJGzCFFbuoQRlj+21jTE1NjTECGIF1aF4AhlDKjSRMCmw5R1MDymeMcwUtoDQGM/kk/MCmh/kiBioXN092cD//tfuZnsvPry/2FdPa7muZZJtn7AAwCgwIIZ35obtDl2mdvO+Fp8m/m8INX+QhWlqzatV23b6efu1Xz39w/3rNr9/VYaSCoMEU29XSzcfXv/PtID/1+MFzCz64a5+1g9wAAYyc7tAzniush99Of3hlvxRpe4MLAdc0uq/nPLS5TmeHZq2nPdVLSohE5XLlxYfqM7WSM7mq9fYdaBi4pvtyu4mLLFIMBDAahcSRLw6FAeABAchkCCJJEmI0pjifJidOnhAhJSQkJKQMGAP5dlygHdusigU3utuqraO6UYUgSR7JbhvjFqaB9WIIX+S7gGccwWQCBO2yxIS35TROLQFqFvdEyPysB2AIAGJdAmIGRlOTQQjpEunShSGEEGzWCwkYUN4IY/xFxUoRT7wtg9gIwxjlNNEsnxsAMABhHTCYlgEAT0pgZoJCB0LEmekipXz/6f1wna9Xl1rNW0UvEkdBIDIGERIRLOnkbq2cVTly/qvcfuHUBQ96YNNCCWK2PhHva5fn9bt1cbwG2Z4DoEaKUU/Mla/r4nvr4fuP4BG91YXcPKiVDksHkCMG0xsITNSAuvedYl9KUgywEwQd9Mazvq+luA61PpbVW/e7rVTLCcRRrsuloZSRTlrcy/ezefucQE2JU9W3kBZoJKEpoxHgDaN0MDjBrptAlQOy0+hIBgZ6LuZBfo2pbbNGgH5KYwA01VSS9RhXAULT6NUInMe3gBhACAAAAQCmVPTtduRoAwAMAQAGIAAAYJ0MaxswYfIysmQhQAgBACCEgM1mDhWgxyIG/NWiXgUcbBkxY8exKRfNEJP8NmfjJ+pN7gYbTGdlkm9yHqsxmgT2ELmOh8rgVx7O7PR8+DiPZ9138P5tl73b2CMSCixQICgypEqVyEO7ltYfHXP5+/fGy4E1w0ynumkhDxU43fzt43t5TOtr1eXb8qSHcl2uZRUmHdOb1tFFf+0tewhFRz4w25sTEZsInBSLUWa4ioiYJfLAvefx8bPsSxEIAAAYOTLWyrVRfbitOxd9YPOxevw4tH68f2Ppu5TxKBH1EYcSSopH7Wrmq3c2M16Zt7HtT+KDaAICIwAIOOkQJl1JwIk3yptQ/Gh6a+HnO4yz2UFUN+vqGQgANBEk71lJQJjlI5yGUmUSBcq6fHk71sMFoN+CAv+NL6COoZTLUeAq8p1YYAuBM+0XTTnBZ+Ncxj3kabrBHppWcDVf4S3sx4v4Cg+zh8jC3da0q/Hp+ce3d1ydy5F9vb3rtnlI2VQ1DgTA4kHlKGz0RCOmKH34J+vomfYApaderIYLEgyCpMTdnfdPz3Ko1ElV2qOu6yKU2omSmOgdrm98ey2xMkLh0TjmqAzEDsIqEMT2S0CRPu7h+cj7z87c5QgWAAARAEDlRY/pIGuzx4ePvbvHYFq3D762uYuSF6uMrYwcaQztoSf71aCUdodRfBSu7hICAksAAAQgbE8EEI1V5DzMnHB0dkiFxvRWJeZBzmEzMwCMsyelOUmSJKtC8lgEhDkagXN4EIenSkYbQmA4DDh8e0NDTVVowzDAOmFYFwAw5mEYBtr8ZlNBAMMwjG4G+DS5ByRsIQzbdhyhXJExJDnf43tWLJjeazmdKWYzxTK+wjr2DyiC+ThrF/1XX+GRL/bpNsNNdERe4ZqIDkiAckpGWQoZ21rNnuV6Vpf58k+meZVMFdruKHdEkclu1RSV4sv6n79/e91+6z05zQHNEe1appX27PSQnvubP3we5SPxTFxAK6PMO9vjmJIDARAKASVqZUpYKPXnHet115OuDlWOyJEjBwAAq/OwYizK3prZp8deX7lco+Pf3Ta+r+9YHz/a8RounLXk41SJuKpFDU+3cmadj3dOWRkbTgYjIAAEghADbQUiIozNAMSwre1d+OQxegIhzJnz+ArCAG02GRDAbuWCaGIA4A4BnoYwjw18gwhIgXaEAMDhGeZkjGJJAEDAAA/EukDpGnMQYItYYQeUAABAiGEYbW4MN425ME3E20KIB7szf8qBAvC7uYy9e7jpYxiQcwoPkJDiGWcbFrCH6HLb9fr+p7e465DDmZij3vRSksJsCgmJAZIs2e3RSPs1vVqnv+Kdl0yIGWZddBSACQ/Co4jx8vX+PWe3nqmOJj1NGMAqmaaRZw9nlkvdWa8BH8HDfQFltMBGTyYlg7AKBDBKl8eEC0hUzPTxgbfWgXExawMAAIDBlNpEKBv4eOtdQ4+mf6n7P+w/cPvgjfExzr5xtB8Oia3HB6VCh8J8qMH9mvcGTPqUscGCAACAMCYRdpvqOPaaEaCfD/KtAOBgs00ABX2fYjJCuiVQ4zEwT+UyUgBBOwIAEDzwdJYkjEQMBAEAgy2oYRjG5icsBQKGYZigqwACnEMYc6m2DBAlytL0AABFDpqGE2o2bQQBfqY/gjLGcTiG2Vp7CG/SrD+YDw65PVJP4OWyUEFwAAAAQEfHsJotg/1eHvKdf8h8e425OmCXQylyMOoBEID13lr/8lj1K87SkTxXWMeRBquk3yiHqeZ8mR7wDB6m5n21LNMzvHawROxYpkoUUiQplbPvpOost4Ku6t3BM3D2ybPKyl0AADCAMgAEhTKzum9E7pr+dTSt6fiPnVz37AyxNpVVKp3LauOBykFT1kyrXlLGV1rfeVqmGypnOhCAxQpsG3R2XvFqnEJ/4KdcPVBsm48BDW7a/kARKKYUgKMqlbwnM8m4CMHUqaNLiptdCJtEDAQBNneJTg9byH0xPNDzY3NVignaMpiDKofRW2P+ym85Hpi2DXL+yWfZqEy6IqdL1u6ravtILsyHM5pPm5Pa4Mrj06UUYOTgiMiDUev55nnwsu96f+64mIxjp69qqUAERhEjAe1FiT3rZ78+uVyPTqvXzd3Ikkc5yhO5laa5nNd3Tj5arCig9AILVUjL3jzehUEACBuBW9RZqqMsXGCqC2h4PvSaB1aXjkVLMBisHHksEVKIxLAntre+VqZ/qvNR93+q8u+Ozhmc9NWpbjjUFLbLLoUscwedmb+2X7HUPqbHU3h1SC8AAAQAMDCiDdPMd/m8oHcc/fFzKlO7ogAgsHkUCAUfrdwqxBtWA0CJAI9BRHNYrXtUUUvQUaZNZ9J8TrGTEBMADAHDNqsAQKCUAcIWYUcMo7eQM6eZhC2DeF6w1/Q2ktZ8jXPY1QAAAeDwNlmdmzhOUyRqoeUmT5F9lYkxtm9w5drqHCrvqu/tabtQxisvrhKFVE70UT/K9HLyru9+8nHvt675RMbC6SoF4MCgIgVUkon4LcqeLu8nFh7ePw+Wa1AWammTpGmibeWdOtvH9ejpt/ntH02WV4KaO/nUsaMP3DW/vf/J7+goUAAUmwK3lE6FlFJZAGCqB/vhoadXur0GJaWNemQAiEJJgWyi15o369635OSrf8nRTf2bOllpHD6Zd31f547h17R4qeJUjchT5/fOcfdXe2P4v3T2M7xgg8BiLiMu0YTiFsf7fV47Tj4Bnd4k9/C2QCAFjM0jxjibO02t4WGWoFSpUq+RPMzDYJbFWq6VakroIAsAQxB5WLz3iRIDEDAADDZrkyD4tOl0AkWT0pgtwDx2p4IBIFbOzQ35kwRsi4BTgz2yKwooISEhIToAoAMAFapZPXvkV8weKeeDAwAcAIb1rQVAixt4GxnFCDXCmKIZnINbYowxtmewoLfnSfPMldGyHIUCUCOHLHXVum6mrK8OGbYz68y6TZIGKgBMIAg6ANCw62VBnntjqmuPuA5S81YgRgyENDU0cRse2dR4dYlvQegTmogRCc4aN3GrBKkAIYFxz3AVgQJCABAJkuh7Vjn/xHZrnkYeHKuthRAIhBGVlelw5uGp47+F/zH4+8Tfd7Iqc05zbZiVs+C2H6WXPMpd50umrMtD1j9jvM2UDTEYwwDodDLBGKaMOc/ZpxmIENJba/L8Yc7c1CrkODaPlGV8iQBACEYAmqpxmxXzgA0TjQAIAGQQYIDBRPnNRQwEAQCDzdy2oyIYApQ0WoS5NwNt8/PMZg+gd8PPN20VAJ4tAAig9pa4wGSgrJARxueW2SONJIABAAIAgr4rGYHzeR3rpzGxQFYQUr2QrdTyA8DYfoFG3Ml7cpemrGtnTw/EdOQb3RD1pXb15usIjy8e1mbswtRFoHEiMQCAKQgFOYDZmX4dr75cjy6yZ84n2+l06xbQQVkAHdPHavMru/dsfFf9ZbX7wQAIChX13ty5FCIihIRVTckksXIREWBhwF7mW9/cHEhFfEvbsUp5AmKACCRDWI53LlVW53+o858d/1z5b+Efg+uMruXFN/o3+4HGesM7kuLPzE/V4UeuHnUyO6ZAoUC4U3BnphHAaEIA2Ev4xIRx04sgVBicWk7LOWoRA5tnxnt5jAbQdRXJ01xp8wh5Igk6prauYVPCvDeCAFtCQQLlwxgPMqbpFyShbZSj8PQWRVg2XyMIlM0gAIItANDRExOnPqV8ANxI/sbb5+vMTgJs6gT4Bh9gkiJxU3QhhFIdr5pPLOyhNfT2fjfrsUNfXVwOo+3oWxnAKvA7p+0bxis21qVyAy0MCwYAAAHAANP0V7/8uk09/vu6kKozmKafRaM1oKMcptnY1sUF0PZNPeEjAUFYAkFf21QbZWkEAQCQMzohEQDI2QAAiMyOHOZ87+/ju5SOA1MyYiAAQlKBzXR2Y++d1cH8z6UURPp75T8P2j+Ne6J1zBWNdh4Z8lH0rMZnTWvO7Ji993HBNFjkkU3Z2TkRAAaA2FTA58QcHk0vhpElYZxi3seVMgUhhKYT6gif5UZiqnRrKrldTTYP2IhLKFlQtopvxaxBgOkcjCYFYJRLEJrzINMPSbAFeJ7LUnrbMEKVX3OhpQgpmyAJNtiEKYeWCrav5y0EoLROjkaIJuNyjqfBKF1QJ6y3+3grnyVhI34rpoUJABZzYBX7c75s/7DRqXPtDb976Q9VfRjl3e/uybVP7svTns/N8UwXI6aTBxqoABQBAMAIAC24jHr+/hO/cJGDxaqbZmg4C8qlcFVpvcvD8+GuoBUAcrBEEQCFusZ6+/PVRBdpY2PbzECKSZEAABADAADQGTTrQrnPXTI/rHmW+h3ttoIAAIQEUFe2q9dV56d/WDr+bfDXlf8hMOjEOVz6jkeOZJkpbo9Pll1X6WPdLtM75eauPr6qOecJX/X4lEeuozl4AoBh2lWGvR+xK/WAS5EyANG0qE9QPu/hjzI1hQVNI4QQMmFeZ+gshCrQXioIggKeBmwWiQ0zTgBKYhCa26K2tVIqnvdzPqgvHkipkOMQqiBJkk1N4SrcccSWzM9i41KqRRGXc8inGDy8/gQCeAGhxc93p7LpHA7HESQILYRyw0CK307h32QoRpthGL2dcAQID894bL5FGAmUD5JkBPWOYWhCSoFGMFJcwObZfJ2XEU/cQ4ABQgAYlM6BmJQI+C178weUKWqEllBBDeom9gbcJin2w/6pMHTp08V/N49vJrdxApSgrbHIZQAAAEAIBAQggAhYSAHj81v27ua2d5LTMPQ4hSK61KW0ussR58g0UABIhh4sABgLNaHG2aWWJQgCNk5shqcEA9hEsCNTk2kFHw9//dq3qNqJ/iLfBEgAAAwAQVpma2JEVjudFP89f/wPElXbXabmrJwU3UR3F1Vr0vHt/s51lyKlrBqegfJpv/rPFc+xe9URQCoMxKaV0nSjfJ8KOWFyyrVP1ka9i8um5sE0ZggAxOBcfQMonRTeGphpHUUoA9awEOFJu34tCRQran1xQETGlxknIgXDI54jGQe2iQ2Un5P6tLh6JiNlDvVHPfVAWc0H5mTWpQ9ZxLbIqPA2BoioAz0aAGs4kbvxCBDI8UAfkyPQvZuj858poriEbLJit7NOiE45N2CAH0XS5N0cMR9L6jzxxMEQ9BwTgIi/8Vn+DXRtobRYyBsY7h+xKPtHJiAQSpnZdyMMLAAIn/ARQACIpRAAAQAAATKA65i8R1/563z5+7vuCVlBSSwoVeoqY6UDB29yZ6StAxcIIJBQGEDEuE1tzV1qIQAAqGpKpqrZe05L2UgAAAAUdCSNnfjxtvK48Kaj46v2F/6iNCoAEAAoKA2pydX9nF6yZ9/8McFfoL+i36qCtBpVj9+nw/b2dx1+VXwvA46VytVZtsu9eZif/Wef+du/Gz91zYI5xtQ8Y8n8fuYFomkzDMPothXCOO/mh7t85wc3bXqxn7h3bpNTDqt6rwomkNQxAm50onFbKQBDEM7MF6l6RaDPd/Mx7mKSGGNYUvjHCMYx7YihKTdOSjIP55dTmJh3/SlWsQvuYg6dXxPip7cgIWyZEBjiFWQEjB4AIGg1x3A9KVDgUfoRAElapovdEdw+GeAmGjflMKbGee9im5TrGPCjGOfzEt7Fq/DBA1xPOTFr+StncjMRRrcgT8p7M6vl+zPhu3dkQiYAcFGRcEyZgShGFBQEhFglBAAAMAKACAl6F53r5Nd/0v/x39fkqjoyUptSEEYGB6tWj9Y13ZtL5vO7MwIgMAAGB0a8Z3yfz98VNxoAACIozTT3Eg1IADtFxO4zoqd8e/hx9tl0GKaj2giBQEICgRIx8z71kPXGna3qDjpoIjuVBdDSr67qeepdKlsZvOxP+1Lgcqb9q9T6+4/uT/x7p1ZyDNVDHdoVAdZZvaZTL+rtnp8w2LB2a9asWcMwDGvLGJiUST6ZD2QyeNOEsZ7T3OemmYFCnVAnKfFWOGBsu0APvbRFsHo0AoY6YACAEGaIzuMemi7eooYA6y3jd3yFlQhKSjLDauA5OIwBxLax7W58oHQIhAB8OfcRJNafqD2Wt/JOHk41jZmd3nqJOCVAMN7ICBnF9KZks4oTdJE2KFJFqOsgENLWfFonznJqCQQ0MUYXBiCqGgPrH+Cnpa31JvoAEHCZpDEp83g5R2U3avR0sy7mch63poZpjAYABNABiEzYjdduLeK+zj+IAKJ9Ain0R+LoAcAQYKEREKGKf/5AX1c+3F/6Pm6P0eLbbHt1tHPq2qGJ6eh40nS++KO+9uJzxpUz3ZPADQAIBAJHvLr8z2u/+Hfm/674BQ6ACQKJZrp7xPFRPOgNt/Hh2+0vp5P8+ZQ//vXTb3/qN7838qUYq0EXHUqBYKplbkY+mmZjue87VBsfvanJYX4ToDtricf9q+vS9/Jn/2dvHl71yVvje9IoQvVRBtvV+739vdnfZ1h7RuksuAUnGNI1nMCTOBMGlBt0REgGQACAIsb2c7od3sxlJiQ2ySABZVOYjDBSjpSEFXxyLsrGVEhBCEAHABAAwOAMBCEAhJVTJgk4ShUDEIOg562t5okV1UUHACwYoIhD5scM9oIrLBFeiaKBG8GTsorPM8ogg9QwCjQ6QlkjcMM86bb2ghPEA6wMAgD0BIfz8IQAgE6nzs/k11mMEOQsoNbNMBQwJljDGdpnzqM5Ca0psmF6a+ZyXoR4gBAAGEaXGrvwSoQ4rpMFIJTCAEA4qE5md88750HnloOqZ07AA4DgCsunkd/MT/jRGAMTpoqfaKIIgiAAAMIAoJn6/JJDy3kAgIOyLglhew/7ohMACAkJKVXyWHZhN7ZJfSrUU6VJRouce2yZrudeexCAltC4ig4QgE5UCPn4GWwXzGBf/HD4dcCeEdZDAMDAFEMCACAiAgCZr8J/X/lshqucfIJakZdSjBgIrmaqvjj5gDNygk1XRRgAAAAEAMA0fJ8ef6vKV+iGAQAAE6abNYgO+roeVn6959P5sF/4s/+rVlNGICiAGFIsDIqHlJFff5nzDzywawsUBII0uKACR9T3f1y/+XCu/O4rVqdaTSvRUjmUd6O52tchrdQCBQhujYwEz+V8gvtwVMjpBEhWJxdIqXIsH2POJC2xSSrEwKZEGJhLqXp/cJ/mgigAIAMACDpHGWb+jJQzAATlHSBAaZdkYH0wDAUFlVJbYsP4Zg46t7UXUV7Hd2SbRjDUsA5GIB5Pixqen3MxI4wSE5jEGGXCoLQRxuf8eQspUQBBr0E57+Q8hJ5clO35zuzVa7kE9bw8AYdiFECMoAA8zNkcMl+eFtG0SKkwSExITykn8K3Ech6YwDCgpHIS2xEUnE4v7Y0MzCCH54MsAS849QBQUA7ECAKGQXAZxfwsv5yHkwIAkDGQqWwcKK2xOSxnUfMAzIFQRlHixJxGPfH4AQDQ6UtOoMYww0SpTZRiGpmgyRiCG8EAgBAAkAVQVAuTYATezd5COAwAhD1XxgCABAMAcCh3w/fHb6/OjRfeJzWij3IILOSJdmRKea6cPR944wJmqCI5wAIECIxhbV/VqLNAAABsIuwtGQ5Bf3rSF8eiiufU/3z8L36+9+1/ro1XXqi4paEfrBJlRCA4HthYr8e2fLPe/eGCjQsBiAQRQh/gh0tfO5+0+/lfnSYmIyK01V7NWB+sH6e3F2wAg7g1AHKUu3k9DxHTJpTKkFRpzhAuH+R1jFpsgU1UjNYYa+bzuRwYmqlAz7Nndryg9xarUcpVCMDquSoIazmlFFTYjyBRTy4ZwoFzBksTUA+6C8I4F/BjagwxSETGbNYzwkZilQPBzdm5gPkeDnrHUnfBvC8ZPUGRgVFey7tZFMEZGEZAiYEc41Hu4ndcQcRjCfFpMUo0RoW56PQUx88Pc5QKiwS2Z0DZmDl8nBFDfSkSz0QGR7M/L5uXZh46WmIKHuC8bDNCVvIvLtJ122TAT0JbLS2q1FMuSjFFvjWvTs1DLVWBHpU9vc8SReLStzgpUJ+pCG7ARyeKUCMgGFDWTTOaHD+H530bffP94sDMGAKSYAC0Kb/b8xaPd361Lv+4qoRjSMXgkBHKkl3TF79ruekZZ0jDBhaiIJAZx7jZIMrpDjuQeqAHG5C+KOfE3snLe+X557qvT/+Tf3lR1Cn1UA4RDFmAPHIgZSCd+NY2a8x9vIMPJAQWHEBEVMlZjc8LT+w/5l/+T1x2WzaRIFUwtl6bshHALZoT0yJBeYhP8QeUnkazZmppodTHZ2teZ8fYDmRU2STYne5XnMsahMbMBXouZn7wEOpmCB2Mx3kIJVAqmmZ0NuRJnj5xr+pB+YyDEJAhGEIpnzC1QH3elFewG3hdTHfZ7/kr8xhkHp4pArN5iCEWch+1rQeosWyOzLrdnJ73c14pDABSVewJ92IeA0AHStfTnBaDaVJjX/a3c/V0W4TRZJJ1jHMj/+E21iE4GrRIaVElBRJ24x2BnhXQHMvbZ0misSaUEpSX8SKNub4IY9RjxNNIbYTFLGRJnjbDDASmpshy7mEFK/CTE1AGaaZJ2wH4cTNOGSPEAAGO4QSeNbOidDC6Abxxe/Vmm9K3kAQ/UxkYIwQgJAUEN4JiGCWgPhXW5zk5nYEEv7gPbkZEXBgIiGEB8xuda+L5D/tLP6yqrdSLrnLQ0Ec9ua8ST+b6wd/f65/SMF3fEGAxDALR8rhySxmnTXBhQdDJeBtn2kYFfSmECOLKWV4nju/H/H3qYZ78cvrrPY7JBQJryeBA5CFmzHjkmds6/nqf4pHZUAnFEQcixLEc8OMZ1t0/zNM/fb/z8veJJ9WPvr08DgBNBHOLdPQ0OI1fkBIxQYxSpt0AsCY2zIv5Lw4gpkKMAgABQxHACIAidDFWcJ1+rbsZJx+AIZro9DSQBYO8UwMAhLW1qNKkhgfgLCbJcZRK0YG181ZOL8B5GpRJSXgZC7YxTVUxUcq1CzDC3DyPrVjIVttkreZh1tjNNp9ZzKXOAFMIsyhYy1Ycy0F8gA0pZSiBqRS5iIPys93zMo/GbMjU3MlfeJJfZGsDwAAAEBb0di6SME5tygkAIABgWGjQPQGMCGcVagSK5OzKzwj01u4zj2cwjy/bDzmXK3iSBhkdoMoszrLbx02c3gwIgY46AAAh0GuehA9x+NSTUqEM+Oj4COBGM4v581xGmZ9Zcx0rMPDaMAzDIMq3cngMNwkp/ekeAgLoGAFo1wGAIjWM5gzTZDE/ne0C6iE0IwIgAIDguK1fJjpPfFB3vblX75m83BcJAkWiNGuqX68jDyodaalMSwE+o7Hl+uCm8ui8lVPQCACdgZL0lxH0AUEQBnn0zevf9uiB43nF5ypTLeMhpRYqqwB5IPIknXZga90vXHn3V98jPhLAgDgYBCpRcih1hnP3+3P1eF74aULryEkPZ2HBC7iVm9TIgIs4gwcRPILSAwBgYlFSBjTLduEF2oU9bEhiOeBQAAIFAeQsFgYZK1nOHfqHXUcxk12YWoR8oJ9T87RgqUuArkoVSAAHnMtPKFS3FgAIdWk/i8u2A1PHWR3I6SbAAEfl2ytRlHxCegIfNxVy8hSTM4xEgERVGyRQwYAAgPBy9iMwxG2UAp0QAOFhTuG5M5hnJYyhpCTcwmEGXSeoc7cOU04+RQQ3vQAAFhr0aDLpFGmxZ36arRH6ImjABjuDk3gjR3AJFRI6AVS43zVKk9K/PkdzIKfUhoCPm1IGhAAkpPjRJAMGHMB3Rj1cG2AYNok37AfWkCihmNpskt5rgJ8isGTOYmkEDBDMlEAEBaJuiCuf58C4b7t/d/qUfoHWQpQasC6lY/eO/egPa87VsoIb+Iyg0dRHr/CCIm0AEQiku0jpGZ4a0BdE2eICJcxTPTXtOby/eu/88IvZiFTrci2XQuIAcujp9XtaiUfrtU1Ptpx/LTXAQKAACIjAxDxN69XH18OP6/y3XA9ujAUCGAwBBLxlMhIAAg9zKpfgMASlt6kMWIzRlCratOYyxDO2Z2QpdRthkAU0GGOKljZqNRu3ZbWcVTS31OJAIVWCHxcl0I+QRRS7KEY3gJycGuv4Gme7wtDkihoAkik1la14M+81LwhElFHeMMdqpTroQNkQ0PHJGCJMEcMNQMgggQIDBICUjJPYiRQ4hl9Trj1DB6qM4UaRCIaff8wXWjcwTB+Yc5UnJRroB/QcbRnR7MHZzANvI32BEB3Bp5CRMIjiSDG6IBijgY2baZXnoHyX3MYAQ9ObUSEaoxkdARKG8H6BDgAwiEMYonCtiUmBaW348Zk12+SH2R8v5wGCGTOEgu1N7Y0jHz7ve7/GSDczqMwCC0qJTi+vQfWLP5pxo2UHG4CAn2ICGAsplZayLvMAAQCoCs7qD12zOD1KsykBiLBSTXhmm/3nefXG6aI8DDoWRFuFkUZEJWVkw3nlwzn/NUcsAYBBAIBREZKUzrd2Tj6Gzp4WsNFVXB1uBRgEcMs2qZHhcECLK/gi92CIFACk0wUDAE3DjKqyEbmAEY3gYwYBb+CkCCYwwoALFFsttvl4oRpjVAlAZwsGoAMACACO5gCk8MwBYFiHcZ7kOq7h2lmXqrKVkSALegypT5TvTJTX8yvuYTXdHJCxNKe7r06TKIIbA8rnVJNMC40NABh5IDbBKBAAYJj3YQAEDuUuejLAx6gwQo2AUKGYOIvBcHgIA4AUl6kZYZVeptWTEZgWEOWF+eM83SpevpugLyEGxCOJzCF4GuRUyOkCKLh1+DHajPbpsC9nM1JVD2wU6C0wMMJUKvjJKBJNHtvCAACGQcdIsQa3+YkzvZpTZNYszQ9nu+B5P0AwgwKmnAk/P/7XPvTdz0Gxw8GUeKCazVWXqXQmX/bB+Hjk71LaPWWCAxcODgqIWNDMBTF8zNdsmtyb8oPjB9wYACjp3tNaWT3EJycdAGGAoaCUUkYp9qaP++PecL04ybArflNJ1odjIR2Wseo47e7uru/3p5n0PqEr0TgYAAERAQhSMRRAagCmZoeCQAC3tAHtj/EjfkZOQ2rF1OIHdcAsGIAJABnQrgMWTCcETFBSwAAMALDIdLAM29SWAoOB9RpAZ0jHczw/AcAcBgAZRoUrOJdVPMI4OX7yoJTQgnMjBgBYGR3Bj+C3c3kPh3Mgh/BGLqKDAAloo47n1mkSxw8YRqmQmDDQFVubYZSUhIgmA3wBCOR46mzFkVaUUKRKFwF0dNyEgJKjA+CmHiGfOI/M0ws8zqDrNTpOE9RnKhVyKgCATr8ESKlStYTX8ZupguW7uDdGXyBEB6x5eTJaOAAEwzCMtmLw/EQzSh5hIOAD7YYAAAb0cyrRzMn60UA8R+QKqogFt2EMnXJgAIAAIEAgp0hGMi5FzMzMDOisplZYaHNtagOfCkrfdEqF5BMnMDCDvITfsWMD5DzAOmBsDwJNGpiyX/okd73Re9YVvd0gReNMJ2j3duTSqh/4gRubTDlDNoAPHigAggEBAEBIQuC+sbubPqYUbdoUIAdoJp3VHxrgAEA6QkEoQCldWryB5eMPd93jrRu2OLPxLnFgCR3lsARJ8XxrCOvcvHUQXQMIQeAAAGAEUGEBMQAAEAAI8NYD4SF+zLk8TkRQPF2sAYBJFkAIatMNAAQDQgAAdcB0AKwZGCAMOhpjWKDA45lrS3i1exUjXrGDdgxAqAB/4xwExTDyIAFkIUAAgLAS7SF1Uxqs4wbO5xoyOgFkrNZR8xABUAwwyghQMrQRTVCg5AjP5Yt4UoQBHAHjGD3TAvFk6dJjcyDOom0gWwFiSjf49jpDLaI0qZKxKUBIqJDoZL49A71akBZM0h8AsObMERETEQMx0NUragDzMz9VoAlASEgIQN8UKFLByNiGE3gPAACTMRSbvoAAEsEFxKt6gGFYFwMgZoi9tU01E49P38oHqiQ0p8YX5h097wcz63RMTDL3W5uv2PT5bzg/Kjq3BznBV+Tp9NNxT68e3/33tIeZcmYzVWkYBAaBATAAAACYulrAzHsvZ55lGfUQBwWAyHFSusOTmiEGK8DjU+VmWfDD0d11YHXe2GRyfuYjqR+spQQAASCpcP0ly5cGQWAQwGdHALd2J6FBDeFRzuSnyKQy9WLqIAZYF1ldxLpAZ7dZKxASRjiCE1jMGyxVsYt65toAwNEiRqiSUxBQBDVZJoSgHSEArIyOEEhpkKMEYtraTeLd545kBX4SFKNfYihvEcPAC3gvAEYCgJKyrZ1CFCNMf3x0duFnNYoACnTPCfq6zkAHfEDYFFNELOa3896KUuwE5AyN0zeffDICEDDA6GZyAMRtMbuTYQAA6Oj0D4QoKW6enm/PPokEAsCYfDRF+mWAMRXvB+UNCOTA7uxEDEzLnChuDs/n5pnl/ZzNsCCqJdvcb/9uzry99p7VfELq0jpAfUef8TV7Vn73X6+tT5lwD0hVGgIACMinAIAZs69tT6lSdQzaEAACKV2n/SUZ+tIRCkIBINphCuNnt18X8vVmm5u1mjKqxwrSUgSAAMDW1v4JUIkDfEaRHbd6FwBDgLX8Qr/hkTHaoH8mBDqlQGStA8SMchCv4MUkKEFqxYp6AABYm5Kg5BSAA0AMQUcMeveVkgEOqBIhdEMpbh7OW7kVN3HygT5hraYMM4svAgCgjDOEoSTAEfP+SWmkP/U5lvNndg/KezlDP9bXZjlCFNgU83gzH2SfVhhe1Aw8PMzTN2vVWsrLeScHUZBR0A1BwPs1HRbNS9gRANDRgU0QZWrm5Gg+NlvjEgYAYNJACPQnzyjzZzTv5uU4n0ylBEExUEzDbceb2JlpEc2u+R6/YMeG5bs4MyyCFPIx77ThyIPeuK7RCcWirlQc8DHHXvPMO258XA2BbY8ZIWgABIhPoZ+x9zr3h7enVCmabTYKAAC20331VKLSSQcIQ68AYA5uMpAS2XOob6/82cZJYXvYDAMslGimpKEAORjIDhFAAPwrvEG320W61J4kktBCLCCIgkBxA0Yo0A0ABAAwQsBABoStVmErCtwGPgYmBlCxlgKRFarxXPblHJ7BdoABhhhEQSDWJSMhAwAEEGSkXGxDCKQHXbEONmAI0VabKhHCAE0E6IoBzvAzmTP4ATo+xQhVDDBAgM4CGAA+hlq0FrVXcyjQYRAwQIGiPsCrM2taGHk6CIIQ4sfQCPU0xxjls3nNxL3g1CsHgEzXcyq3j5EwQZWpRJPgAmGMNk0ssZyUJoNE5AzQIuYVfIAlJKBY5kwCgpZrTgdBEYoYipsiboqkJCNRdLbP0tkrS7fruYrf8CUWocQo3UwGCGLxFLtqHcDxzCUM5PgAQBw3PvmUEAQwjJBhxhlmcg7JB9gXAQBMAkzgJxoDEqJoBNAIeaCC4CeKnyIBm8XszmL2YbtsR+ALsx+QqFS7oMJVgf04gadH0BTx8YnGJyAIOmWK1AhMMjAayNCBIvvMsVw69dQ8hOIGM24z4/17dA6tyQZyp15WpM2tHdX9361PvnDGzCF5A4AjSCjAEAyA2IGhn6RznTsPmxoUdKQNgACA7Y52qEDClkQsKFJhuPccvP+8fvSCdLHzmEVV5ZPP3XM/6kYB+Fe+wVX8kVtYSQuH4WWj5UYAAAO6QQgAGGECgosbBQyfYMEAjBHbgZ35je3N1ijQHYOSETkJnoABIPimCxmAIGzdOhsQomPNJxAIeGCSlC4ACBDk8/ecNsvSmIwEwYDuBigaoYmfwcy1d+cFQEoHAFAAINoGe1/lbQmBMD5tAIaOCxiQMivH8P55zeRpuaoHPWG4DZw1v85K/LikQDQggMbGAMAaDRJgiAQhosLRvJfn4lGa5AYAgCCjGQBQorgEigC4EXzczM6CWZod2Y8dZyBuogg7MAcBBAXKAAAIGhi3qh3Pe/PsJNQST5Z4wFAkfrqFALjR2OSZPXvno7MbRSoACAAYwEQ0htBIk9ak+NhANFFSqowwzJLZO0tm/yRTLecDgFAUBRcwemlXYuZ5J86pPGvcRAPxxIQUY4SATrdkXITaBMBNyOzsxjvnxTE5H4Rg5h2GKevZeLUPPJw8tSwqk+yZ7erIvceZr6z5Vc1IQxeO8xYgAAAolIgAWAgBuuz3DzvXQwRAA4EAAAbTXzkAIbaVIAjyBsTk6PMv1tL9PJszX4zEgpzsu2T7JiUEEJh/xQICCJCSchvXs4wbWUOxTEaIjgBglBAAQAADwCcAithsFtmzWcTubM88jIQxFAAwOpWP8AyxlACAgpYEDIRADOvJRgJLtZSlLGEJO7MNFUpBUEaCcDnncdmkAIDRBYyQgM0c9udVOdBSA8hI6NIeNRjlFH7JdqmQ0EFQXEAQdI7OiezptVzVa7kKLVf1ekMYPOl+zyX8CwAjjOASDRgAoVXIMMAxxW68nNeyHeBxBOpAOwYpDQAgz9Q0JiQaYUEWs2D24ZksZiR1DyEMA3OGAb12ABCi3iwPq/AOncZb2ZYHqAIpblwMP10UDRhh9syBHMP2qAdgDgQMxABgErARDCEmAYosyMGZP7vyXOaxECk1ABDDoD1gCEJvCMMwgGody1fykeyZWybBx48BEKLTpYgfjUvKwOyZ/TiMpRMl4LzUVQBs5qU8mQYnVw5PNLGiOKbzdNWlzrzDgUUaTgOZSYRSeAAAAESM4CIEY4ncuLszNxwIBALgyCNH0BvpQZC+MEBAAQAhQCICLSP1V5Snjxk7pYiwlKOM0vm2Lv7kzAncDGCAf81bVIGMBADImeIRbtcK3c0KVs9UpkZoEwOAEB0QpAQQBmY085g1O9g22VFPY54lVgM8DgAYIScC+qp4HCeRYgAIVyIgAwGIQVesgwmujIBdyZVcyZ+5gms4FejVXEpCbk9yrS7nAR7YwOgyzNLalx2359c2OK9YJCNmEEMoA+aEqnc0f+Ub2dUGG4ZhmJlZ2ObVPtvL6obMo+q1XExwVa/lqh707J1tUQPANXiYa7iRmzafcfLJS3EbANRblQUsYV+ez644YlpUcIABGViHYmtt1qxZU1uQA+xjnGW7Ua9Rq5h33iKpBwA4PAAQ6wUzOgiCeGCu5eqe89mF97flupNrtmX16NbClVFYJ1iqnbfnZxd2YcigWFEF1MMBHgBgAGCbBGx7Gi+2E+xMruEv9vNtoAVnOIpNSz0AMBewTQrAA4BBHzGsKUy9lmvt4e1q77PVumO7lmW1nLFtjBDoOsSitlRLOHLbJlsJKoSGBzixcRs26Jn2H5t79WJ9/b9+a3o//tf31vGOxZnurlH56cRbHwdWN3zBDcpSgBUiBQEQsoEAJMKbZ1zfvG+PkRuXowFyEBbgUqAEJjxEHUAodAUQAGRDFf5vjf84/8m/Vn9Zdq5yZ9GqqPLr89G/vx/yE1cExugsG86A+/YKL3Uvpze4w2vcYyUCnjAAt+wBHuZm9yCrdIWEEAQEoAHdI7BzxjCUMJAwKgMSJEDyOi/rjr2oe/Yqd3XLHtBb7EE+FPQSAGyx8Xle4r/sReGWPa5b9WGBgbQVw0ZPYRmFHpjJrLcpZTirEOl99DhPghYgSK6CJCjgCmAApb2Nn1VrR3rcnuZDwYiE7VlnY4IEDAg2zkZWa+M0W0NQN5il+TbKk4bhCZJCBT/CXeGmfUTdTo8CMIyZAIRgG4aBCYBjXuFFvWz3ucNrumeP6qY9zAM8w4PcENIQYCOxbQh7kCJSDdMjF69vfc9XvzzP/RWHX/fs02/py5+uEbNFYQFAMAABoBEUAFi5eeby7lTGHRDKIYCDAObpHgUgFdgoVAcEAGwAQn+F/5nwt97W/bf69W/4/uY+NPv6fXj/e3P+RhLgHGWMCNxK7aikEBAAaSxEqC4QEGHaW4AG7DapFAIACQK0VBoKPTtPEAzZqWGAAuARFKi0tAQBgiABgACbj7lKkhQwbwME6GNPEFRQwA4TYLuRKwgCHAIVAwCwxGV85MF1/o+62Z8p38e4lzECCOAzCvSXmPXCvlYVaQUWiUUDYIAZrlSsUY91Nm3sxISiU4JXkCM4RbYSUoA4PxLGUA1ZEUXhoDcJY0m1rJIKHLDUrCacrEkaCgHOWgNAAIAAKGAUJEFQwKhJgBkbYBiCAgGPogAQbAGgEhRQCYLxJpokQQAgQbD/QYp7OcFXGmgPp79+bG+/hidfmYCZBgQLiAAioURnPjA7MiokUQwCiwAgIpi5XRqqKHJoiBgEcgzAn88doeIv1CwM52taUowDcFuySgoF6KaFcdCbTAyMDSCaEIBkTRI0IAgmUEEBp1SOKEwAchQHdM7wBEcUMGZLy4oCXuVhZjNJRIKSkQAZCUZOwQ0wvCdJGtDSgDnfp+EIoLImKawIcAh0KiGpQrHVcrnX8LSLqiKZCmLKKBAh6gMEAKRyud/f5chIJwgFYwkAAAQclppmtlYOLAYKDGaAYRhEcSAAAgI7PwBGOCMHYeIJulMAkAAIphBQoKMBZYNhSYCz0QCAYAsgAQLMPgEQ4KCIlYKliVWHwKEREAgwMgJAGFj1TKpBiqlDYHGxS91JhWGGbM2JfzgBF1xR6XQY9uqpBZhypwQBtk1wVvT37OgGBwIkRoYMCQ4SoJQCqwGBgEkmbQaGs/B9ZsXbsy0BdooYRbLct2U+wIAaywxk+IP/gAtuhR4B6cGeffaNedYFODClACkQCAwIQWIBABRgmQQUALAeAhA0Qz/6op5/WDPZlo0mOXbsQImylztLPSUGDkYzE+QPTsDBbmeGbnrCLhNACgFuAhQEIQaDoojAiCAFDAAMvYwATt0Yr+7T8+NDwXA7btodHjlzlv3ZydqX+fD0dJqAGAvMBE4MEA6dQGyf+r+QCAAEAAADCCAAQAAwDGQMYHXT2l/79PHDs9ooU9dT1VMV2tpqVEerxqVxtqrWlG4TYqzu6fQAYD3EAPq/f4tBYDcZoHfeXqOlw8Pja17PHvw4nK/ObGF38RgfWd287vLWYaBokKYwXQYCGAMYXRLY/c64oGAfvuHC6FvHvOWM5Ur4hRNXI2UaeLLfzMQ4akIDGaNLDVIJgHCv3M2+/TyQeYs6FDn2KrPRtq5cFhzGS4YJTJg2XXYka0EihxbqN83/e+m8fawSx6JElaDEUillgMuniqNSuMmbBA/6feSfYEocq6wRWzQJDUBd/gAZGwYogyALQd7oD+ELloVoGAAAEICYCoEYCAAXILpcAGxDCjKmBFENCoBAYfdBH8AYGHoJlyQTRMIMqef/cyUGuuwCwuL/xf+L/xf/L/5f/L/4f/H/4v/F/4v/F/8v/l/8v/h/8f/i/8X/i/8X/y/+X/y/+H/x/+L/xf+L/xf/L/5f/L/4f/H/4v/F/4v/F/8v/l/8v/h/8f/i/8X/i/8X/y/+X/y/+H/x/+L/xf+L/xfBAwA=;" parent="1" vertex="1">
                    <mxGeometry x="870" y="117.46" width="140" height="105.07" as="geometry"/>
                </mxCell>
                <mxCell id="12" value="" style="shape=image;verticalLabelPosition=bottom;labelBackgroundColor=default;verticalAlign=top;aspect=fixed;imageAspect=0;image=data:image/jpeg,/9j/4AAQSkZJRgABAQAAAQABAAD/2wCEAAMCAggICAgICAgICAgICAgICAgICAgHBwYICAgICAgICAgICAgICAgICAgICAoICAgICQkJCAgLDQoIDQgICQgBAwQEAgICCQICCQgCAgIICAgICAgICAgICAgICAgICAgICAgICAgICAgICAgICAgICAgICAgICAgICAgICAgICP/AABEIA4QDhAMBIgACEQEDEQH/xAAeAAEAAQQDAQEAAAAAAAAAAAAACQYHCAoBAgMEBf/EAFwQAAICAQICBwMGCgYGBwYCCwABAgMEBREGIQcICRITMUEiUWEUMjNxdZEjJDVCc4GxsrTBFVJicqGzNkNTY4KSFiU0k6LR8CZEVYPS4XSjwhgZRVRkhJSkwxf/xAAUAQEAAAAAAAAAAAAAAAAAAAAA/8QAFBEBAAAAAAAAAAAAAAAAAAAAAP/aAAwDAQACEQMRAD8AlTAAAAAAAAAAAAAAAAAAAAAAAAAAAAAAAAAAAAAAAAAAAAAAAAAAAAAAAAAAAAAAAAAAAAAAAAAAAAAAAAAAAAAAAAAAAAAAAAAAAAAAAAAAAAAAAAAAAAAAAAAAAAAAAAAAAAAAAAAAAAAAAAAAAAAAAAAAAAAAAAAAAAAAAAAAAAAAAAAAAAAAAAAAAAAAAAAAAAAAAAAAAAAAAAAAAAAAAAAAAAAAAAAAAAAAAAAAAAAAAAAAAAAAAAAAAAAAAAAAAAAAAAAAAAAAAAAAAAAAAAAAAAAAAAAAAAAAAAAAAAAAAAAAAAAAAAAAAAAAAAAAAAAAAAAAAAAAAAAAAAAAAAAAAAAAAAAAAAAAAAAAAAAAAAAAAAAAAAAAAAAAAAAAAAAAAAAAAAAAAAAAAAAAAAAAAAAAAAAAAAAAAAAAAAAAAAAAAAAAAAAAAAAAAAAAAAAAAAAAAAAAAAAAAAAAAAAAAAAAAAAAAAAAAAAAAAAAAAAAAAAAAAAAAAAAAAAAAAAAAAAAAAAAAAAAAAAAAAAAAAAAAAAAAAAAAAAAAAAAAAAAAAAAAAAAAAAAAAAAAAAAAAAAAAAAAAAAAAAAAAAAAAAAAAAAAAAAAAAAAAAAAAAAAAAAAAAAAAAAAAAAAAAAAAAAAAAAAAAAAAAAAAAAAAAAAAAAAAAAAAAAAAAAAAAAAAAAAAAAAAAAAAAAAAAAAAAAAAAAAAAAAAAAAAAAAAAAAAAAAAAAAAAAAAAAAAAAAAAAAAAAAAAAAAAAAAAAAAAAAAAAAAAAAAAAAAAAAAAAAAAAAAAAAAAAAAAAAAAAAAAAAAAAAAAAAAAAAAAAAAAAAAAAAAAAAAAAAAAAAAAAAAAAAAAAAAAAAAAAAAAAAAAAAAAAAAAAAAAAAAAAAAAAAAAAAAAAAAAAAAAAAAAAAAAAAAAAAAAAAAAAAAAAAAAAAAAAAAAAAAAAAAAAAAAAAAAAAAAAAAAAAAAAAAAAAAAAAAAAAAAAAAAAAAAAAAAAAAAAAAAAAAAAAAAAAAAAAAAAAAAAAAAAAAAAAAAAAAAAAAAAAAAAAAAAAAAAAAAAAAAAAAAAAAAAAAAAAAAAAAAAAAAAAAAAAAAAAAAAAAAAAAAAAAAAAAAAAAAAAAAAAAAAAAAAAAAAAAAAAAAAAAAAAAAAAAAAAAAAAAAAAAAAAAAAAAAAAAAAAAAAAAAAAAAAAAAAAAAAAAAAAAAAAAAAAAAAAAAAAAAAAAAAAAAAAAAAAAAAAAAAAAAAAAAAAAAAAAAAAAAAAAAAAAAAAAAAAAAAAAAAAAAAAAAAAAAAAAAAAAAAAAAAAAAAAAAAAAAAAAAAAAAAAAAAAAAAAAAAAAAAAAAAAAAAAAAAAAAAAAAAAAAAAAAAAAAAAAAAAAAAAAAAAAAAAAAAAAAAAAAAAABwU9xl0hYWn1u3NyqMWtLfvXWRhuv7Kb3l+pMCojhswL6Yu194fwXOvT67tTti2u9D8DjPblurJc2t/h5GF3Sh2uPE2a5Rw3Rp1bb7vgw792z98578/ikBN7m6hXWu9ZOFcf605RhH75NIt1xZ1mNAwd/lWr4NW3N/h42bf925GvNxj1gda1CUpZep5lzl5p3zUP8AkTUV9xQNl7fm2/rbf7QJ++Ie004Px91/Sau2e29Fcpp/VvsUNndr/wAJxe0Xnz+rG2X394g63G4E2P8A+2R4Z/2Of/3S/wDM+7A7YXhWW3fWoV//ANN3kufwf6yEDcbgT68P9qBwfftvqEqd3t+GqlDb69t+RdjhDrY8OZ+yxdYwbG/JeKq/8zumtludoWteTa+rl+wDaZ0zWqbl3qba7Y/1qrI2R++LaPs3NYzhHpp1bAaeHqGXj93yVd81D/l32f3GTPRl2rnFOA4xvuq1CpbJxyYLv91P0nHZ77ck2BO2CPboe7YvRcvuV6pj3adZJ7OyP4fHX9pyW0op+7ZmbXR70t6bqtUbtPzcfKhJKS8KyLmk1v7UN+/H9aAq8HCZyAAAAAAAAAAAAAAAAAAAAAAAAAAAAAAAAAAAAAAAAAAAAAAAAAAAAAAAAAAAAAAAAAAAAAAAAAAAAAAAAAAAAAAAAAAAAAAAAAAAAAAAAAAAAAAAAAAAAAAAAAAAAA+bUNRrqhOy2ca64RcpznJQhCKW7lKT2SSXqwPoKD6WunPS9Dx5ZOp5lONXFbqM5LxbH6KFa9uTb5bpbJ+Zgt1uO1rxsPxcHh1RyslbwnnTW+LS/J+DHzskv6z9nfmiKjpG6U9Q1fInlajlXZV03u5WzclH4Rj82K+CQEhvWI7Y/It8TH4fxvAracVm5K71z3/Orq+bBr0b3I9ukPpd1LVrXdqGbkZVj9bbJSiv7sd+7H9SKQAAAAAAAAAAAAAAAAAAqHgzpDztOtjfg5V+NbFqSlTZKG7Xluk9mvg0U8AJGurp2weoYjhj69T8uo5R+VVbQy616ylH5tvL05Pck86Eusvo3EFKt0zNqulsnOhyUMmrkt1Op+17Pq1ujWpP3ODOOMvTr4ZWFkW419b3jbVNwkvu818HugNotM5Ir+qX2u3e8PC4mWz9mENRqjy9FvkQX3ucST3hziXHy6a8jGurvotipV21SU4Ti/VSXL9XmgP0wAAAAAAAAAAAAAAAAAAAAAAAAAAAAAAAAAAAAAAAAAAAAAAAAAAAAAAAAAAAAAAAAAAAAAAAAAAAAAAAAAAAAAAAAAAAAAAAAAAAAAAAAAAAAAAAAAAAAAAst1pOtRp3C2BLLzJqV01KOJiRa8bMtS5JLzjWnt37HyS+IFU9NPTnpugYVmdqWRCmqCfcjunbkT9K6Yec5t8uXJebIS+uH2hOqcTWzx6ZzwtKTahi1ycZ5EfSWTJfPb/q/NSbRaDrE9ZPU+Js6WZqNzaTfgY8W1j4db8oVw8uS85Pm3u/UtUAAAAAAAEiseAuh3VNUmoYGDk5TbS3qqlKEW/609u7Feu7YFHAzj6NeyK4mzNpZbx9Og9ntdPxLNv7sPJtejfIyc4H7FbTK9nn6nk5D2W8KoRpgn67S+c/1gRAbHPdJ6OG+yt4Qx9t8K2/b/b3ys3+v4FwtP6h/CNXzdCwX8ZQbf7QNdTY57psgf8A6m/DH/wTA/7pH5eq9RPhK7fv6Fg7vf2owcZLf1TTA10tgTz8U9lXwhkp93Dtx2/J490od1/V7vgWH4/7FLDn3padql1T/NryIKyH65r2gIkAZjdKvZW8U6apTqoq1GqKbc8Wftben4OXtPf4eRijxNwdlYVkqcvHuxrY+cLq5VSX6pJAfjgAAAABkX1UuvBq/C18VRY8nAlL8Ng2ybqlHfm6n/qp+5x5GOgA2Surj1n9L4nw1lafcnOKj8oxptLIxLGt3CcfVJ+U4+y0XdNZDoe6Z9R0LNqz9NyJ0XVyTaTfh3RT512w8pwkuTT9GTodUDr3aZxRhtynXh6hj1qWXi2TjFJJe1dTKTXfp35++PkwMoAY69KXX94W0lbX6nVdZz2qxfxiTa9G4ezH9bMTOkLtrcWO8dM0qy1+SnlWKuL/ALW0Of6mBJ5ucd7/ANbMg94w7XvinI3VHyTEg9/mUqc1v7py5rYs9r/X74uyN+/reXBP82qShHy28kgNiGV6XqvvX/mdflcfevvj/wCZrTaj1ktet+k1bOlvvv8Ah5rz+p/A/M//AO3ax/8AE83/APuLP/qA2bY5MfevvX/md1M1l8Lp+1ut7w1TNi//AMRY/h6v4lYaH11+Ksdrwtbzlttydnei9vRp+gGxz3gQNcI9qrxfi/Oy6clct1kUxsbXwfp9ZfrgTtrsqLjHUdJpsXLvWY9koTfv9h+yBLYDDPox7VrhbUHGF112n2SaSjlQ3jv672Q9lbe9+ZlPwd0lYGoQ8TCzMfKhy50Wws238t0nun8NgKlBwmcgAAAAAAAAAAAAAAAAAAAAAAAAAAAAAAAAAAAAAAAAAAAAAAAAAAAAAAAAAAAAAAAAAAAAAAAAAAAAAAAAAAAAAAAAAAAAAAAonpj6XcLQ9OyNSz7FXj48N3/Xtm/mVVr86dkvZS+t+gFHdaTrRafwtp083MkpWzUo4mLFrxcy5LlGK81CL2c5+UV8WQBdPHTvqHEWoW6jqNrnZNtV1pvwcWrf2aaY+UYxX65Pmz9nrQdZPN4o1S3UMuTjBb14mOn+Dw8dSbhXFeXee+85ecpb/AtEAAAAAqvo06LM/WMqvC07GsycixpKFcd1BN7d+cvKEF5uUn5e8ClEjIjq7dRLX+JHGeNjPHxG1vmZKddOz35wTSlZ/wAP3kivVF7KPA0xVZuvdzPzltOON54eM/RSX+ukvVvluuSJAtP06uqEa6oRrhBJRhCKjCCXklFbJIDBjoD7JLQtNULtTctVyYvdxs9jEXL5vhL569zlzM1+GeDcXCrjViY9OPXFKMYU1xrSSWyXspb7Jep+yAODkAAAAAAAAADjYobpK6ENK1eqVWo4OPlRl62Vxc0/Rqe3e3XmuZXQAi96wfY2UWeLkcP5TplzmsPJbnW+W/crt+cm3yXe5LyIz+lToW1PRciWNqWJbi2JtJzi/Ds+NdnzZr6mbORRnSj0QadrONPE1LEqyqZrysinKt89pQnt3oSW72aaA1igSCdcPsrM3SVZn6H4mdgpuU8bbvZeLHm33Uvpa4r3e19ZH7bU4txkmmm000001yaafNNP0YHUAAD6MLUbK23XOdbacW4ScG4vzi3FptP1Xkz5wAcgAAAAAAAAAAAAAqDhHpBzsCyNuFl5GNOL3UqbJQ2a9dk9n+tFPgDPDoO7XPXtP7tWpRr1Shcu9Z+DyY8+b8RfPf8AeJHOgHtDOHNfcKqslYeXJL8Vy2q5uTe3dhY9oTfwWxr5nem9xalFuMk9002mn701zT+oDairtTSae6fk1zT+p+v6juQIdWvtKdf0GVdN1z1LAi4qWPkycrIQXLam1+1HZb7J8m/Ml06tvXT0TiauPyPIVWX3d7MG+UY5MNtk+6uStS3XOPv8gL9g4TOQAAAAAAAAAAAAAAAAAAAAAAAAAAAAAAAAAAAAAAAAAAAAAAAAAAAAAAAAAAAAAAAAAAAAAAAAAAAAAAAAAAAAAAAcAeeTkxhFyk1GMU3KTeyikt2235JJNt+4gm7SHrlS4k1J4WHY/wCiNPsnCnZ+zm3r2bMmW3zo8u7Vv5R5/nGbnaw9bF6Vpy0PDscc7U628iUX7WLgtuMvLnGeQ04Lyagm/UhZAAAAAX56n3VOzOLNSji096rDp7tmdl7ezj1br2Iekr7PKEPTnJ8lzD5uq11SdT4qzFRh1uGLXKPyvNmn4OLB82t/z7Gk+7Bfr29Z1+rd1WtK4Yw442BSvEcV4+XNJ5OVP1lOfmot+UFyiirOiHogwNDwadP06iNNFMUuSXftl+dZbLznZJ83JlagAAAAAAAAAAAAAAAAAD5NU1WqiuVt1kKq4JynZZJQhBLzcpSaSX1sD6ykeknpY07SMeWVqOXTi0xXzrJJOb9FCPzpt+myfP3GDvWo7WvT9P8AFw9BjHUMtJx+VvlhUS98V53Ne/kk/eRSdL3Trquu5MsnU8u3Im23GMpNVVJ/m11r2YpfBAZ5dajtecnJ8TD4creNTvKEs+1J32x5remHlWpL1e8lsiNfOzp2znZZJznZKU5yfnOcm5Sk/i222eAAAAAAAAGx+novC+Tky7uPj3Xyb22qqnbz/wCBPb9YH5gL/wDBnUO4rzkpVaPkwhLynelVB/e9/wDAu/w/2Q/FlqTtjhY6a39rI78l5ecVFbP9foBhCCRLD7F3W2vb1HCh5cu5OX80fQ+xY1j/AOKYX/dz/wDqAjlBn7qvY18RxT8LJwbfd7Uq9/v3La8Vdl3xhi7/AIhXelt/2e9WN7/BqP6wMTAXF4y6umu6fv8ALNKzaNt03KmUktvjBSX6/It7dRKLcZJxkuTi01JP4p80B0AAAAAD9DQOIb8W6GRjW2UXVyUq7apOFkGvVSXM/PAEqXU07WX6HTuJn/Vrq1SP60llQXn6LxI/FvclJ0jWKsiuF1NkLarIqULK5KcJxa3TjJNpo1ZDLXqXdoFqHC90ce9zzNIm/wAJiylvPG3a/C48nv3XH1h82S38uQE+YKR6LOlTB1nCpz9Pvhfj3xUoyi13oPbnCyPnCcfJxfMq4AAAAAAAAAAAAAAAAAAAAAAAAAAAAAAAAAAAAAAAAAAAAAAAAAAAAAAAAAAAAAAAAAAAAAAAAAAAAAAAAAAABTPSTx9j6Xg5WoZU1DHxKbL7JN7ezCO/dXvlJ7RS822VKRi9sv1glVjYnDtE/wAJkOOZnJNbxprltj1y2e6c7E7Nn5xUWBGj089MORr2rZuq5LffyrpThBvdUUp92mmPujVWowXv239SgAAABzGO/ICuOhToezNe1LG0zBrc7siaTltvCitP8JdY/SFcd5Pfz5LzaNh3q49X3C4b0ujTcKC9iKd97ilbmXv591jXm2+UV5RjsjHTsxeqFHQdLWpZla/pTU64WS7y3lh4kkpVUr3SmmrLNvfFehm6AAAAAAAAAAAAAAADgDk4bLVdO/Wb0fh3HlfqWXCuSW8MeDU8q5+ihUnvz98tl8SJLrT9qfq+s+Ji6X3tLwG2t65fjmRH+3avmRfzlGGzXluBIz1n+0R0PhyM6Vas/UEmo4mNJSUJL0utW8Yc/Rbv05EQ3WS68mu8S2NZOQ8fD5qGFjuVdCi3+fs97H5c5bmP+VlSnKU5yc5yblKUm5Sk3zbbfNtv3nkA3AAAAAADIXq1dR3XOJrISxseWPhN+3nZEXChJc34aeztbXl3fZfvAx+x8aU5KMIylKT2jGKcpSb8kkubfwRln1f+zO4j1xV3TpWm4c9n4+WnGxwf50KOUpL4ScWSjdWDs7dD4cjC51LP1BJd7LyIqSjLbn4Nb9mC38vX4mVMYJeXp/gBg30Ndklw7p6rsz/F1S+Ki5eK+5jqcfWFcdt4789pNmXXCHRTpuBHuYWDjY0dtvwVMIN/W0t2VYAOqgc905AHByABxsNjkAeGTgwmmpwjJNbNSipJp+ae6ZZ7pL6nXDerRazNKxpSe78SqCpt3fr369m37i9AAjC6auxhxpqduh586Z82sbLXiVvfyhCxbSj9ctyPrpt6oPEGgTktQ0+1VJvbJpTuxp7LdtTit4pLzc1FGyEfJqek1XQlXbXCyuScZQnFThJPzTjJNbMDViBNv1oeyk0jVlPJ0ju6XnNuTjFb4eRJ+kq/9W3ySlDkvcRJ9OHV01fh7JeNqeJZTu34VyTlj5Ed2lKuxey99n7L2ltz2AtoAAAAAv11S+t/qPCmdG7HlK7DsaWXgyk/CyIb85RXlC2PnGa9eT3RPh0J9NWBr+n06jp90babYrvR3XiY9m3t02x842QfJ7+fmt0aypkV1LuuJl8J6grY967TsiUY52JvysguStr9I3Vp7p/nLkwNh4FO9H/H2LqeHj5+FdG/Gya42VWQe6akvJ/1ZRfsyi+cWtmVEAAAAAAAAAAAAAAAAAAAAAAAAAAAAAAAAAAAAAAAAAAAAAAAAAAAAAAAAAAAAAAAAAAAAAAAAAAAAAAAAB8mqajCmudtklCuuErJyk9owhBOUpN+iSXM1tes/wBMtmv67qOqTk3HIyJ/J0+Xh4tT8PGht6d2mMU/juyaPtNumL+ieFM5Qmo5GopadSuak1kb/KHFryccdTkn7yAkAAABlt2avVo/6Qa/XbfDvafpfcy8rdbxusUvxbH+uyyLm/7Ncl+cYlRRP52bXQGtD4ZxHZDu5mpf9YZW6Xej40V4FW6/NhQoSSflKc/eBlRVDZJe77v1fA7gAAAAAAAAAAAAB4ZeZCuMpzlGEIreUpNRjFLzcpPZJL3swW61HaraVo/iYuk93U85Nxcoy2w8eSTW8pr6Vp7ezH2Xz5gZo8bceYenY88rOyasWitNysumoR5JvZb85S2W/dim2Ri9ajtfm/Ew+GoNcpRlqN0faT323x6/TlzU5c/gYAdOPWU1jiG936nl2XLduuhNxx6E3uowqXspL0b3Za8D93jPjnM1G+eTm5FuTfY25WWzc5Pfnst/Je5LZI/CAAAAAAfp8OcM5GZdDHxabci6b2hVTCVk5Py5Rim9ve/JAfmFf9D/AEEarruTHG0zDtyZuSjKcYtU0+92Wv2IpLm1vu15JmevVb7IPIv8PL4jsePVyksCmSd0157XWLlD3OMd+XqSj9G/RVp+kY8cXTsWnFojt7FUVHvbespecn8WwMIOqz2Sun6d4WXrso6hlx2msaP/AGKiXns0+dzi0mm9l8CQDStIqorjVTXCquCUYV1xUIQS8lGKSSR9ZyAAAAAAAAAAAAAAAAAAAApLpM6KsDWMWzD1HGryaLIuLjZFNw3/ADoS+dCS5bSi0yrQBBx12uzWzeH3bqGmd/N0nfeSScsnA3b5WRW/fqitvwi8vXy3MHjaiy8SM4yhOMZRkmpRklKMk/NNPk0/cyJDtE+zbeJ4+vaDS5YzbtztPrjvLF35zvx4rm6t+c61zhza5bgRmAAAAAM6OzM668tBzo6TqFv/AFTnWJRnN+zpuTNpRtW/lTY9o2LyXKXoyb2m1NJppprdNc00+aafqmuZqtJk1PZV9cD+l8D+hM63fUdNrXgTnL283Cjyi9386zH5Ql5tw7sn6gZ/gAAAAAAAAAAAAAAAAAAAAAAAAAAAAAAAAAAAAAAAAAAAAAAAAAAAAAAAAAAAAAAAAAAAAAAAAAAAAAPO29RW7aS97aS+97L/ABLKdKHXR4a0hNZmq4ymt06qZfKLU09tnGvfZ7+9gR6dtT0n+Jn6XpMJpxxqLMy6C9Lr5eHXv/8AIjv/AMRGiXx66XTfVxDxHqGpUOTxrJVVYzku7J0UVxqrbj6NpNte9ljgAAAvH1QOiN65xHpentN1WZMbMhpd5Rx6Pwtm/wAJKCh/xmx/iY8YxjGKUYxSUYpJKMUtlFJckorZJLySIhexV6MlbqOratOL2xMarDpl6OeXJyu2+MIVV/qn8WTAAAAAAAAAAAcNlvemLp80rQcd5OqZdeNDn3It73XNc9q6l7cn+rYC4TZjn1luvboXDUJQyL1kZvdbhhY8ozub9PEabjUt9t+899uaI6utL2tGpal4mJocZadhtShK97PNvi+W6kuVSa35R5tPmYA6hqNls5WWznZZJ7ynOTnOT97k22wMmes72hOu8SSnU7nhae37OFjycYtLy8WxbSsl5+fLnsYvNgAAAAAAA7V1NtJJtvkklu2/ckubZfTq59TDXOJrYrCxpV4re082+MoYtaXns9t7Gv6sPvJdOq52bGicPKvIugtR1GKTeRkRUq6pevg1PeMdvm95rdrzAjk6rnZh61r3cyc2MtL0+WzVt0Pxm9c/oqXzXv709ls90S49X3qj6Jw3SoafiQVzjFWZViVmTc0vNza3XPflHYvNXWkkktklskuSSXkkvcjsBwkcgAAAAAAAAAAAAAAAAAAAAAAAAADzupUk4ySaaaaa3TT5NNPzTXLY9ABDZ2mvUHWlWT17R6WtPtk3nY9a3Wn2yf00Iryx7G+a8q5fCXKOo2mdd0OrJptx764203QlXbVNd6FsJraUZJ+aaZr+dfHqm28K6vOuuMpabmOd2n2vntDf28eb8vEob7v9qHdfvAxpAAArfoV6WsnQ9Uw9UxJNXYl0bO7u1G6G+1lU/fCyG8ZL4lEADZ46JOk7G1nTsPU8SSlRmUQuhz3cG1tOuXunVPeEl6STKwIluxt6xsq7snhvIm3Xap5mn95vaFkV+M0x57JTjtaorzl336ktAHIAAAAAAAAAAAAAAAAAAAAAAAAAAAAAAAAAAAAAAAAAAAAAAAAAAAAAAAAAAAAAAAAAAAAAcHhm50K4ynZKMIQW8pzajGCXm5SbSS+LZH51rO1mwNMdmHocYahmRbhPJlv8ioa337jXO6Se2z+bya2YGdHG/SHg6bTLIzsqnFpj52XWRrX1Ld7yb9Ek9zAXp/7YvTsRyo0PGefak18pu71WNF81vGPz5uL57v2X+si26YenzVteyJZOp5luRJt92Dk1TUm9+7XWvZjFPyWxb0C/nTN15OJdccll6jbCmX/u+M/k9H/LDbdpctyw118pNyk3Jvzcm239bfM6AAAAAigcw/8Av93MCcHsfuCPk3Cnylpd7UNRycjf1cKlDFivqUqZv62zOYsD1C+GvknCGgU7bfiPiv4vJtsyG/1+LuX+AAAAAAB8eq6tVRXO66cKqq4udlk5KEK4xW7lKT5JJH1tkPPaxdcK7KzrOG8C1wxMKUVnzrk08vK23dDa2/B4+/dlH1s39wF0etT2vVGO7cPhytX3JuD1C6O9EH5N0Vv57T3Xel7L80RbdIvShn6tkTytQyrsq6bbcrZuSjv6Ri3tFLySS8tilgAAAAAAAffomg3ZNsKceqy62xqMK6oOc5ttJJRim/N/USIdVrsiczM8PL4hslhY77s1hVP8aujye1s/KpNbppe2ntzAwV6LOhnU9ayI4um4luVbKSi+5F+HV3nt3rLPmwivNtslR6q/ZFYeH4eZxDOObkJqUcKH/ZKn6Kx+drXqvm/Azs6K+hrTdFx44um4lOLUtt/DilOxpbd6yfzpSfq2+ZWwH5+haBTjVQpx6q6aq0owrrioQiktkkkkfoAAAAAAAAAAADgDk4bKY6Quk3A0rHnlahlVYtEIuTnbNR72y32hH505P0UU92RddartfLblZh8N1uit7xlqNy/DTW/N0V+Vaa9ZbyT5pgSMdMnWf0PQYuWp59NE9t1Sn4mRJfCqPtffsYtal2yPDcLO7DHzrYbteIoxitk9k9nz5rmQzcT8V5ObdPJy77ci+yTlO22bnOcn5ttv9h+UBsMdDfaB8Ma3NU4+fGjIk4xjTlLwJTlLfZQlL2Zvl6NGRtdqaTT3TW6a5pp+q96+K5Gq5Vc4tSi3Fp7pptNP3prmmZo9VbtPdY0Lw8XOctT05Pbw7ZfjOPHktqbnu9kl7MJbxXP3gTqgs71f+tbo3EmPG3TsqDt7qdmJY1DKob9JVt7tb8lKO6fwLwpgcgAAAAAAAAAAWO64fVto4o0TJ0+aSyYp34Fz86MuuL8Pn6Qs3dU/7Mm/RF8ThoDVo4h0G3Fvuxr4SruosnVbXJbSrsrk4yi18Gvu2PzyRfthurpHC1HH17Gh3adSbpzNl7Mc2uPejZ/eyKouUvjX8SOgAAAKu6I+ke/SNSwtSxpON2HkV3x9VJQku/Fr1jOHei167my3wFxnRqOFi52M+9RmY9OTU/XuXQU4p7eUkns16NNGrsmTVdjz00/LtAt0q2e92kXyjWm95PEypStrfv2jc7a17opLlyAz+AAAAAAAAAAAAAAAAAAAAAAAAAAAAAAAAAAAAAAAAAAAAAAAAAAAAAAAAAAAAAAAAAOAOS2vTt1hNL4dwp5upZEaoJPw6k1K/Kn6Qpr85Nvlv81er5bFu+uH10tP4Uw3KyUcjUbYtYuDGS785NcrLtuddK893zl6e8go6cenrU+Ic6zP1LIlbZN+xWm1TjQ/Nrph5RjFcve/NttgXu63XaHatxNOePVKWBpfefcxKpNTujvylkWLZzb5ezyivcYnNgAAAAAAAAADvV5/ql+xnQ7V/wAn+xgbMPVyxFXw/ocEtu7o+mrb3P5HS3973ZcUoXoJ/Imj/ZWnfwdJXQAAAAAB45VvdTb5JJtv3JRb3/wNXzj/AIpszs3LzLW5WZeTfkTb5tyutlN7v38zZ6176G39HZ/lyNWzK8/v/eYHiAAABXPQr0M52v6jRpun1+Jfc/N7qumtc522S/NhBeb9+y9QKHhW29kt2+SS82/cvj8DLrqvdmxrnEDhffB6bp72fyjIg1bdF7P8DU9m91vtKWyT9GSOdVfsxtG0JVZObGOp6jFbuy6P4tTJ/wCxpe65ekpbyT35mZ1NKikopJJbJJbJL3JLyQFjOrp1MtD4aqSwcWM8lxUbcy5KzItfLdqT+Ym1v3Y7JF9TkAAAAAAAAAAAABw2Y09Zrr9aFw1Cddt6y8/uvuYWNKM597b2fGmt41Rf63y2aQGR2fqNdUJWWTjXCC3lOclCEF75Sk0kvrZgV1pu1i0zSvExNFjHU82LcZXbtYVD/vLnc1/Z2Sa9SOnrOdfbXOJpyrtueJgb+xhYzcK9l5eLJPvWPyftPbfyRjW2BcXpm6wOra/kPJ1PMsyJbvuVtuNNKb37tda9mK+pFugAAAAAAD9fhbi7KwboZGJfbjX1tOFtM5Vzi18Ytf4kmHVV7X2cPDw+Ja3ZFuMI6jTFKcFtsnfUtlNeW8o7Pm29yLgAbQvAnSLg6njwysDJpysexbxsqmpL6mvOL+EkmVGa0vQf1kNY4eyFkaZl2U/16W+/j3R9Yzqe8XuuW+26Ja+qr2qmk6uq8XVu7pee+7FTk98LJk1zcZ+dTctkoy33333QGd4PHEzIWRU4SjOMlvGUWpRkvfGSbTXxTaPYAAAAAAAACzHW/wChGHEHD2pad3VK6dDuxG1u4ZdH4Shxfo5yj4b/ALMmvU1xMzFlCcoTTjKEnGSfnGUW4yT+ppo2oZI18+0a6Jo6RxXqNdcVGjLlHPoUY92MY5Sc5wj6bV2KS+AGMgAAGaPZN9KX9H8VVY05uNWqUWYbXpK9Lxcf/wAUZr/iMLireibjKzT9TwM6uXdni5ePfF+7uWxb/wDD3gNnqMjk+PSdRhdVXbW+9XbCFkH/AFoWRUoP9cWj7AAAAAAAAAAAAAAAAAAAAAAAAAAAAAAAAAAAAAAAAAAAAAAAAAAAAAAAAAAAAAADgxg68XXWxeE8LaPdv1TJjJYeLvuo+nyi9LmqoPyXnZJbeXMrLra9aLD4V0uzNyGp5E1KvCxU/by8jutxXwrh86yfouXNvY19eljpYztbzr9R1C6V2RfLdtv2a4/m11x8o1wXKMUB8fSJ0i5mq5l+fn3zyMnIm52WTe/N+UYryjCK5RitkkkimwAAAAAGYfVS7NbWOIe5lZMXpumtp+PdB+PkR3W6ppez2a8py2S5NKSAxG0vSbb5xqprnbZN7RrrjKc5v3KMU2/1Iu/0idULXNJ0qvV9SxViY9t0KK67JL5TKVkXOLda37se6t9299+WxOb0BdTTQeHK4rBw4SvSXfy70rcmxpfO78l7O/ugkjHXtlV/7MY/2pR/k2AQpgMADtX/ACf7GdTtX/J/sYGzZ0E/kTR/srTv4OkrooXoJ/Imj/ZWnfwdJXQAAAAAB8GvfQ2/o7P3JGrZlef3/vM2k9e+ht/R2fuSNWzK8/v/AHmB4gAASwdiVwNV4Gt6i4p3O7Gw4SaW9dcIytmo+7xHZHvbefcXuInyYjsT/wAj6x9pQ/h6wJIAAAAAAAAAAAAPyuJeKcbDpnkZV9WPRWm523TjXCOyb85NbvZPaK5v0TA/ULc9NHWE0nh/Glk6pmV0RS9ivdSyL3z2VVSfek3s9m9o8vMwG61Pa+U1K3D4br8azaUXqNy2qg/LvUVP53vU5/cRe9IXSXn6rkzy9Qyrcq+x7ynbNy2+EV5Rj8IpIDNXrT9rBqeqOzE0VS03CblF3J75uTDmt3L/AFSfntDmvezArNzp2TlOycpzk3KU5tylJt7ttvdttniAAAAAAAD9XhfhTJzb4Y2JRbkX2NRhVVBznJt7eS8lz5yeyXq0ZZcPdlFxffR4zxsWh7b+Dfkd29fDuxjKO/8AxAYcAr3pZ6CdW0O50ang34st/ZlOLdNi57OFsd4PfbdLfvbeaRQQAAAAmABlL1Xu0M1zhtwoVjztOT9rDyJOXcTa3dNj9qEvct3H4EvnVp68Wh8TVRWNesfM7sfEwciUYXRm0u8q29ldFPknH2pf1TXePq0vVraLI202Tqsg1KE65OE4SXNNSTTTQG06mckNfVX7W7OwHVia/GWfiLaKy4bfLaI+S7y5RujFLkntL4krfRN01aZrmNHK03Lqya5JOSjJeLTv6W1796DT5c1s2ns2BXIAAAAARYdtp0crw9G1aK5xsv0+1peffj8pq7z29FCcV9e3uJTzD7tV+EPlXBuoTUe9PDtw8qHvSWRCu1/Damc3+oCBgBgAcwf8/wDFHBzF8wNjrqVcZ/L+FdByd929Oppk/PeWJviy3+Pepe/xL2mFnZIcSu/g7Gqb3+SZubjr+ypWfKdvvu3/AFmaYAAAAAAAAAAAAAAAAAAAAAAAAAAAAAAAAAAAAAAAAAAAAAAAAAAAAAAAAAAACnekDj3F0zDyM/NtjTjYtUrbbJNLaMV5L3zm9oxiucpNJFQtkOfa2dbZ52Z/0cwrd8PCnGefKEt45OWucaW0+cMb1j5O3n+agMUetx1nMrinVrs65yhjRbrwcbduGLjxe0eXl4tnz7JfnSfuSLJAAAAAP0uGuGsjMvqxsWmy/IumoVVVRc7LJSeySS/xfklu3skz7OBeBcrUsunCwqZ5GTkTUKqoLdyb9X/VivOUnyS5k63Uc6h2HwtiwyMiNeTrF0E78lrvLFUkm6Mff5sY+UprnJ7gWg6k3Za42mxp1LX4Qys/lOvDe08XCfJrxF5W2r4+zF77b+ZIfRjxilGKUYpbJJJKKXkklySXwO6RyAMBO2W/0Yx/tSj/ACbDPswE7Zb/AEYx/tSj/JsAhSYDAA7V/wAn+xnU7V/yf7GBs2dBP5E0f7K07+DpK6KF6CfyJo/2Vp38HSV0AAAAAAfBr30Nv6Oz9yRq2ZXn9/7zNpPXvobf0dn7kjVsyvP7/wB5geIAAExHYn/kfWPtKH8PWQ7kxHYn/kfWPtKH8PWBJAAAAAAAHDYHJ0ssSTbaSS3bfJJLzbfol6v0LI9Ynri6Jw1U5Z+VGWRs3Xh0tWZVjXknFPatP3z2+G5EN1ou0r1viDv49E3puny3XyfHm/Fuj/vruUpeW+y2S+IEjPWn7TrRtB8TGwpR1TUI8vDpnvjUS/3ty3UmvPuw3T8t0RGdYHrZ61xJdKzUMubp7zdWJW3Xi0Rb3UY1p7Pb3y3ZZyc23u3u3zbfNtnAAAAAAAAL/dW7qT65xNZF4eM6sTdd/NyE68eMW+bhut7X7lDdb+bQFhKKHJqMU5Sk0oxim5Sb5JJLm23ySXmZqdVnsvtZ1zw8rPUtL09yTbui1l3w834dT+Yn5d6ezT9GSPdWDs4dD4dUL51rUdQWz+VZEE41S/3NT3jBfe/iZYxgl5AWe6v/AFTdF4bpVWnYsVY/n5VqVmVa9tt5WNbrdekdkXi2OQBS/SF0Y4Gq488XUMWrKommnC2Kltutt4vzi/immRe9ajsg7anbmcN2eLDdy/o217WQXuotb2lz8oz22XqS1HDQGrdxTwnk4N9mNl0W499TcZ1XQcJxae3k1zXLlJbp+jPyTZH6e+qhonEdLr1LEhKxb+Hk1pV5VLfrG1Ld+7aW6IkOtF2XWs6H38nAUtVwE5PvUw/G6Iry8Slb9/ly3r3bfPZAYTg7WVtNpppptNNbNNcmmnzTT5bHUAAABWXRb0w6louTHK03LtxbotbuuTUbEvzZw+bNfBp+ZRoAmI6qna44eaq8PiGKw8ptRjmVr8Uu8kvEjzlVKTfmt4+fkSJaNrdORVC6i2u6myPertqnGyuyPvjKLaa9OT5NNehqyl++rh11tc4ZsXyPIduLuu/hZDdmPJb8+7Fv8G+b2cdtm9wNi0GKHVf7RfQ+IowplbHT9Qfdi8TJkoxtm0voLX7M03yUZNTbaWzMrkwOSz3XA0NZPC/EFTW++j6hOP8Afqx52Q/8UUXhKL6Z8TxNI1SH9fTc6PP+1jzQGsZL+S/YcHe6Ozf1v9rOgAAATK9ipqfe0DVKd/o9ZnYl7lbhYsfu3gyRMjN7EjJ/6u1uHos7Hl/zUpf/AKJJkAAAAAAAAAAAAAAAAAAAAAAAAAAAAAAAAAAAAAAAAAAAAAAAAAAAAAAAAAAOJMDHnrz9ZaPDGg5OXCcVnXp4unQezcsmxNeIl6xx4b3P0fdUfVGvNqGfO2ydtknOyyUpznJ7ynOTcpSb9W22zLftOusU9c4iux6Z97B0lzw8futOFtql+M3prk+/Yu7F/wBWHxMQAAAAH16RpNl9tdNMJWW2zjXXXBd6dk5tRjGKXm23sfIkStdkt1NEoLifUafak3HSa7F82C3jZmOL9ZPeFTfkoua5SQGRnZ99RyrhjBWVmQhZrOXFSvs2UvkNbSaxam/JrzsmvnS3XkkZghI5AAAAYCdst/oxj/alH+TYZ9mAnbLf6MY/2pR/k2AQpMBgAdq/5P8AYzqdq/5P9jA2bOgn8iaP9lad/B0ldFC9BP5E0f7K07+DpK6AAAAAAPg176G39HZ+5I1bMrz+/wDeZtJ699Db+js/ckatmV5/f+8wPEAACYjsT/yPrH2lD+HrIdyYjsT/AMj6x9pQ/h6wJIAAAOD5dT1WumErbZwrrgnKdlklCEEvNylJpJIj760/a2afp3iYmgxjqGWu/B5Mt1h48lut4+t8k9mvzGl6gZv9JvS1p2j408vUsqrFogm+9ZJKU9vSuHz7Jf2Ypsiy61Pa8ZWS7MPhyEsSndxefYl8ptS9aYeVS38pfOa89jBHpe6dNV13JllanmW5Nj+bGUn4VUd91Guv5sYr0SRQQH6PEHEd+XbO/Jtsvusk5Tstk5zk2922236+h+cAAAAAAACvOiPoN1TXchY2mYduVZuu84raqlPydlj9iC+t7v0PwOBtQxKsuizOonk4kbE76K7HTO2v1UbFzi/X47bepPn1M+mThPOwq8fh75PiuEF4mF3Y05cGku9309nbs/OcW0wLB9Vrsj8DA8PL16UdQyl3ZLFjusOmS5+163NfHZbokH0jRaseuNVNcKq4LaMK4qEIpeiitkj7EcgAAAAAAAADrKG/mdgBiV1n+zh0PiFWX11rT9Qabjk48VGFktuXjVLaM1v68n6kRHWO6k+u8M2S+WY0rsVc45uNGVmM4++b23qfwnt8GbFh8Os6JVkVTpvrhbVZFxnXZFThOL5NNPdc0BqygmP60/ZG4Gd4uXoEo4GTs5fI5L8Tulvu1D1pe3Jbezu+ZFV0tdCOqaHkyxdTxLcW2LaTnHeq3b86q1exZH4pgUKAAAAA9MfIlCSlFuMotOMotqUWvJprmmvejODqrdqdq2i+Hian3tT0+K7q78vxzHjuvo7X89JJruT5c99zBsAbKXQP1m9H4jx1fpmXC2SinbRJqGTjtrmrK29+T5d6O8W/IqfpcuUdL1KT5JafmN/BKie5rR8F8d5mnXwycHJtxr62pRspm4STXv2fNfB7okF4D7Wi7J0bUtM1ynv5VumZ1GNm0JR8W6zHnXTG+vyT7zSdkebfN+oEcOQ+b+t/tZ5hsAAABL92JWDtpWtWe/UaYf8AJjwl/wDpElRgB2MeiuvhnLtf/vGs5E1/chi4tSXx2lGX3mf4AAAAAAAAAAAAAAAAAAAAAAAAAAAAAAAAAAAAAAAAAAAAAAAAAAAAAAAAAsT11unZcPcOajnxn3cl1PGwtmu88vI/B1Sjv607u5/CDL7EQPbQdNDuz9P0OuT8PEr+XZK5bO/IThQm/PeulWbp/wC0TAjaysmU5SlJtyk3KTfNyk3vJv622zyAAABIC/XUp6t8+J9dx8FqSxKvxjOsS5Qxq2nKG/kp3P8ABx9+8vczYg0TRqsemqiiuNVNNcKqq4LuwqrriowhFLkoxikkYg9lz1dFovDtOXdWo52rqOZdJpd+GNJb4lW+26j4TVzj6TskZmAAAAAAAwE7Zb/RjH+1KP8AJsM+zATtlv8ARjH+1KP8mwCFJgMADtX/ACf7GdTtX/J/sYGzZ0E/kTR/srTv4OkrooXoJ/Imj/ZWnfwdJXQAAAAAB8GvfQ2/o7P3JGrZlef3/vM2k9e+ht/R2fuSNWzK8/v/AHmB4gAATEdif+R9Y+0ofw9ZDuSedmD1jNI4d4e1jI1TLhQpajF1VL28jJax691VUuctt1u+SW4EtbkYtdZ/tDND4bjOl2rO1BJ93Dx5KXcl6ePYt41pPbePOTXkR1dabtV9W1jxMTSlLS8F96LlCW+ZkRfL27Ft3E15xhtunz3MFsnKlOTnOTlKT3lKTcpSb9W3zbAyF6zHXo1ziaySyL3jYXe3rwceUoUQXp33v3rZL+tNt8zHYAAAAAASAA9r8Ocdu9GUd1uu8nHdPya3S3XxW6PEAAAB+lw7xLkYl0L8W6yi6uUZwsqm4ThKL3TTi15Nbn5oAk06qva95FDrw+JIPIp3UVqFUfxiqPJJ3Vrlal5uS9tkpHRv0qYGr40MvTsqrKomk1OuSbi/6s4/OhJeqklsawZcHoc6e9V0HJjlaXmW49i+dFNyptW+/dsqfsTjvz2aA2Zjkj46rHa0abqbrxNbjHTcx92MchbvCyJeW7fnTJ/Oe+8eey22M/dO1Ou6EbKpxsrmlKE4SU4TT5pxkm001zA+oAAAAAAAAAACjelDoh07WcaeJqWJTlUT29myCbg1zjKEtu9GUXzTT5MrIARA9afshsnF8XM4dnLKoTcngWy/GaY+e1Vj5WqPul7b35PkRzcQcOX4ls6Mmmyi6t92dVsHXZB+5xkkzaWZZDrEdTzROJae5n4sVfFPwsulKrJqe3L247Ocd+bhLdMDXHBmH1oOzN1vQHPIxYS1PT13peNRBu/Hgv8Ab1LnyW284ct/RGH1lbTaaaaezT5NNejXo/gwOoAAAAAAABzF8zg9sPHc5KMVu5NRS97k+6v8WgJ+OzF4V+S8F6RutpZCysqfLbnZl3KH/wCVGBlUUF0D8H/0fouk4Xd7rxtOw6Zr18SNEFbv8XZ3m/rK9AAAAAAAAAAAAAAAAAAAAAAAAAAAAAAAAAAAAAAAAAAAAAAAAAAAAAAAAA8si1Ri3JpRSbbb2UUvNt+iS57mth1pek16xxBquo8+7kZlrqTe/cprl4VUV7kowTS+JPb1yOkNaXwxrebvtKvAtqrfqrcvbFqa+KndFr6jXAsfP9v1+v8AiB1AAAvP1PuhaWv8Q6bp2zdM71blNbexi0bW3vny5xSivjIswSndil0T7vVdanFcnXp+O2vai9lfkSi/dKLrg38NgJVMXGjCMYxioxjFRjGKSjCMUkopLkkktklySPYAAAAAAAGAnbLf6MY/2pR/k2GfZgJ2y3+jGP8AalH+TYBCkwGAB2r/AJP9jOp2r/k/2MDZs6CfyJo/2Vp38HSV0UL0E/kTR/srTv4OkroAAAAAA+DXvobf0dn7kjVsyvP7/wB5m0nr30Nv6Oz9yRq2ZXn9/wC8wPEAADnvenp7vQ4AAAAAAAB+5wdwPmahfDGwsa3KvsaUKqYOc239XKK+Mml8SSfqsdkBZZ4WZxJZ4ceUlp1EvbkvNK+5eW/rCGzT/OYEf3Q90Batr2QsfS8O3JlulKaTVFKb271tr9mCXrzb+BKr1XOyP0/T+5la9OOo5S2lHGinHCol57SXnc15Pvey9t0kZ0dHvRlgaVjxxdPxacWiKW0KoKHee23ek0t5SfrJ7tlUgWS6bep3oOu4ixcvBph4cFXRfRCNN+Ko/NVc4pPur+o94vZbpkUHWf7LTWdF8XJ05S1TT4Jy70EvllMV/tKl8/urm5Q+4nMOJR3A1XMjGlBuMouMovZpppxfuaezT+DSPM2Aus12eOhcRqVzq+Q5+z7uXixjBzk92vGr27lu723bXe23SaIi+sj1DNe4blKd+P8AKsLvPuZmKpWV93fZO2CTlU37nul7wMcQGgAAABMyP6snXv1zhmcYUXvJwe9vZg5Lc6Wn5+G2+9U/X2Gt35mOAA2CerF2gmhcSQhXC1YWe1tPCyZRjJy5/Q2PaNqaW+y2a325mT0Zbmq7i5coSU4SlCUXvGUW4yi15NNbNMzv6rPauarpPhYmsKWp4Me7CM20szHgtlvGxr8Iord7T3b22TQE2gLadCvWL0fiChX6XmV3rZd+ptQyKW/SylvvRe3Pl3l8S5SYHIAAAAAAAAAA62VppppNPk01un9aMOetL2Zui6+p5GLCOmai02r6IpUXz5tfKKlylu295x2m/eZkADXE6w/U91zhq5wz8WUsd/R5lKdmLaue280vwctlu4T27u65ssk0bS3EHDmPl1Toyaa76bIuM6rYKyE4vzTjJNcyOTrVdkRjZXiZnDk1iXveTwLX+KWS5t+FPnKpyfpzgtuUUBEICsOk7oi1HRsmeJqOJbi3QlttZFqE/dKufzZxfmnFvl6Io8AAABVXRTqeLTqeBdmqbxKsvHsyFBbydULYynsvXkvL1KVAG0L0f8f4ep4lOdg3wyMa+Pfrtre6fvT9Yyi+UovZxf3lRmv11Huu/mcKZirsc8jSMicflWLv9E3y+UY+/KFsFzaXKcVs/RqefgjjbF1HEozcO6F+NkVqyq2D3jOL/ZJPlKL5xaaA/eAAAAAAAAAAAAAAAAAAAAAAAAAAAAAAAAAAAAAAAAAAAAAAAAAAAAAAABgR2yPGbx+GKMWMtnn6pRXJf1qaarr5b/BW11frZCc2Sk9t7rz8Th/F35d3UciS+Pfx4Vv7nYRbAAAARsEdm10df0dwfpEWkp5dM9Qse2zl8sm7qm/7tMoR+pGv/gYznOMEt3KUYpLzblJR2X17mz/0fcMRwsHDw4LaOJi4+NFLySoqjWl+pICoQAAAAAAADATtlv8ARjH+1KP8mwz7MBO2W/0Yx/tSj/JsAhSYDAA7V/yf7GdTtX/J/sYGzZ0E/kTR/srTv4OkrooXoJ/Imj/ZWnfwdJXQAAAAAB8GvfQ2/o7P3JGrZlef3/vM2k9e+ht/R2fuSNWzK8/v/eYHiAAAAAAJGUPVl7PXXuI5V3Kl4Onyl7WZkxce9FfO8Cp7Ssfu37sWnumwMZMPCnZKMK4SnOT7sYQi5Tm36RjFNyfwSbM6+q/2Ueras4ZOruWlYT2kq2k82+L5+zB7xqTWzUpbv07qJJOrV1CdB4bhGdNCy83k5ZuVGNlqa8vCTXdqSfl3Vvz5tmSSQFq+gvqzaPw7RGnTcOuqXdUbMhxUsm9rzdlrXee757JpJ+SLqHIAAAAAAB8+bgQsjKFkIzhJNSjOKlGSfmmnummfQAMB+tF2UOlar4uVo7WmZ0m5utLvYV8nzadf+qbfJOtqK3b7rIoOnLq1axw7kSx9TxJ1JfMvgnZi3LyThcl3eful3ZfA2Vz8HjLgXD1CieNm49WTRYtpV2wU4v481ya9GuaA1dQSvdaXsf4T8TL4atVb2lKWnZEm4Nrntj3c3HlyUJqW8mvaRGNx90bZ+l5E8XUMW7Fvg2nC2Dj3tvNwl82cf7UG0BTQAAAACouA+kTN0vJry8DJtxcitqUbKpuL5ejS5SXvUk0yUHqq9r7XZ4eHxLX4c9u6tSpj+Dk+SXyilfN35t2Q5Lb5r3InABtH8KcY4udRXk4eRVk0WRUoW0zU4STW65ryez+bLaS9x+ya2nQF1qta4bvVum5c4VtrxcabdmNfFNNxlXLdLfb50dpfElz6q/ag6Nrvcxc9x0rUHtFQun+K5MtvOq17KDbTfcs2SX5zAzYB503qSTi000mmmmpJ+TTXJprmmuTPQAAAAAAAAAcHIAoTpa6EdL1zGli6niVZVT8u+trK3767FtOD+MWiILrhdlvqGi+LnaP39R02PenOvbfNworn7UYr8NBR3ffilJbJbS8ybg6WVppppNPk0+aafoBqtyjtyfJ/sOCYvr8dmXTqEL9X0CqNOoJeJfgQUYUZ6S3k6VyVeQ1z25Rn5ez5kPmo6dZTZOq2Eq7K5ShZXOLjOucXtKMovZqSfJp80B84AAGafZ1deSzhzNjp+fZOejZc1GSb3/o66T2jkVp+Vbb2titk17Xo98LABtQYGdC2ELK5RnCcVOE4tSjOMknGUWuTTTTT9x9BFr2T/XVdijwxqd284Rb0m6yXOcY7ueE5PzcVvOrf0U48/ZRKSmByAAAAAAAAAAAAAAAAAAAAAAAAAAAAAAAAAAAAAAAAAAAAAAAAAAAAAhd7aDWXPiDT6X5VaXCa/wDnXWb/AOWiPkzm7Yie/FdPw0fB/wAbctmDIAAAV90A6CsrW9Ix3ttdqWFW9/L2r4I2aImuB1M6VLirh1Pyetad/ERNj+AHYAAAAAAAAwE7Zb/RjH+1KP8AJsM+zATtlv8ARjH+1KP8mwCFJgMADtX/ACf7GdTtX/J/sYGzZ0E/kTR/srTv4OkrooXoJ/Imj/ZWnfwdJXQAAAAAB8GvfQ2/o7P3JGrZlef3/vM2k9e+ht/R2fuSNWzK8/v/AHmB4gAAXZ6v3Ve1jiW906ZjOyMGldkWPw8bG3/2k+fP+zFSl8C0xMP2J8f+p9Y+0ofw9YFweq52Wmj6L4WVqO2qahFKW9sfxTHn/uqXupNbtd6fe389kZtYmHCuKhCMYQitoxilGMUvJJLkkvgewAAAAAAAAAAAAAAAAA4Ld9MvV+0nX8d4+qYdWTFb9ybW1tMmvnV2LaUWvPbfbf0ZcUAQxdaXslNR05W5mhTeo4kfaeLLZZ1MfXuvlG6MVzfzZbeSkyPnKxZQlKE4uM4ScZRkmpQlF7Si0+aaa2afkzafuXL7/wBjNZLpvX/XOrfaed/E2AUQAAAAAHMZbc1yf7DgAZb9VztItb4dcMe6ctS05PnjZE27Kk3z8G57yg/cn3or0SJe+rf1y9E4mpi8LJjDK7qduDdJQyapNc1FPlavjXu9ubSNc0+3Rtcux7I20W2U2we8bKpyrnF/CUWmgNppM5Ie+qz2u+ZiurE4ig8yjdR+Xw2WVUt9u9bHlG5L18pbL1JUui7pf03WcaOXpuXVl0yS3lXL2q2/KNlb2nXL4SSArIAAAAAAAAAAcNEfvaNdnvXrNVus6PVGGq1Rc8miCUY6pXBbtpLksqKXsy/1i5PnsyQM4aA1XMjHlCUoyi4yi3GUZJxlGUXs4tPmmnyafNM8yUTtVuo/Gl2cTaVT3a5PfVaK4pRqk/LNil5Rk33bUlsntP1ZF2AAAH26JrVuNdVkUWSqupshbVZB7TrshJSjKLXk00mbC/Ug6zlXFGiU5blFZuP3cfUKk1vXkRXKxL+pfFeJF+/vr8012zKDs9Os5LhvX6JXWOOnZ7jiZ8d/YjGb2pyGvJOixpuXpW7PeBsEA8sa9SipRakmk0001JNbppr0a2a+DPUAAAAAAAAAAAAAAAAAAAAAAAAAAAAAAAAAAAAAAAAAAAAAAAAAAAIRe2Pw2uKceb8p6PiJfXC7K3/eRgiSRdtjoHc1XRsj0vwcirf4490N1+rxV95G6AAAF2eqbqSp4m0G2T2UNY0+TfuSyImybE1deBtbljZmLkx86Mii5fXXbGRtDYmTGcVOLTjJKUWvKUZJNNfBoD2AAAAAAAAMBO2W/wBGMf7Uo/ybDPswE7Zb/RjH+1KP8mwCFJgMADtX/J/sZ1O1f8n+xgbNnQT+RNH+ytO/g6Suihegh/8AUmj/AGVp38HSV0AAAAAAfBr30Nv6Oz9yRq2ZXn9/7zNpPXvobf0dn7kjVsyvP7/3mB4gAATEdif+R9Y+0ofw9ZDuTEdif+R9Y+0ofw9YEkAAAAAAAAAAAAAAAAAAAAADpb5ff+xmsj04flnVvtPO/ibDZut8vv8A2M1kenD8s6t9p538TYBRAAAAFyuirq8arrWPn5Gm40spaaseeRVXzv7mR4vclXDzs2dUt4rnzWwFtQfRqOnWUzlXbCVdkJOM4Ti4ThJealGSTTXuaPnAAAAVz0S9NuqaHkwy9My7ca2L5qEn4difKUbK/mzjJcmmvIoYATIdVftcMHP7mJxBGOBlPaMcuCbw8iTe3txS3ob/AFw9W0SGaVq1V9cLabIW1WRUq7K5KddkX5SjKLaa+KNWMyB6tfXe1zhmxLEyHfhuUXbhZDdmPYltv3N23VJpbKcOaA2JwYpdVvtE9D4kUKHYsDUXyeHkSUVY9lzote0bE3ulF7T5eRlYpAcgAAAAAAA+DXNEqyabaL4RtpuhKu2uS3jZCacZRafJppmvf15Oq1ZwtrVuLFSlgZO+Tp9r8nRKT3pk/wDaUS3rfq4qMvzjYfMZuv8AdWWHEug3VVxXy/CU8vAny3dkIt2U7/1b613X/ajADXwB3vocZOMk4yi3GUWtpRaezTXo0+TXozoACYAE8HZc9YR63w7DHvs7+bpMo4dzbbnZRtvi2yb5tygpQb99fxMyCAvsy+nj+heJ8WFs+7iamv6PyE3tBStaeNY/TeN6hHd+UZyJ8oMDsAAAAAAAAAAAAAAAAAAAAAAAAAAAAAAAAAAAAAAAAAAAAAAAAAAIy+214P72n6JnJfQZuRiN/wBX5VT4y+/5N/gRFk9/alcAfLuDtRmlvPBsxs6C2337lsabPq2ptsl+ogRkBwAAO1ctv/Xu5r/E2SOqRx3/AElw1omY5KU7dNxY2tf7eqtVX/8A5sZfUa2qZNV2OHScsrhy7TpSj4mmZtsYx39rwMv8YUtvd40rIfqAz+AAAAAAAAMBO2W/0Yx/tSj/ACbDPswF7ZWL/wCjFHw1Sjf4fgrAIUWAwAOYy/8AX18jgAT4dm/1m8XXNAw8TxYLUdMx68PJx20rHXRFV0Xwi+cq5VRgm1vtNSXuMt9zV64B6Q83S8mGZgZFuLkVv2bKpOEtt93F7ecXtzT5MlE6rHbA12KrD4lrVVnzVqVEPwc/c76Y/Nb5LvV7JJNtMCUIH5PDPFeNm015OLdXkUWxUoW1TVlc01utmv2PZn6wAAAfBr30Nv6Oz9yRq2ZXn9/7zNpPXvobf0dn7kjVsyvP7/3mB4gAATEdif8AkfWPtKH8PWQ7kxHYn/kfWPtKH8PWBJAAAAAAAAAAAAAAAAAAAAAA6W+X3/sZrI9OH5Z1b7Tzv4mw2brfL7/2M1kenD8s6t9p538TYBRAAAEpXYgL8LxH+j0n97NItSUvsP8A6XiP9HpP72aBmR1mOoNoXEsZ2XULEzmvZzsaMYX7+niL5tqXopkQvWa6gOu8NSnZZS8zA3fdzcaMpwjFet8EnOl7ebl7LfkzYPPDLw4WRcJxjOMls4ySlGS9zT5MDVeaBNd1peyg0rVfFy9HcdMzWpS8GEfxHIn57SrX0Tk/zobc3z3Im+mzq6avw9kPH1TEsoe77lq9vHvS2513JdyS5+XJ/AC2oAAAAD0x8mUJKUJOMk91KLcZRfvTXNGcnVR7U7VdFdOHqve1PTY92Cc3+O4sPLeu187FFbbV2brZPbmzBcAbPvRj0n4WsYVGoaffG/Gvj3oTi+cX+dCa84WQfKUXzTKrIRuyZ6yN2m65HRrrG8HVu9CMJS9jHzIQc6rIpvaPiqLqlt85yh7ibeLA7AAAAAB1mjsAIFu0+6vn9CcSX3019zB1ZPOx9l7ELpPbLqT8t1dvc16RtiYgE63au9DC1PhizLhBSyNItWZCXPvLHltXlwil596Phzf6P6yCloAAAPbDy5VzjOEnCcJRnCSe0oSi94yTXk4tJp+jNkjqq9Lkdc0DTNSTj378WtXxjLveHkVrw7oNvnupx3/Wa2JMD2LXSr42m6lpE5x72HkRy6YfneDlLa5/VG6EP+f6wJJwAAAAAAAAAAAAAAAAAAAAAAAAAAAAAAAAAAAAAAAAAAAAAAAAABS/SfwbHUdOzsCe3dzMPIxW3zUXfVKuMv8AhlJST9Gt/Q1kOI9Hlj33Y8+U6LbKZrbZqVU3W919cTaVkiAvtOuiR6XxXmzjDu0ako59Oy2hvbyujHkl7NsW2vTvL37AYmgAAZudkp0wrTuJlhWSUadXpeLz/wD4itu3FX1yn3of8RhGfrcJ8S24eTRl0TlXdjXV31Ti3GULKpKcWmvXdbfrA2kUzkoLoK6V6dc0jA1WjZQzceFrgnv4Nu3duq3/AN1apQ5+exXoAAAAAAMVe0x6M7NT4Q1ONMe9biKrPglu244tinfsl5vwO/svfsZVHjlYsZxlCcVKMk4yjJbxlGS2aafmmns0BqutAzj6/nZ65Wg5Nuo6XVPI0e6cp92tOdmlyk+9KuxLduhb+xZ6L2X5bvBxoAAAAAAvF1f+tlrfDV6s07Lmqu8nbi2vxMW9brvKVct0nJLu9+O0o+aaZLx1We050XXvCxcxx0zUpbLwrZbYt8vdTdLkm/SFj3+JBKcxk1zXJ/ADakqtTSaaaa3TXNNP1TXJr4rkdyBnqs9pdrfD7hj5MnqemraPgZEm7seO6549z9qLUVsoS70EvzSXrq89b/Q+JaVPT8qKvS/CYdzVeVU9uf4Nv8JHffaUN90t9kBd3Xvobf0dn7kjVsyvP7/3mbSWuv8AA2/o7P3JGrblef3/ALzA8QAAJiOxP/I+sfaUP4esh3JiOxP/ACPrH2lD+HrAkgAAAAAAAAAAAAAAAAAAAAAdLfL7/wBjNZHpw/LOrfaed/E2Gzdb5ff+xmsj04flnVvtPO/ibAKIAAAlL7D/AOl4j/R6T+9mkWhKX2H/ANLxH+j0n97NAldAAApvjzo7wtTx7MTPxqsqi2PdlXbCM0/c1ut00+aa5p8ypABE91p+x+lDxczhqxzjzk9Nvl7SW/NY98ub7q59yzdy8k0RpcW8GZeBfPGzMe3Gvre06roOucX9T818VuvibRpaLrAdVnRuJMd06liwnNJ+FkwXh5OPJrlKFkdpNJ8+424y9UwNbUF4etV1b8rhfV79MyJeJBJXYuRtssrGsb7k/wC9Fp1zS5KcZFngAAArvoFz5Va5o9kG1KGqYDTXL/3qpNfU02n8GbNVS5frf7WaxvQr+WNK+0sD+LpNnKv+b/awO4AAAAAAAPyeK9BhlY1+NYt4ZFVlE01uu7bCVb5eu3e3/UayfSdwVPTdRzsCzfv4eVfjNyWzkqrJQjPb3TilNfCSNoCa5Mgd7VzgD5Fxhl2pbQ1HGxc6O3k24vGnt8e/jtte97+oGHYAAGaXZLdIfyLi7Hx5SUa9SxcnDlu9l3oweVV+uVlMYL4yMLS5XVp4ueBxBouXvsqNUwpTf+6eRCNq/XW5L9YGy7E5POie63Xrz/U+a/wZ6AAAAAAAAAAAAAAAAAAAAAAAAAAAAAAAAAAAAAAAAAAAAAAAAACPjtiOg152iUavVFyu0m7a3bm3h5Uown/yXeHPfntHvEg5+DxzwdRqGHlYOVDv4+XRbj3R99dsHCW3ukk94v0aT9ANXUFb9NnRfdouq52mZCasw8iynfntZCL/AAdkd0t4zrcZJrzKIAAACULscOsoq7MnhvKs2ja5Zem95/6zb8Zx47vZd5JXRiubn4hLKaunA3GV+nZmNnYs3XkYt0L6pp7OM4S3X6nzi/g2bGvVj6fcbiTR8TVMdpO2Pcyad+eLlQSV1TW7aSftQ3865RfqBdcAAAAAAAHhm4ULIyhZGM4STjKMkpRlF8mmnyafqjBHrVdlNpWr+Ll6O46Xnybm64x3wciXqnUtvCb8lKvuxT3bjIz1AGtH029XHWOHr/A1TDso3bVdyTljZCXrVavZf1Puy+BbM2hOPOjnB1PHni5+NTlUTTUq7YRmlutt47reMvdKOzXvIwetV2QM4eJmcNWd+O0py02+Xtp7ttY13qttlGqznv8AnpckEXIP2OLeDsrAvsxczHtxsip7Tpui4Tj+p+a5PaS3T9GfjgAAAP0uHeJcjEuhkYt1mPfVLvV21TlXZXJesZRaaZ+aAJKurX2uuRTUsHiOuWRX4cq46hRH8aj7DjHxq91G3m0u8u6/V94jZvnu/v8A2tnmAAAAExHYn/kfWPtKH8PWQ7kxHYn/AJH1j7Sh/D1gSQAAAAAAAAAAAAAAAAAAAAAOlvl9/wCxmsj04flnVvtPO/ibDZut8vv/AGM1kenD8s6t9p538TYBRAAAEpfYf/S8R/o9J/ezSLQlL7D/AOl4j/R6T+9mgSugAAAAAAAik7bvQYeJoOTsvElDMob25uEHXZFb+5Sm2l72/eRZEsPbefRcP/38/wDy6CJ4AAAKz6FfyxpX2lgfxdJs5V/zf7WaxvQr+WNK+0sD+LpNnKv+b/awO4AAAAAAABE/23XCSVugZyXOyvPxZv3Kl0W1r9bts2+pksBHp20ehqfD+nX+tOqxr/7+i1v/ACgIYgAAPTHvcZKUW1KLUoteaaaaa+KZ5gDaJ4D1VX4WLevK7GotX/HVBn75aPqlap43DWhWv8/ScGXP40ou4AAAAAAAAAAAAAAAAAAAAAAAAAAAAAAAAAAAAAAAAAAAAAAAAAAAEXfbE9WJ2VU8TYsN5UKGLqSiucqnLu42Q+fPw5PwZcvmyjJvaJE2bR3GXCGPn4uRh5dcbsbKqnRdXLmrK7IuMl9ez5PzT5muf1qer5kcM6zlaZdvKuEvExbmtllYtjbpsXp3u77M0n7M00wLQgAAZZdnh1v5cMaqqsmcv6J1CUK8yG/LGs+bVlxXlvXvtZ5d6t8/mIxNAG0/p2oQtrhbXOM67IxnCcGpQnCSUoyjJcnGSaafqmj6SJHsw+v4sbweHNZuaplJQ0zLtl7OO5eWJbKXlXJ/RSb9mT7vk0S2xkByAAAAAAAAcbHIAtF099VjReI6JU6liQnPb2MmtKvLpfo4Wpd7l6KXej8CI/rUdlzrGiOzK02MtV05NtOqO+bjw8/wtMV+ES32Uq95Sf5iJzThxA1W7qXFuMk4yi2mmtnFrk00+aafJp80dCfXrQdnJofESsvhWtP1FpuOVjRjGNk9nt49SShYm3u2u7LfnuyIPrH9SzXOGbH8txnbi7+xnYylbiyW6S78tt6m20trFFNvZNgWGAAAAAAAAJiOxP8AyPrH2lD+HrIdzO3s2evPgcMLK0/U6bFjZuRC9ZdXtvGmoRrasre29ey3cotyXonuBN2Cm+A+kXB1THhlYGVTl480nGymaklv5Ka+dCX9iaUvgVIAAAAAAAAAAAAAAAAAAOGwOtvl9/7GayPTh+WdW+087+JsJz+s72g+g8OQsqlfHO1BJqOFizU3GWzS8e1bwqinykk3Yv6pAlxpxI8zMystxUHlZN+Q4J7qDuslZ3U/Xu97bf1A/GAAAlL7D/6XiP8AR6T+9mkWhKX2H/0vEf6PSf3s0CV0AAAAAAAEXHbefRcP/wB/P/y6CJ4lh7bz6Lh/+/n/AOXQRPAAABWfQr+WNK+0sD+LpNnKv+b/AGs1jehX8saV9pYH8XSbOVf83+1gdwAAAAAAADBPtjY/+ylH23hfw+aZ2GAXbM6mo8NYVW63s1iie3q/Cx8lP9S76/wAhUAAA5h5o4CYGxr1IX/7J8O/Y+D/AJbL5lmepvgOrhbh+t+cdIwE/r8Ff+ZeYAAAAAAAAAAAAAAAAAAAAAAAAAAAAAAAAAAAAAAAAAAAAAAAAAAABiX2h/VBjxPpLnjQj/SuBGduHLlF5Mdu9ZiSl7rdt4bvaNmz8mzLQ4aA1X87BnVOddkZQshKUJwknGUJxe0oyT5qUWmmn5M8CVTtUeox9NxPpVXp39Wx615JL/tsIr4fTJf3/VkVYAAAcwm091ya5przRK32e/aZqSx9C4htSmlGnC1OyXKaW0a6MtvykvmwvfmtlLyTcUZzGW3Ncn+wDakrsTSa5p801zTT8nv8TuQodSLtPMrRPB0zWnZmaWmoV3855enxb9G+d1EN9/DftRW/d3bSJiej3pHwtVxa8zT8mrKxrF7NtUlKO/LeMl86E47rvQklKO/MCpgAAAAAAAAAAPh1nRKciudN9cLarIuM67IqcJp+jjJNM+4ARx9afsi8HN8XL4fnDAyX7Twp7/IbXy3VbW8qG0nsl3ouT57LmRUdKvQxqeiZEsXU8O7FtTaTsi/Ct29arV7Fi+MW9vXY2ciiulboY0zW8aWJqeJTlUy32VkU5Vy22U65fOhOPmmnyYGsaCSDrU9kXmYXiZfDs5ZuMu9KWFY0suhJ77VTfs3xUf6zVm/JJkdmtaHdjWzpyKrKLq33Z1WwlVbW/dKEkpRfwaA+IAAAABcXoY6wWraBkxytLzLceS+dX3nKi5bpuNtTfcnF7Lfkn8SVjqtdrXpuo+Dia5FadmSah8pS/ELpPZJye/eocn794LzckQxADae0zVK7q4W02QtrmlKFlc42V2RflKE4txkn709j6jXV6uPXd17hmaWHku7EclKzCyG7caxbrfupveuTS2U4fN9xLl1Yu0l0LiFRotsWm57STx8qcY13S2W/gXNqMt382M9pv3AZcA6xnudgAAAAAAAcAcnBSXSX0r6fo+NLL1LLpxKIp+3bJJzaW/drh8+2f9iCbZF11ou2AyL3bh8N1PHq5w/pG5fjE/PeVFXlUn+bOXt+9ICRTp+61Wi8N0uzU8uFdrg5VYte1mXkbeShUn7Kk+SnZ3Yb+pEx1ou1R1jWvExdM72lYEu9F+HLfMyYc0vEtXzE0+dcOSf5zMM+KOLcnNunkZd9uRdY3Kdls5WTk293zk3tz9Fsj8kD0ycmU5OU5OUpPeUpNylJvzbb5t/FnmAAAAAlL7D/AOl4j/R6T+9mkWhKX2H/ANLxH+j0n97NAldAAAAAAABFx23n0XD/APfz/wDLoIniWHtvPouH/wC/n/5dBE8AAAFZ9Cv5Y0r7SwP4uk2cq/5v9rNY3oV/LGlfaWB/F0mzlX/N/tYHcAAAAAAAAi97bviPbG0DET5zuz8iS9yrhjwr+9zn9W3xJQZMhK7Y3jr5RxPRhxlvHT9NorkvSN99lt1n31On7gMDQAACQKz6F+FHnavpeGl3nlajh4+3wtyK4Sf1KLbfwA2SuirRPk2m4GPtt4GHjVNe5wphuv1blVnhh0qMVFeSSX/KlH+R7gAAAAAAAAAAAAAAAAAAAAAAAAAAAAAAAAAAAAAAAAAAAAAAAAAAAAAHjmYkbIyhOKlCcXGUZJOM4yWzjJPk009mn5ohS7R7qBy0K+esaTS3pF8t7qoLf+irpP5uy5rGm+cH/q37Pl3SbM+DXdDpyabMfIrhdTdCVdtVkVKFkJLaUZRfJpoDVmBm52iPUK/6M2rUsCcZaTl3dyFUpLxsG6e8lSk+dlTSfdkucNtn6GEYAAAC53Qd1kNY4dyFkaXlzpf59T9vGvXuspl7El+otiAJtuq32rek6sq8XV+5pWdsl4k5fiGRLbm42vnTz9LNo89kzO3GyYzipRalGSTUotSjJPmmmt001z3RquGTnVk7QTXuGpRqruebgbrvYWVKU64r18Ge7lS35vucm0twNgwGNvVp6+2g8SxhCi9Ymc1zwcqUYX78+VUuULv+Dnt6GSKYHIAAAAAAAAAA4aLC9ZDqV6HxNVL5bjRry+7tXnURUMqr3byX0kU+bhPdMv2AIDutL2b2t8OysvprlqWmptxyseDlbVHZv8YojvKGy23nHeBiTKOxtR3UqSakk0/NNbp/WnyMKutN2Xeja54uXgKOl6jPvTc6YL5Lk2Pdt3UrZJzk95WQ2lv+sCDAF3enzqq61w3d4Wp4koVt7V5Nf4XFv/u2x5J7c3GWzRaIAAAB2qtcWmm01zTT2afvTXNM6gDMrqvdp1reg+FjZc3qenQUYKm+Td+PBbLai5+0lGPJVy3juS2dXXrj6HxLTCWDlRjktbzwb5RrzKmvP2N9rIr+vXvE1yT7tE167Gtjdj22U2wacLK5OE4Nc01KLTA2mUzkhz6rfa8Z2F4eJxDCWoY+8YxzYbLNojyTdq8shLnJyf4R77J7JEp/RJ056VrmOsnTMynKrai5RhJeNS5fm3VfPrl8GgK9B523JJttJJbttpJL3tvkl8WYb9aHtOtE0HxMbElHVNRimvColvjUT5peNeuT2a9qut95fADL3Wtepxqp3X21001xcrLbZxrrriubcpyaSS95Hb1oe16wsPv4vD0I52QnKMsy2Ljh0tbreqD9q977NN7Vtc+ZHP1iOuLrvE1ve1DLkqIt+Fh0N1YtO/uri135bcnOe8pJLcsgBXPSz026prmTPK1PMuyrZNtKcn4dS9I11792EV5JJckUMAAAAAAAAAAJS+w/+l4j/R6T+9mkWhKX2H/0vEf6PSf3s0CV0AAAAAAAEXHbefRcP/38/wDy6CJ4lh7bz6Lh/wDv5/8Al0ETwAAAVn0K/ljSvtLA/i6TZyr/AJv9rNY3oV/LGlfaWB/F0mzlX/N/tYHcAAAAAAAHhm5EYRlKTSjFNyb5JRS3k39UU2a2PWl6SXq/EWsajupRyM23w2uadNL8Chr4OmqDJyOv/wBM60ThfUciM+7kZNfyHF5d5u/KThvt7o1K2TfpsjXlkwOAAAMsuy84BedxjprcXKvCjk5tr23UfConGl/D8YlWt/57GJpKv2J/Rg0tY1icZLvKrTqW1ylHdZF/dfwnGpP/AOwEp8PI7AAAAAAAAAAAAAAAAAAAAAAAAAAAAAAAAAAAAAAAAAAAAAAAAAAAAAAAAA6zfJgRX9ttx4ttE0xN7/jOdYt+Uk+7RVuv7Mo2ff8AAipM2O114yeTxfdRvvHAwsPGXui7K/ljS/Xfz+O5hOAAAAAAAAB74GoTqnGyucq5walGcG4yhJPdNNc00zPjqs9rLqml+Fia2panhKSi8iUm8/Hh5bqb5XJee1m8tlsmjAAAbMHQt1htI4gx1k6Xl15Edl36/mZFDfPu20t9+D+9fEuOmavnAHSPnaVk15en5N2LkVveNlU3B/FSS5Si/JxkmmvNEoPVY7YKu3wsPiWpVT2UVqdEfwcmtlvk0L5rlzbsr2jHbnF7gShg/F4T4yxc6ivJw8irJx7YqVdtM1ZXOL8mmvL6ns/gftAAAAAAAAAAAB+NxZwfi51FmNmUVZNFsXCyq6EbK5xfmnGSa+P1pEafWl7H2qzxczhqzwp/Oem3zbqm/VY98t3W3zajZvBbKK25EooA1e+PejnO0vIniZ+Ndi31vaVdsHBv4xb5Si/RxbTRTZsu9NvV20jiHGeLqmJXfHm4Wbdy+iW2ylVbHacWvPk9nts90RM9afsn9V0pzytGc9UwV3pOlJLPxorbbeC2V8du83KGzilzUmwMCAe2ZhTrlKE4yhOL2lGUXGUH7pRkk0/g0jxAAAAVZ0a9K+o6PkxytNy7sS+O3tVTcO+t9+7NJ7Tg/WMk0ykwBk704dorxNruLDDvy1j4/cULoYkfA+WPbaTulDaUoy5b179zf0MY5zbe7e7fq+bZwAAAAAAAcwg35F3egLqqa1xJcq9NxJzqUlG3KsXh4mPvvzna+Tey5Rj3m/LkS39VfsudG0PwsrUEtV1GPtd+2P4pjy2/1ND3Ta81O3vST5poCOTqwdnFrnEXcyJ1vTtOl7XyrIi1O+P/APL0vaU91ulN7RT25Mxr4+4bjh52ZiRk5xxsrIx4zlspTVNsq1Jpct2o7vbkbQaoUY7RSSS2SS2SWz8kjWV6cPyzq32nnfxNgFEAAASl9h/9LxH+j0n97NItCUvsP/peI/0ek/vZoEroAAAAAAAIuO28+i4f/v5/+XQRPEsPbefRcP8A9/P/AMugieAAACs+hX8saV9pYH8XSbOVf83+1msb0K/ljSvtLA/i6TZyr/m/2sDuAAAAAHEmclo+tN080cOaLmanc0511uGNW3s8jKsTjRWvP872m/zYxbAi97YPrCxz9Xo0THn3qNJjKWS4v2Z52RGLlHk9n4FShHmt42SsXoR6n6HEWv3ZeRflZE3ZfkW2X3WS87LbZuc5P65Ns/PAAAAjYk6hnQ+9E4X0zFnBwvsp+WZKbT/GMrayS3/sw8OP6iFPqQ9B71/iXTcKUe9jwuWXmbpuCxcb8LOMtvS6SjR9diNirFoUYqMVskkklySSWyX6lsgPYAAAAAAAAAAAAAAAAAAAAAAAAAAAAAAAAAAAAAAAAAAAAAAAAAAAAAAAA62P9q/adjpb5fc/u5/yA10uvXxI8ri7X7W9+7qFtG/n/wBlSx9v1eHsWHK+6wOoeLr2t277+JrGp2br17+ZdLf/ABKBAAACp+jzo0ztWyHi6djWZeQqp3eDUk7HXWk5ySbW/dT38/v8j8HUdMspnKq2E67IPuzrnFwnCS81KMkmn9aM8+xk0ZWcTZtzW6x9GyNvhOzKxIr/AMHfJIust1F9C4mrk8nHWNmbN152Ko15Ck1y8R93a6O+26sUnstk4ga8IMo+s92eWu8Nyla6nqGn7vu5mLCUvDW+yWRSt51Sfny78dk23HyMXGgAAAAAC7nQF1pta4byFdpuXOEG/wALjTfiYuRHdbqdUt4pvbZTilOPo0S3dVrtS9G1vuY2pOGk6g+7FK2f4nlTb2/A2v6Nv0rsfv8Aa9CDUKQG1JTfGSUotNNJpp7qSfNNNcmmvVbo9CAbqv8AaNa7w440Tseo6fuu9i5U5TlVFcn8ntb71T22ST70F/VJeerZ13NC4mrSw8lU5aS8TByXGvJjLlv4ab2uhvuk4byaTbjEDIAHCkcgAAAAAAAADho5PO69RTcmkkm229kkvNt+iXq3yQGNHWe6gWh8SxnbbSsTUHHaGdjpQs39PGgvYuW/m5py25Joh+60fUW1rhaUrMmCydP76hXqFC2plKXzYWQb71Vj2fsNy8vMlI60vag6LoXi4uC1qupR3j4dMl8jx5+X4a+O6k48n4de6kn89MiO6wnWy1riW+VmpZUnT3t68OpuvDoSe8VGpPZuPpOfen/aAs4AAAAAAAAD6MDT7LZxrqhOyyb7sIQjKc5v3RjFOUn8EmzPPqr9k9qmq+Fl61KWmYMl3lSknqGRH0XdacceMlzU5Kba3XdiwMKeAejbP1TIji6fi3ZeRPyrpg5tfGT8oR/tTaRJ/wBVnsfq6/DzOJbVdP2Zx07Hk1TF+e2RctpWfGMO6k90+8Z+9C/V70jQMeONpeHVjxUUp2KKlff6t22vec23z2ctk3ySLjgfj8K8IYuDTDHxMerGorW0Kqa411xXwjFJfX7z9gADpb5ff+xmsj04flnVvtPO/ibDZut8vv8A2M1kenD8s6t9p538TYBRAAAEpfYf/S8R/o9J/ezSLQlL7D/6XiP9HpP72aBK6AAAAAAACLjtvPouH/7+f/l0ETxLD23n0XD/APfz/wDLoIngAAArPoV/LGlfaWB/F0mzlX/N/tZrG9Cv5Y0r7SwP4uk2cq/5v9rA7gAAAcNgdLrVFNtpJLdt8kkvNtvkklzb9xBV2mvW3XEOrvCwrXLStLlOmpp+xm5Kfdvydl86O68Kp+ThHvpLvsy57UvrxLAos4d0u5POyYd3UL6p88CiXnjpryvuj87Z711v0b2UO4AAAAkC63Ve6Cb+I9bwtLpT7ltinlWLfajErad9jez29n2It/6yUF6gSidj51eXgaVka5kQ7t+qtV428dpQwaZP2k929si5d7b3UxfqSHH5fDHDtOJj04tEFXTj1QpqhFJKFdcVCC5JLyS35ee5+oAAAAAAAAAAAAAAAAAAAAAAAAAAAAAAAAAAAAAAAAAAAAAAAAAAAAAAAAAPLI8n9T/Yz1PO5cv8Pv5fzA1iel/8rap9o538TYUiVz07YPha3rFf+z1bUYf8mXbH+RQwAAASP9icv+uNY+zYfxECYkhk7FfU+7r+qU/7TR52L/5WXjR//wBpM2B5ZOLGcXGcVKMk1KMknGSfJpp8mn7mYMdarsrtJ1nxcvSu7peoSW/dhFLAyJ/7ylL8HJ+XfrcUl+azOwAa1HTr1adZ4cyJY+qYk6lvtXkQTsxMhejqu2UXv/Vl3Z/2S1zRtE8acB4eo488XOxqcqixNSqugpwe62bSfk9vzo7SXvIyutR2P30uZwzbtu5TemZEuS33k441z5pLfaFVm6285gRVg/b4w4HzNPvnjZ2Ndi3wbUqr65VzWza3W62lHdcpxbi/Rs/EAAAAfVperW0WQtpsnVbW+9CyuThZXJesZRacX8Uz5QBIj1Vu1vz9P8PD1+EtQxU1FZkNln0Q5Jd5coZEYJezF92fPnORK10Q9Oela7jRytLzKsqpr2lGSVtL9Y21PacHF8m2u635OS5msoVZ0bdK+o6PkRytNy7sS+LT79UtlLb0nHnGcfhNNAbPe5yRndVbte8bJ8LD4khHEt2Uf6RqUpY1r999MU5VN+sod9N+kSR/h/iKjLpryMa6u+i2KlXbVONldkX6xlFtP4rzXkwP0gAAOGyhuljpt0vQ8aWVqeZTi1qLlFTkvFu29KqlvOxt8vZi0m1u0iKXrSdrnn5/iYnD8JafiyTg8yzZ59yfm4Jbwx01utl35eveiBIx1j+utoXDNcvluSrcvut14GO1ZlWP07637tMd9t3Y1JJ7qMiIfrQdpDrvETsoqsem6dJtLFxptWWx9PlF62nY/NNR7kGns4sxW1bV7b7JW3WTttm952WTlZOb98pSbk/1s+QDmUjgAAAAABcvoR6uescQ5HyfS8OzIaa8S1ruY2OuW8rbZeytt9+7HebXlFgW0SMmOrF1Atd4llC2ul4Wn95d/OyoyhGUeTfgVtKV0tmmvmwe/wA/lsSN9VjsotK0nwsvWHHVM+Pdmq5R2wMWaUXtCvzulGS5WWcmvzEZ34mHCuMYQjGEIraMYpRjFLyUYrZJL3JJAY5dWXqFaFwzGFlFCys9L2s7JSndv/uo7d2mPu7i7yXnJmSSRyAAAAAADpb5ff8AsZrI9OH5Z1b7Tzv4mw2brfL7/wBjNZHpw/LOrfaed/E2AUQAABKX2H/0vEf6PSf3s0i0JS+w/wDpeI/0ek/vZoEroAAAAAAAIuO28+i4f/v5/wDl0ETxLD23n0XD/wDfz/8ALoIngAAArPoV/LGlfaWB/F0mzlX/ADf7WaxvQr+WNK+0sD+LpNnKv+b/AGsDuAcNgGzCztAev3Rw1jzwMCcLtavg+7FNShpkJLZX3L/aetdT9fafLzpDr2dppjaPGzTNDsrytUe8LcmO1mLpq2591r2bcj3Jbwr82213SGviLiO/Lvtycm2d9903ZbbZJznZOT3bk3/6QHlrOs25Ftl99krbrpystsm3Kdk5veUpN8223u2fGAAAAHMI7vYnJ7Lrqnf0FpH9JZdXd1PVYRnJSXt4eFylTQ/dKz6azbz3rXJwZgz2YfU3evaj/SudU3pWmzjKKmmo6hmRalXSuW0qqdvEte+2/hx596W04VcEkkuSX6tgOwAAAAAAAAAAAAAAAAAAAAAAAAAAAAAAAAAAAAAAAAAAAAAAAAAAAAAAAAAAHSxftX7UdzrPyYGuF10NAeNxXxBU+W+q5dy+rJtd6/zCyxmH2rnCbxuM8+zu7QzKMLJh8dsauix/rtqm38TDwAAAMy+yY4s+TcY4tTeyzcPMxP73sLJ2/wD8ff8AUTt1y3SfwNbLqmcc/wBG8S6Jmb7KrUMeM3/Vrvl8nsb+Crtk38EbJdMt18PTby29P8NgPQAADho5AFq+nTqy6NxFQ6dUw67motV3pdzJx21spVWr2k16b95fAiT60/ZW6voyty9L72rafBObVcds/HgvPvUrfxlHfZOrecvPuLmTgHWUQNVy/HlGTjKLjKLcZRknGUZJ7NNPmmnyafNHQ2A+s92eehcSRna6lgai17ObjQjGUmvJX1ezC6P191rffciC6zHUb1zhic55WO78HvNV5+OnZjyXp4qXt0P9IlFvkmwMeQAAAAAvT1fOt9rnDVqlp2XLwG/wmHdvbiXLy51t+y9vJwcWnz57FlgBNR0VdsVoGVTH+kqcrT8hRXiRjFZOO5evhzT8Rr4Tgtvey3XWD7ZWiNcqOHsSc7ZKS+WZsVGul+kqqIt+J707JQ2foyJwAVb0ldLOo6xkSytSzLsu9/n3Tcu6vdCPKMF8IpFJAAAAAAO1NTk1GKbbaSSW7k3ySSXNtvkkgOp+zwhwblZ+RXi4WPbk5Fr2hTTB2Tlz232S5RX503tGK5tpGZPVY7LLWNa7mVqalpOA2ntbB/LsiPn+Dplt4SfJd63uyW+6iyW3oH6rui8OUKnTMOFUml4mRNKzKyHtt3rLmu8/VbR7q25bAR89VbsgJT8LM4mscF85aZRJd/3pZN8d19ddW6ae3eRJ5wL0dYOmY8MXAxacXHrSjCqmChFJe/bnJ/GTb+JUSRyAAAAAAAAAAAHS3y+/9jNZHpw/LOrfaed/E2GzbfLl9/7GaxvTNkxnq+qTi1KMtRzZRa8pJ5FjTXwaAo0AACUvsP8A6XiP9HpP72aRaEpfYf8A0vEf6PSf3s0CV0AAAAAAAEXHbefRcP8A9/P/AMugieJYe28+i4f/AL+f/l0ETwAAAVn0K/ljSvtLA/i6TZyr/m/2s1gOjDWK8fUtPyLpdyqjOxLrZbOXcrqyK5zlsub2jFvZc3sSb9YHtlq4+Lj8O4bslvKMc7MW1fzuVlWMuck1zXiuLXqgJGOlHpg03RsaeXqWZTiUwi3vZNd+3u+caq17dsv7ME2RE9cPtU87V1bgaH4un6fLeE8hvu52ZFrZreO6oqkvzINykmm5RfIwz6U+mPUtayZZep5d2VdJ772SbhWvSNcPmwilySivIowDtZY222223u2+bbfm2/ezqAAAAAvN1UOrNmcU6rVgYylCmO1mZld1uvDx0/ak35eJP5tcN95S57bRltTnQT0F6hxFqFWnadS7LbGnZNp+Di1b+1ddLyjCK/XJ8lzNgTqudWjB4X0urT8SKlY9rMvJaStzchpd+yT8+6tu7XDyhBJee+4Vr0W9GWHo+Bjadg1RpxsWtVwilzk/Odk3+dZZJuc5Pzk36bFWAAAAAAAAAAAAAAAAAAAAAAAAAAAAAAAAAAAAAAAAAAAAAAAAAAAAAAAAAAAAAAAES3ba8Cd3K0XU15W4+RgT5etE/lEN/i/Hlt79n7iMAnf7Vjoy/pDhPJujFSt026rOi35qqLdeQl8HCab/ALv1kEDQAAAd6LGmmns00009mn6NP0afPc2Ueq90kx1fQNK1CLW+RhUuzZ7922uKqti/c1ODbXxNasl77GHpsV2Bn6FZJeJh2fLsZb85Y97jC9Lf0rtUOS8vEAktAAAAAAAAPk1LSq7oSrthGyuacZQnFShJNbNOLTT3Ta8j6wBHn1puyS07Ue/l6DKGm5b70pYrTeBkN7Nd1L2seXJr2N4yct3tsRQ9MPQVqug5LxdUxLcW3n3HJd6m9LzlTbHeFkfe4vl5PY2aSlOkjor0/V8aeJqOLTlUWLZwtgpbP0cZP2oyXmmnyYGsGCTHrU9kHkY/iZnDc3kUJd56ddNvJr2Tb8C6XK1cuUJ/hG3y3I4eI+GcjDusxsqm3Hvqk4W03QlVbVJecZQkk0wPzAAAAAAAAAV50Q9Buqa7kxxNLxLcq1td5xW1NKf511r9iqPxkyVnqs9kbp2B4WZr8o6jlpd75Gl/1fRL076+dkNLk1P8Huk0uQEdfVs6kOu8Tzi8PHdOHv7efkqVeLFeT8Pl3r5J8nGpPb1aJeurB2dOhcOKF7qWoaiku9mZMYy8KXm/k9XOFS3bW63lJbbmUWmaVXTXGqqEK64JRhCEVCEIpbJKKSSSSSPrA6xjsdgAAAAAAAAAABw2BycNltum3rE6Rw9jPJ1TMrx4/wCrr37+TkPl7NNEfwk37+SSXNsib60fay6rqvfxdFU9KwnvF3KSeoZEfLnZHlTF8/Zq5tPZsDOvr19fDT+HsDJxMTIrv1q6qyrHpplGx4E5xcfHyWm1W69+9Gp+1N7ehA5ba5Ntvdtttvzbb3bfxbPTLzJ2Sc5ylOcnvKUm5Sk35tt7ts8QAAAEpfYf/S8R/o9J/ezSLQlQ7D/Fl3uI7NvZ20mG/o5N5z2X1Jc/duveBKwAAAAAAACLjtvPouH/AO/n/wCXQRPEqvbd5v5Ar5clnT+PNVR+7l95FUAAAAAAAAAAAAuj1eurlqfE2dHB02lza2lffLdY+HU3t4l0/Jevdgvam1slyZdTqfdQXVOKbYXOM8PSYy/C51kdnaov2q8WEl+Fs/N7/wBHB/OfoTe9BnQHpnDuDXgabjxprik7LNk7sqzbZ23WfOnN/Hklsl5AUt1VOqjp3CmnxxMSKsyLEpZmZKK8bMt29X+bVHyhWuSXPz3L3gAAAAAAAAAAAAAAAAAAAAAAAAAAAAAAAAAAAAAAAAAAAAAAAAAAAAAAAAAAAAAAAAAU/wAfcKV52FlYdsVKvKotonGS3TVsHDn9Taf6jWX6QeC7tOzszAvW12Hk3Y1nJreVM3DvJP8ANnt3ov1TTNoeSIVe2C6C3g67Vq9UUqNYpTsa9M3EjCq1beS71HgT/tSc3ze4GAQAAF6Op707z4c4g0/Ut/wEbfAzI78p4l/4O7f41p+LH+1BFlwBtPaZnwtrhZXJShOMZwkualCSUotP1Ti0z6jAbsmes+tU0l6LlWuWdpUfwXfe8r8BySqkn5ydEn4Ut23tKBnyAAAAAAAAAAAHBZXrDdULQ+JqXDUcSHjpbVZlSVWZQ9uXdtS3lDfm65bxl6ovWAIIOtD2Y2t6C7MjDjLVdPXel42PBvJx4Ldr5RSufKO3esr3h8EYbzg1yfmuX1f+RtSzgnyfMw96zvZl6Fr/AH8jHgtL1CW78fFhGNN8tuXj0JKMt3zlOG1kn+cBA2DPPi3scOJ6bHHEu0/Mr35WO54ja9H3LFNr6typui3sYNXushLVs7Gw6lJeJDGbyr5R57queyqjLye84temwEe/D/Dt+VdDHxqbL7rZKNdVUJWWWSbSSjGKbbe5I31WuyCysrw8ziSyWJS3GcdPpknk2x5Pu5Fi5Up84uEH4kX6okO6u/U+0PhmpQ07Fj47io25l21uXe9lv3rH8yMmt/Dr7sE/JIvaBSPRp0S6do+NDE03EpxKIfmVQUe8/WU5fOnN7c5SbbKvAAAAAAAAAAAAADyvyIxTlJpJLdttJJe9t7JL4tpGEXWk7U/R9F8TF03u6tqEVKP4Kf4li2LdLxbl9I4te1XU01y9rmBmPxbxpiYFFmVmZFWNj1JynddONdcEvfJ+f1LdkaXWm7YOEPFw+Gau/LnF6nkQ/Br3vGol85p8lO3eLT3SRHx099aPWuJL3dqeZOyKf4PGg/Dxcde6umO0U9uTm05S9Wy0wFRce9ImbqmTZl5+TdlZFr707Lpucn7kt3tGK8klskinQAAAAAH6XD3DWRl3Qx8amy+6ySjCqqErLJttJJRim/Xz8viB+dGO5PD2XHQFbonDcLcmt15eq3fLrISW06qO4o41cl579xO3Z814u3oY5dSLsp7KrqdV4lhFeG4W4+lqSl7S2kp5kly9mW34BeTT7za5EqFdaSSSSSWyS5JJeSS9F8AO4AAAAAAdZvkBED22mst6ro2Pv8zTrbmvd4mTOtP9fhv7iNczV7XHjB5PF99KknHBw8PGW35rnX8plH9Urnv8eXoYVAAAAACQAFScDdG2fqd0cfAxL8u6b2jXRXKxt7b82vZXL+tJbEgHVy7HXOyu5kcQZHyGnlL5HjuNmXYuT2ss511J84ygk5rfk0BH3wP0f5up5EMTAxrsvIse0KaIOyb2820uUYrbnKTSSJTuqL2RtWO687iZwyLVtOvTa5d7HrfmvlNi5XNf7OP4NrdS3M8Ohfq6aPw/QqNLwacZbJTsUe/kXbett8t7LH/ek9i5IHyaRpFVFcKqa4VVVxUYV1xUIQilsoxitkkkfYAAAAAAAAAAAAAAAAAAAAAAAAAAAAAAAAAAAAAAAAAAAAAAAAAAAAAAAAAAAAAAAAAAAAAxz6/PQJ/0g4bzcautTy8ePyzC8lLx6E5OCeze1tTnBpeb7nuRkYdZxA1W7qnFtNNNNpp8nFrzTXo15NHUzM7T/qv/ANA67LNx4bafq7syatl7NGUnvlUfBd6atj71Y0vmMwzAAAC4PQL015fD+q4mqYcmrMaxOde+0MmmXK6iz+xbBuO/5r2kuaRsX9DHS7h65puLqeDYp0ZNamly79M9trKbFv7NlUt4yT+HvNY8zD7O3rtT4Xz/AJJmzlLRc2a+UR27zwbvmxy6/VJco2xXKUOe3eimBPKD5dL1Ou6uFtU42V2QjZXZBqULITSlGcZLk4yT3TXJn1AAAAAAAAAAAAAAAAAAAAAAAAAAAABw2UF0v9OulaFjSy9TzKsapL2VKSd1ze+0aql7c5Sa2Wy7u/nJAV65GPnWT68WhcMwccvIV+Y0/DwcZxsyJNJ7eJs3GiDa278+a3+ayOrrUdrfqGoeLiaBCWnYbcoPLns8/Jh5brzjjKS9I7zX9cj51LU7LrJ23WTtssk5Tssk5zsk/OUpSbcpP1bbYGUXWh7RbXeJHOhWf0dpzcksPFlKPixe/wD2m3dTubW3ei2qm+agjFRsAAAAAASAHauptpJNtvZJc22/JL3t+5c2Xr6u/U91zia1R0/Fax1JK3Nv3rxKU3/Xa/CS23ajWpbvk3Hfcl26rHZoaJw+q8jKhHVNSjtL5TkQXgUS92PjveEUnzU59+xPmpICOTqs9mTrevuvJy4y0vTZe1418GsnIjya+T0S2e0ua8Weyi182RLr1eOqFonDNKhp2LHx3FRtzbkrMzIfq5WNeyn59yvuw90S9MYbeR2A4OQAAAAAAAeWRaoptvZLm/qXN/4JnqWL67HS4tE4Z1XNUnG35NLHxmlv+M5X4Gn7pSbe3ogIGus70h/0rxBrGepd6GRqGTKl77/i8LJV4/P12pjDy5e4tgAAAO1fn/j93MDKnqudnVrPFGLHPouxcTAldZT490pTtcqu733HHilKUV3tlLvrdpr0M+uiDsdNCw3CzU8jJ1SyPnW38mxG+WzUK9rXz9JWST8uZkr1K+jp6Vwvo2HJJWRw67bdls3Zkt5Em170rVH/AIS9wFLcBdF+n6XSqNPw8bDq5bwx6oVKbS270+6k5S98pbt+8qkAAAAAAAAAAAAAAAAAAAAAAAAAAAAAAAAAAAAAAAAAAAAAAAAAAAAAAAAAAAAAAAAAAAAAAAAAAAALNdbPq8UcTaLlabbtG1rxcO5rd42VWm6pb+ajJ71z2/Mm3z2Rrq8ZcJZGBlZGFlVurIxrZ03VyTThOEnF+aT2e28Xtzi0/U2jmiNftX+pg82l8SabVvlYtfd1OmuO8srGj83KSXOVmOuU+TcqnvuvC5hEAA0AAAAkE7OntEZaLOrRdatlPSZyUMbJlvKekSk+UZeblhyfnHm6X7Ud17JM5g50LYRsrnGcJxjOE4SUoWQkt4yjJNqUZLmpJtNeRqvmbfUa7R/M4clXp+pO3N0ZtRhHfvZGmby5yocvn1c23RJ7L81x8gJzQU10f9I2DquLXm6fk1ZeLct4W1S3i36xae0oTXrCajJe4qUAAAAAAAAAAAAAAAAAAAAB0ssSW7aSXNt+SS82/cl6v0A7n5fEfE2PiU2ZGVdXj0VRcrLbZxrrglz5yk0t/cvN+iZiN1pu050TQVZjYclquopNeFjzXyXHn6ePkLdPZ8+5V39+abgyIrrCdbjW+JrvE1HKl4K+jw6d6sOlb77KpNqT8vasc5L0aAkO61Xa+42OrMPhqtZV3OL1K+LWNW/JvGpe0rXtzjZZ3FGXnCSItekjpU1DV8meZqWXdl5Fj3c7Zb934QitoVx/swjGPwKVAAAAAAAB9Om6XbdZCqmudttku7CuuErLLJPyjCEU5Sl8IpskH6q3ZI6hqHh5evylpuI2pLDhs8/Ih/alzhjRknun7c9t04wfkGDnRp0TajrGTHE03Euy8if5lUd1Bc33rJvaFcdk+c5RT9N3yJTOqv2QeLjeHl8SWRzLtlJafTKUcSp+661d2d7+EfDinyffRnn0R9B2l6FjRxNMw6cWqK2bhFeLa993K217zsk3z9qTSfkkV2B+foPD9GLVCjHproprXdhVVCNddaXpGMUor9S5n6IAAAAAAAAAAAAcNkUHbQ9OKlZgaBTZv4a+X5sYyfszmnDGqnH3qG96T9JRfqSd9I3HmPpeDlahlzVePiU2X2y5fNri3svfKT2jFerZra9N/Srdreq52qX7+JmZE7VFvveFW3tVUn7qq1GC+CAoYAAC6nVa6MnrHEOk6cttsjMq8Tdd5Kmp+Nduvc665R3fvXn5FqyTXsXOhV2Zepa7bB9zGrjgYkmuTuu2syZR3W3errjUk090rZL1AlswseMIRjFJRikopLZRiltFJe5RSX6j3ODkAAAAAAAAAAAAAAAAAAAAAAAAAAAAAAAAAAAAAAAAAAAAAAAAAAAAAAAAAAAAAAAAAAAAAAAAAAAAAAHlkY8ZRcZJSjJNSi0mpJrZpp8mmns0+TXI9QBCB2lHUYnoGXLVtNplLR8ubdkYLdaVkTl9HLb5tFre9UvKL3g2m4J4LG0jxZwpj52NfiZdUL8fIqnTdVNJwsrmu7JNfU+T809mtmkQPde3qNZXCuW76FO/Rsix/JsnZyliyfNY2S182cfKE3ysW3rugMTwAAAAF4urn1rdY4YyfG03Iaqm4+PiW72YmVFPynXutpc3tZBxkm995bbEx/VX7R/Q+I1DHtsjpmpNc8PJsXh3Nbb/ACfIkows80lCfcsk/mxezIDjvTe4tOLaae6aezTXk01zTXvXMDakTOSA/q5dphxDoPh0W2/0pgQ2SxsyUnZVBbrajJ52Vpbt7NTTZJf0FdqFwzrHcquyJaXlS5eDnbQqbSW7hkxbqUW3y8WUJP3AZgg+LSdapvrjbRbXdVPnG2qcbapr+zODcX+pn2AcgAAAAAAAAHG4HJw2Wb6aut1w/oEJvUdSohbHf8VqksjLlJL5jpr70q2/JO3ux+JGd1ku1/1LOU8bQaXplD3Ty7HGzPsX9hLevH8k94ube78gJIusZ1ytC4Zqbz8pTyX8zBxnG7Mm9t13q90qotbPvWuCa8tyIfrRdpTrnELnj0Temac20sbGnJXXxfJfKb1tKfJJ92KhFNte0Yoazrl2TbO6+2y62xuU7LJOdk23u3KUm2+Z8QHMpt82cAAAAAALq9A3Vj1niPIVOmYdlsVLu25M068PG8t/Eva7u6T38OPesa8osC1RlR1Xuzu13iRwv8J6fpz2k83KhKPjRbX/AGal7TubXNSfcra8pkjfVX7K/SNF8LL1Nx1XUYpS9uP4jjT5fQ0v6SUWvZtt5837CM4MfGjCKjGKjGKSjGKSjFLySS5JL3JJAWC6tnUg0LhmtPEx1dmNJWZ2So25Mmtvo213aY781GtJrfbvSMgUjkAAAAAAAAAAAAAAA4OTGzry9bqjhTSp2xcJ6llKVWnY72k3b3XvkWQ3TdFHnJ+Up7Q33YGF3a+dbBWTjwxhWxlGuULtVlCXe/CLadGI2uX4P6WyO+8Z92LXJoi7Pv17Xbsq63IyLJW3X2Tttsm9522WScpzk/VybbbPgAAAD6NPwZ22Qrri5znKMIRXNznJqMYpe+Uml+s2OOp90HQ4e4e0/Tkkro1ePlvydmXelO5v4w3VK/s1x9xE/wBlH1cP6Y116lkV97C0dQu9pbwuzZ7rGr5raShtK2a84tVf1iceKA5AAAAAAAAAAAAAAAAAAAAAAAAAAAAAAAAAAAAAAAAAAAAAAAAAAAAAAAAAAAAAAAAAAAAAAAAAAAAAAAAAAA/B434GxNSxbsLNorycXIg4W02xUoTi/g/JrzUls0z94AQUdevs8Mvhq2Wdp8bcvRZty8RRdl2mNv6PJ25ur+pkeT8pbS23wuNp7U9LrurnVbCNlVkZQsrmlKFkJLaUZRfJxa5NMir67PZRSi7tT4Yr70X3rLtJWycNlu3hP85N7tY75ryhv5ARag+jUNOnVOdVsJV2VycJwnFwnXKL2lGUZJOMk+TTXmfOAAAAJgAV/wBHHT7rOkT7+m6ll4j8tqrpKDXucG3Bp+q2MsOjzthuJcXurMqwtRglt7dbxrWvjbVu2/i4mCAAl54P7bHTZJLO0jMpk9t5Y1tN8E/Xla65bfUt/gXk0LtZeDrV+EzMnGfutwr7Nv8AuIz8yCIbgbCOD2jXB1nNa1SuSftU5EPP+9Wufw8z6n2hXB//AMbxv+S7/wCg15ABP9qvaccGU+erqfwrxMuxv6mqtv8AEtrxb2xvDFG/yenUcx+nh010p+7d3zi0n9TfwIS9wBJ5x/22OVJSjpuj1Vbrlbl3ysnB/oq49x/rmYo9KvaD8V6upQv1SyimacZUYSWJTKL5bSUPaf65fExxAHtl5s7JOU5SnJ+cpScpP65Sbb/WzxAAAAAAemPjynJRjFylJpRjFOUpN+SSW7bb5JIDzP3eCuBczUciGLg412XkWPaNNFcrZv03ain3YrfnOW0Yrm2jNLqr9lNq2seFl6v39K0+S7yhKKeoZEeeyjTL6BPl7V20tucUyWnoP6tmjcO4/wAn0vDro3S8S5rv5OQ15Suvku/N/ckuWwGAPVa7HxR8PM4mtUmu7NaZjz9lbPfu5N6+d5c4Vbwkm05EmPB3A+Hp+PDFwsanFx60lCmiCrrgl7orz+t7s/cSOQODkAAAAAAAAAAAAAAAAFnOsv1pNM4XwZZefanZJSWNiQlH5TnWL82uD8oJtd+2XsQXxaA/U6xHWD0/hrTbtSz7EowTjRQmvGzr2m4UUxfNyk+cpeUIbyeyTNfLrDdP2dxJqd2pZ0l37PYqqjuqsSiO/h01r3RXm/OUt2z9XrO9aHUuKdQlm50+7XHeOLiQb+T4NTe/crT85y5Oy1+1OXnySRZ4AAAB+twlwtfnZNGJjVyuyMi2FNNcIuc7LLJKMYqK3b5vd+5Jv0PyUiWPsj+p74df/SfUKfwlqlXpNc+Trq+bbmd30lY966W9moqU1ysiwM4uqd1e6eGdEw9MrUZWwi7cy5JJ5OXb7Vs2/VR5VQ3/ANXCBeM4SOQAAAAAAAAAAAAAAAAAAAAAAAAAAAAAAAAAAAAAAAAAAAAAAAAAAAAAAAAAAAAAAAAAAAAAAAAAAAAAAAAAAAAAAcNHIAxg61vUB0XiiMrrK/kWpd1KGfjxirJ93buxyIco3w2Xd3l7cI/NaIdesp1JNc4YsbzMd3YbbVWfjqVmLYt2kptbyose2/h27PZ780bFJ8upaZXdCVdsI2Vzi4zhOKnCcZLZxlF7pprk0BqwtAmx6xXZH6LqbnkaTN6RlS3fchF2YFkn76V7Va+FOy+DIzOnXqNcR8PynLMwLLcaL2WZip5OLJNvu96UE3XJpb9ya3Xv5AWBB2lBr/15fX7v1nUAAAAAAAAAAAAAAAAAAABln2fXWV0Th7UHPV9MqvVsl4Wp9x3ZWltJLaFT3i6pc3KUErU/VrkYmADaH4G48w9SxqsvByKsnGtipV20zU4NP0e3zZLycZbNPkVCa2PQB1pNa4ayFfpeXOuDf4XGn+FxMleTVlMt4OW3KNiSnDzTRLH1be1i0TVlXj6rtpGa9o962W+BdLbzhf507vZKF27bfmBnWD5cDUq7YRsrnGcJLeM4SU4ST8mpRbi0/rPqAAAAAAAAAAAAAdXNf+vT6/cB2Osp7GP/AFgOvNw9w6pwzM2FuXGO8cLFavym2m4qai+7VGT5d+b2Xu9CKrrQ9qJrevK3Fwm9J06badVEn8ryIc9lfkrZ809pQp7lcltumBn71wu000zh+NuHp0q9S1Zbx7kJd7EwZb7N5FseUpx2f4Gt95PbvNLchl6W+mHUdczbM/U8mzJyLOW837FUE241VQXs11w32jCKSX6yjJzbe75t+bfNs4AAAAAXu6pfVYzeK9ThhY6lXjQannZndbrw6N+b38ndZ82qvzlLn5JsC43Z89TGzijUldkwlHR8GyE8uxqUY5ck+9HDqmuXfmtnY1zrr5+ckT06XpldNddNUI11VQjXXCCUYVwhFRjCMVyUYpJJLyRSnQ70RYWhadjaZp9XhY2NDuxXnOyTfestsl+dZZNucpP1ZWwAAAAAAAAAAAAAAAAAAAAAAAAAAAAAAAAAAAAAAAAAAAAAAAAAAAAAAAAAAAAAAAAAAAAAAAAAAAAAAAAAAAAAAAAAAAAAAOllSa2aTT5c+fJ8tjuAMbOmns9uFtb7079OrxsiW+2Tg/ilqk/OUo17VWy+NsJmEfSv2KmVX3p6NqkL0vm0Z8PCsfPl+HqXh+X+7JbwBrv9InZ/8WaY5eNpGRdXHzuxEsun/mhz+r2SxescL5OO3G+i6mUXtJW1WVuL9z78UbSTifj8QcF4eWu7lYuPkx919Nd6W3lysjJcgNXJw+r70znw37n9xsbcUdSXhTM38bQtP9rz8GiON5vf/UeHt5en8y3mrdlvwXa21pUqm/8AZZmYl5+kXe4r3ckgIC+4/cO4/cydaXZJ8H7/APZspfD5Xby/8R6Y/ZL8HJ7vEyZfB5lyX/hmmBBK4P3M5Vb/APTW/wB3mbAOj9mXwXS01o0JtetuVmWp/wDDO9x/wLncMdVPhvD2+T6JpkGttpSw6bbFstltOyEpr9T5ga7PC3RTqWdOMMTBy8mUvJU49s993sufd7vP6zJLo27LLi3UNnbhw06vdJyzrY1WJc+apj3pS+rdE8GnaVXTBV1Vwrrj5QhFQhH6ox2iv1I+pICMbg/sTsOOLas7V8i3MlXNVSxqo1YtNjXsTlCzv22KL5SXfSlFvZRe20bfT31fNT4cz7MDUqJVzi26rkm8fMq3fdtos8pRa5tfOi901y57LxbLp+6vGmcSYMsDU6fEhu5VWw2jkYlu2ytos/NkvVPeMvKUZLkBrSAyK62vUk1XhTIfjxeRp1k2sbPrT8Ocd9owvW34C/bZOEntJ84t77LHVoAAAATAAvB0K9bXiDh+UXpuo31VLbfGm/HxJLfdrwLe9XFy5pyjFS5+fkZ99D3bVRfdr1zS+629pZOnzfdjH3yx7XKUpP8AsWRXw90UgA2H+jbr/wDCeqKPgavj02S5KjLbxL/T8yzdeu3zi++l8R0Xrem6q1eaddldia967kpGrTuft8O8c5uG98TLycV+/Hvsofv865RA2i1Z9f3P/wAh30a4nD3XT4qxVtVruo8tvpcieR5eX0zn/wDcrGjtKONYrZa5d+vHxJf4yobA2Cu+g7Pr+5/+Rr5ZfaScaTWz1y7bmvZoxYPn8Y0p/wDkUjrvXT4qyd/E13Ueb3/B5E6P8pw2/UBsX6hrlNS3tsrrXnvZOFey/wCOUSz3SF11eF9M7yytZwlOK38Kq1X3S57ezCvvb/ejXm4h6Q8/L/7Xm5eT/wDiMi2/f/vJyPwO8BMR0o9tHpVPehpWnZObLu+zdktYlKl/aq9q2Ud/dKLa9xg303dpHxTranXLN+QY0uXyfT08aOzS3TuTeRNP3Ssa8zFoAemTkynJynJylJtylJtyk29223zbb57nmAAAAABIyx6mnZ96nxRbXkWqeFo8ZrxcyUdrMlJ+1Vhxktpzfk7WvDhvv+E2cQLd9VrqmanxVnLGw4OvHrlH5ZmzT8DDrb5+7xLWt+5TF96T8+6uZPj0AdAGncN6dVp2nVdyuG0rbZbO/MuaSnffNL2py9F82EdoxSS2P1eiLoe0/Q8GrT9Nx4Y+PUvKPOdk386y2b9qyyXm5Sbfp5bIrUAAAAAAAAAAAAAAAAAAAAAAAAAAAAAAAAAAAAAAAAAAAAAAAAAAAAAAAAAAAAAAAAAAAAAAAAAAAAAAAAAAAAAAAAAAAAAAAAAAAAAAAAAAAAAAAAAAAAAA/K4n4Wxs2izGy6KsjHuj3LaboRsrsj7pRkmns+afnFpNNNJkT3XE7JW/GduocM96+j2rLNMm976Fzb+STf0sF6VTffS/OlyRLscNAaseq6RbRZOq6udVtb7s67ISrsrl7pwklKL+DSPkNijrK9SPQuJ4b5mP4OWt/Dz8Xu1ZcXtslZLutXQ8t42KT2WylEiX6yXZk8QaE7L8ev8ApXAju1kYsH49cPR3Y3OcX+jdn6gMPwemRjShKUZRcZRbjKMk1KEk9nGSfNNNNNPZpnmAAAAAAAAAAAAAAAAAAPfCwZ2TjCuEpzm1GEIRc5zb5JRjFOUm36JNgeB+rwzwrk5t9eNiUW5F9slGuqqErLJtvZbRim9t3zk9or1aMxurb2Vevaz4eRqCWj4Mtpd6+PfzboPZ/gsZNdxNcu9bKEoPn3JEs3V56o+icM0qvTcVK5pK3Nu2tzchpPdytaXcT3fsVRrhttuntuBg51POyQjDw9Q4o2nNOM6tKrn+Djy3XyyyOzlJPzpraimucpptEn+laVVRXCqmuFVVcVCuuuKhXXCK2jGMYpRjFLySSR9SRyAAAAAAAAAAAAAAAAAAAAAAAAAAAAAAAAAAAAAAAAAAAAAAAAAAAAAAAAAAAAAAAAAAAAAAAAAAAAAAAAAAAAAAAAAAAAAAAAAAAAAAAAAAAAAAAAAAAAAAAAAAAA6yhudgBj508dRThviHvWZmDGrKktlmYm2NkrzabcV4c+fN+JXJv3kd/Tf2NurYvft0XLp1KpbtUXL5Jme9RhzlTa/TvSnVvy5EyZw0BrJdInQXrGkzlDUdNzMRwezlbTLwd/hfFSpl/wAM2UN3Taa1LRqrouFtcLYPzhZCNkP+WalH/AsB0kdn1wlqjnK/SaKrZ7uV2J3sW1t+u8H3Pq9gDXjBMXxx2K+kWtywNVzcTz2hfXXmx+Ccm6JJfHmyyfE/YpaxFt4mq6ddH0WRHIx5Pl/u67knvyXPb3tARwAzW1nsjeL69+5Tg37L/VZW2/wXixhzKbu7LbjVf/uqMvjHNw9l8PauQGJoMtMXss+NZPZ6XCHlznm4jX1+xbJ8iqdF7Ibi21rxIafRv625Umly9fCrs+rkBhECSfhfsT9Vk18s1fAqXLf5NXdktL128WNG793kXx4G7F7Q6dnnahn5r9VUq8GD+G0fHe3/ABJv3oCGjulyOjTq3a7rEoR07SszJU1vGyNTrx5L3rIt7lG3r9ITy9G3UY4V0pxni6Piu2HldfF5N363a5R/8CL44WnV1xUK4RhBLZQhFQgl8IxSiv1ICIvoR7GTPu8O3XM+rDr3jKWLiL5Rkyj5uE7pd2umT/rQjcl8SQ7oO6mfD3D8I/IMCt3R88vJUcjMm9903bOO0WvR1QrL3bHIHCRyAAAAAAAAAAAAAAAAAAAAAAAAAAAAAAAAAAAAAAAAAAAAAAAAAAAAAAAAAAAAAAAAAAAAAAAAAAAAAAAAAAAAAAAAAAAAAAAAAAAAAAAAAAAAAAAAAAAAAAAAAAAAAAAAAAAAAAAAABx3TjuL3I7ADr3F7kc905AAAAAAAAAAAAAAAAAAAAAAAAAAAAAAAAAAAAAAAAAAAAAAAAAAAAAAAAAAAAAAAAAAAAAAAAAAAAAAAAAAAAAAAAAAAAAAAAAAAAAAAAAAAAAAAAAAAAAAAAAAAAAAAAAAAAAAAAAAAAAAAAAAAAAAAAAAAAAAAAAAAAAAAAAAAAAAAAAAAAAAAAAAAAAAAAAAAAAAAAAAAAAAAAAAAAAAAAAAAAAAAAAAAAAAAAAAAAAAAAAAAAAAAAAAAAAAAAAAAAAAAAAAAAAAAAAAAAAAAAAAAAAAAAAAAAAAAAAAAAAAAAAAAAAAAAAAAAAAAAAAAAAAAAAAAAAAAAAAAAAAAAAAAAAAAAAAAAAAAAAAAAAAAAAAAAAAAAAAAAAAAAAAAAAAAAAAAAAAAAAAAAAAAAAAAAAAAAAAAAAAAAAAAAAAAAAAAAAAAAAAAAAAAAAAAAAAAAAAAAAAAAAAAAAAAAAAAAAAAAAAAAAAAAAAAAAAAAAAAAAAAAAAAAAAAAAAAAAAAAAAAAAAAAAAAAAAAAAAAAAAAAAAAAAAAAAAAAAAAAAAAAAAAAAAAAAAAAAAAAAAAAAAAAAAAAAAAAAAAAAAAAAAAAAAAAAAAAAAAAAAAAAAAAAAAAAAAAAAAAAAAAAAAAAAAAAAAAAAAAAAAAAAAAAAAAAAAAAAAAAAAAAAAAAAAAAAAAAAAAAAAAAAAAAAAAAAAAAAAAAAAAAAAAAAAAAAAAAAAAAAAAAAAAAAAAAAAAAAAAAAAAAAAAAAAAAAAAAAAAAAAAAAAAAAAAAAAAAAAAAAAAAAAAAAAAAAAAAAAAAAAAAAAAAAAAAAAAAAAAAAAAAAAAAAAAAAAAAAAAAAAAAAAAAAAAAAAAAAAAAAAAAAAAAAAAAAAAAAAAAAAAAAAAAAAAAAAAAAAAAAAAAAAAAAAAAAAAAAAAAAAAAAAAAAAAAAAAAAAAAAAAAAAAAAAAAAAAAAAAAAAAAAAAAAAAAAAAAAAAAAAAAAAAAAAAAAAAAAAAAAAAAAAAAAAAAAAAAAAAAAAAAAAAAAAAAAAAAAAAAAAAAAAAAAAAAAAAAAAAAAAAAAAAAAAAAAAAAAAAAAAAAAAAAAAAAAAAAAAAAAAAAAAAAAAAAAAAAAAAAAAAAAAAAAAAAAAAAAAAAAAAAAAAAAAAAAAAAAAAAAAAAAAAAAAAAAAAAAAAAAAAAAAAAAAAAAAAAAAAAAAAAAAAAAAAAAAAAAAAAAAAAAAAAAAAAAAAAAAAAAAAAAAAAAAAAAAAAAAAAAAAAAAAAAAAAAAAAAAAAAAAAAAAAAAAAAAAAAAAAAAAAAAAAAAAAAAAAAAAAAAAAAAAAAAAAAAAAAAAAAAAAAAAAAAAAAAAAAAAAAAAAAAAAAAAAAAAAAAAAAAAAAAAAAAAAAAAAAAAAAAAAAAAAAAAAAAAf/2Q==;clipPath=inset(15.67% 16.33% 15.67% 15.67%);" parent="1" vertex="1">
                    <mxGeometry x="290" y="130" width="54.32" height="54.85" as="geometry"/>
                </mxCell>
                <mxCell id="13" value="&lt;br&gt;&lt;div&gt;&lt;b&gt;3D Model Generator&lt;/b&gt;&lt;/div&gt;" style="text;html=1;align=center;verticalAlign=middle;resizable=0;points=[];autosize=1;strokeColor=none;fillColor=none;" parent="1" vertex="1">
                    <mxGeometry x="320" y="50" width="140" height="40" as="geometry"/>
                </mxCell>
                <mxCell id="14" value="" style="endArrow=none;startArrow=classic;html=1;entryX=0;entryY=0.5;entryDx=0;entryDy=0;exitX=1;exitY=0.25;exitDx=0;exitDy=0;endFill=0;" parent="1" source="30" target="3" edge="1">
                    <mxGeometry width="50" height="50" relative="1" as="geometry">
                        <mxPoint x="560" y="180" as="sourcePoint"/>
                        <mxPoint x="621.12" y="202" as="targetPoint"/>
                    </mxGeometry>
                </mxCell>
                <mxCell id="33" value="HTTP Request (PROMPT)" style="edgeLabel;html=1;align=center;verticalAlign=middle;resizable=0;points=[];" vertex="1" connectable="0" parent="14">
                    <mxGeometry x="-0.0286" y="1" relative="1" as="geometry">
                        <mxPoint x="-1" as="offset"/>
                    </mxGeometry>
                </mxCell>
                <mxCell id="29" value="&lt;b style=&quot;text-wrap-mode: nowrap;&quot;&gt;OpenAI -- Shap-e&lt;/b&gt;" style="text;html=1;align=center;verticalAlign=middle;whiteSpace=wrap;rounded=0;" vertex="1" parent="1">
                    <mxGeometry x="300" y="100" width="60" height="30" as="geometry"/>
                </mxCell>
                <mxCell id="30" value="Controller" style="rounded=0;whiteSpace=wrap;html=1;" vertex="1" parent="1">
                    <mxGeometry x="425" y="165" width="75" height="40" as="geometry"/>
                </mxCell>
                <mxCell id="31" value="Asset Repository" style="rounded=0;whiteSpace=wrap;html=1;" vertex="1" parent="1">
                    <mxGeometry x="285" y="220" width="110" height="40" as="geometry"/>
                </mxCell>
                <mxCell id="34" value="" style="endArrow=classic;html=1;entryX=1;entryY=0.25;entryDx=0;entryDy=0;exitX=0;exitY=0;exitDx=0;exitDy=0;" edge="1" parent="1" source="30" target="12">
                    <mxGeometry width="50" height="50" relative="1" as="geometry">
                        <mxPoint x="640" y="260" as="sourcePoint"/>
                        <mxPoint x="690" y="210" as="targetPoint"/>
                    </mxGeometry>
                </mxCell>
                <mxCell id="35" value="Prompt" style="edgeLabel;html=1;align=center;verticalAlign=middle;resizable=0;points=[];" vertex="1" connectable="0" parent="34">
                    <mxGeometry x="-0.1375" y="1" relative="1" as="geometry">
                        <mxPoint as="offset"/>
                    </mxGeometry>
                </mxCell>
                <mxCell id="36" value="" style="endArrow=classic;html=1;entryX=0;entryY=0.5;entryDx=0;entryDy=0;exitX=1;exitY=0.75;exitDx=0;exitDy=0;" edge="1" parent="1" source="12" target="30">
                    <mxGeometry width="50" height="50" relative="1" as="geometry">
                        <mxPoint x="360" y="100" as="sourcePoint"/>
                        <mxPoint x="460" y="190" as="targetPoint"/>
                    </mxGeometry>
                </mxCell>
                <mxCell id="37" value="3D File" style="edgeLabel;html=1;align=center;verticalAlign=middle;resizable=0;points=[];" vertex="1" connectable="0" parent="36">
                    <mxGeometry x="0.2273" y="1" relative="1" as="geometry">
                        <mxPoint x="-14" y="1" as="offset"/>
                    </mxGeometry>
                </mxCell>
                <mxCell id="39" value="" style="endArrow=classic;html=1;entryX=0.5;entryY=0;entryDx=0;entryDy=0;" edge="1" parent="1" source="30" target="31">
                    <mxGeometry width="50" height="50" relative="1" as="geometry">
                        <mxPoint x="420" y="200" as="sourcePoint"/>
                        <mxPoint x="470" y="150" as="targetPoint"/>
                    </mxGeometry>
                </mxCell>
                <mxCell id="40" value="3D File" style="edgeLabel;html=1;align=center;verticalAlign=middle;resizable=0;points=[];" vertex="1" connectable="0" parent="39">
                    <mxGeometry x="-0.2471" y="1" relative="1" as="geometry">
                        <mxPoint x="-3" y="-1" as="offset"/>
                    </mxGeometry>
                </mxCell>
                <mxCell id="41" value="" style="endArrow=classic;html=1;exitX=1;exitY=0.5;exitDx=0;exitDy=0;entryX=0.5;entryY=1;entryDx=0;entryDy=0;" edge="1" parent="1" source="31" target="30">
                    <mxGeometry width="50" height="50" relative="1" as="geometry">
                        <mxPoint x="420" y="200" as="sourcePoint"/>
                        <mxPoint x="470" y="150" as="targetPoint"/>
                    </mxGeometry>
                </mxCell>
                <mxCell id="42" value="URL" style="edgeLabel;html=1;align=center;verticalAlign=middle;resizable=0;points=[];" vertex="1" connectable="0" parent="41">
                    <mxGeometry x="-0.0742" y="-2" relative="1" as="geometry">
                        <mxPoint as="offset"/>
                    </mxGeometry>
                </mxCell>
                <mxCell id="43" value="" style="endArrow=classic;html=1;entryX=0;entryY=0.75;entryDx=0;entryDy=0;exitX=1;exitY=0.75;exitDx=0;exitDy=0;" edge="1" parent="1" source="30" target="3">
                    <mxGeometry width="50" height="50" relative="1" as="geometry">
                        <mxPoint x="490" y="220" as="sourcePoint"/>
                        <mxPoint x="540" y="170" as="targetPoint"/>
                    </mxGeometry>
                </mxCell>
                <mxCell id="46" value="&lt;span style=&quot;color: rgb(0, 0, 0);&quot;&gt;3D File URL&lt;/span&gt;" style="edgeLabel;html=1;align=center;verticalAlign=middle;resizable=0;points=[];" vertex="1" connectable="0" parent="43">
                    <mxGeometry x="-0.0454" y="1" relative="1" as="geometry">
                        <mxPoint as="offset"/>
                    </mxGeometry>
                </mxCell>
                <mxCell id="48" value="" style="endArrow=classic;html=1;entryX=1;entryY=0.25;entryDx=0;entryDy=0;exitX=0;exitY=0.25;exitDx=0;exitDy=0;" edge="1" parent="1" source="5" target="3">
                    <mxGeometry width="50" height="50" relative="1" as="geometry">
                        <mxPoint x="680" y="180" as="sourcePoint"/>
                        <mxPoint x="730" y="130" as="targetPoint"/>
                    </mxGeometry>
                </mxCell>
                <mxCell id="49" value="Prompt" style="edgeLabel;html=1;align=center;verticalAlign=middle;resizable=0;points=[];" vertex="1" connectable="0" parent="48">
                    <mxGeometry x="-0.2567" y="1" relative="1" as="geometry">
                        <mxPoint x="-4" as="offset"/>
                    </mxGeometry>
                </mxCell>
            </root>
        </mxGraphModel>
    </diagram>
</mxfile>